<svg width="22" height="22" fill="none" xmlns="http://www.w3.org/2000/svg"><path fill-rule="evenodd" clip-rule="evenodd" d="M16.758 0C19.938 0 22 2.063 22 5.242v11.516C22 19.938 19.937 22 16.758 22H5.242C2.062 22 0 19.937 0 16.758V5.242C0 2.062 2.063 0 5.242 0h11.516z" fill="url(#a)"/><mask id="b" style="mask-type:alpha" maskUnits="userSpaceOnUse" x="0" y="0" width="22" height="22"><path fill-rule="evenodd" clip-rule="evenodd" d="M16.758 0C19.938 0 22 2.063 22 5.242v11.516C22 19.938 19.937 22 16.758 22H5.242C2.062 22 0 19.937 0 16.758V5.242C0 2.062 2.063 0 5.242 0h11.516z" fill="#fff"/></mask><g mask="url(#b)"><path fill-rule="evenodd" clip-rule="evenodd" d="M6.639 32.184c8.567 0 15.511-6.945 15.511-15.512S15.206 1.16 6.64 1.16-8.873 8.105-8.873 16.672s6.945 15.512 15.512 15.512z" fill="url(#c)"/></g><g filter="url(#d)"><path fill-rule="evenodd" clip-rule="evenodd" d="M7.563 4.49a3.158 3.158 0 0 0-3.159 3.158v6.832a3.158 3.158 0 0 0 3.159 3.159h6.917a3.158 3.158 0 0 0 3.159-3.159V7.648A3.158 3.158 0 0 0 14.48 4.49H7.562zM2.9 7.648a4.662 4.662 0 0 1 4.662-4.662h6.918a4.662 4.662 0 0 1 4.663 4.662v6.832a4.662 4.662 0 0 1-4.663 4.663H7.562A4.662 4.662 0 0 1 2.9 14.48V7.648z" fill="#fff"/></g><g filter="url(#e)"><path fill-rule="evenodd" clip-rule="evenodd" d="M6.768 11.129a4.275 4.275 0 1 1 8.55 0 4.275 4.275 0 0 1-8.55 0zm4.275-2.772a2.772 2.772 0 1 0 0 5.543 2.772 2.772 0 0 0 0-5.543z" fill="#fff"/></g><g filter="url(#f)"><path fill-rule="evenodd" clip-rule="evenodd" d="M15.361 7.777a1.031 1.031 0 1 0 0-2.062 1.031 1.031 0 0 0 0 2.062z" fill="#fff"/></g><defs><filter id="d" x=".9" y=".986" width="20.242" height="20.156" filterUnits="userSpaceOnUse" color-interpolation-filters="sRGB"><feFlood flood-opacity="0" result="BackgroundImageFix"/><feColorMatrix in="SourceAlpha" values="0 0 0 0 0 0 0 0 0 0 0 0 0 0 0 0 0 0 127 0" result="hardAlpha"/><feOffset/><feGaussianBlur stdDeviation="1"/><feColorMatrix values="0 0 0 0 0 0 0 0 0 0 0 0 0 0 0 0 0 0 0.130633 0"/><feBlend in2="BackgroundImageFix" result="effect1_dropShadow_1200_223"/><feBlend in="SourceGraphic" in2="effect1_dropShadow_1200_223" result="shape"/></filter><filter id="e" x="4.768" y="4.854" width="12.551" height="12.551" filterUnits="userSpaceOnUse" color-interpolation-filters="sRGB"><feFlood flood-opacity="0" result="BackgroundImageFix"/><feColorMatrix in="SourceAlpha" values="0 0 0 0 0 0 0 0 0 0 0 0 0 0 0 0 0 0 127 0" result="hardAlpha"/><feOffset/><feGaussianBlur stdDeviation="1"/><feColorMatrix values="0 0 0 0 0 0 0 0 0 0 0 0 0 0 0 0 0 0 0.130633 0"/><feBlend in2="BackgroundImageFix" result="effect1_dropShadow_1200_223"/><feBlend in="SourceGraphic" in2="effect1_dropShadow_1200_223" result="shape"/></filter><filter id="f" x="12.33" y="3.715" width="6.063" height="6.063" filterUnits="userSpaceOnUse" color-interpolation-filters="sRGB"><feFlood flood-opacity="0" result="BackgroundImageFix"/><feColorMatrix in="SourceAlpha" values="0 0 0 0 0 0 0 0 0 0 0 0 0 0 0 0 0 0 127 0" result="hardAlpha"/><feOffset/><feGaussianBlur stdDeviation="1"/><feColorMatrix values="0 0 0 0 0 0 0 0 0 0 0 0 0 0 0 0 0 0 0.130633 0"/><feBlend in2="BackgroundImageFix" result="effect1_dropShadow_1200_223"/><feBlend in="SourceGraphic" in2="effect1_dropShadow_1200_223" result="shape"/></filter><radialGradient id="c" cx="0" cy="0" r="1" gradientUnits="userSpaceOnUse" gradientTransform="rotate(15.557 -77.047 38.426) scale(20.0116 18.8448)"><stop stop-color="#FED980"/><stop offset=".372" stop-color="#FCAE49"/><stop offset=".556" stop-color="#F06745"/><stop offset="1" stop-color="#E83D5C" stop-opacity=".01"/></radialGradient><linearGradient id="a" x1="-.429" y1="1.943" x2="5.665" y2="28.189" gradientUnits="userSpaceOnUse"><stop stop-color="#4E60D3"/><stop offset=".149" stop-color="#913BAF"/><stop offset=".316" stop-color="#D52D88"/><stop offset=".494" stop-color="#D72E85"/><stop offset=".817" stop-color="#E6366D"/><stop offset="1" stop-color="#F26D4F"/></linearGradient></defs></svg>