<svg width="22" height="22" fill="none" xmlns="http://www.w3.org/2000/svg"><path fill-rule="evenodd" clip-rule="evenodd" d="M4.968 0h12.064a4.971 4.971 0 0 1 3.509 1.466A5.018 5.018 0 0 1 22 4.991v12.02a5.017 5.017 0 0 1-1.46 3.524A4.97 4.97 0 0 1 17.032 22H4.968a4.97 4.97 0 0 1-3.508-1.465A5.018 5.018 0 0 1 0 17.01V4.991a5.018 5.018 0 0 1 1.46-3.525A4.971 4.971 0 0 1 4.967 0z" fill="#0A66C2"/><path fill-rule="evenodd" clip-rule="evenodd" d="M8.807 8.528h2.78v1.439h.04c.388-.698 1.333-1.44 2.746-1.44 2.935 0 3.477 1.835 3.477 4.222v5.048H14.95V13.31c0-1.027-.021-2.349-1.507-2.349s-1.74 1.117-1.74 2.276v4.568H8.807V8.528zM7.16 5.718a1.52 1.52 0 0 1-.93 1.4 1.501 1.501 0 0 1-1.643-.329 1.517 1.517 0 0 1 1.066-2.585c.4 0 .783.16 1.065.444.283.284.442.669.442 1.07zm-3.01 2.81h3.01v9.269h-3.01v-9.27z" fill="#fff"/></svg>