<svg width="500" height="500" fill="none" xmlns="http://www.w3.org/2000/svg"><circle cx="250" cy="250" r="250" fill="#F2F2F2"/><path d="M106.333 454.145a196.035 196.035 0 0 1-3.864-2.75l1.364-66.479c0-63.177 51.407-114.583 114.584-114.583h62.5c63.177 0 114.583 51.406 114.583 114.583l1.365 66.48c-1.28.936-2.571 1.841-3.861 2.747l-.004.003c-5.031 3.531-10.188 6.916-15.49 10.083-.885.531-1.781 1.021-2.677 1.541-5.802 3.365-11.729 6.553-17.812 9.459-.063.031-.125.052-.188.083-13.01 6.198-26.656 11.271-40.781 15.167l-.781.219a244.507 244.507 0 0 1-20.354 4.614l-1.927.344c-6.646 1.167-13.375 2.104-20.198 2.729-.771.073-1.552.115-2.334.177-6.864.573-13.781.938-20.791.938-7.011 0-13.927-.365-20.792-.938-.771-.062-1.552-.104-2.333-.177a251.446 251.446 0 0 1-20.198-2.729l-1.927-.344a244.53 244.53 0 0 1-20.355-4.614c-.26-.063-.52-.146-.781-.219-14.125-3.896-27.771-8.969-40.781-15.167-.062-.031-.125-.052-.188-.083-6.083-2.906-12.01-6.084-17.812-9.459-.885-.51-1.792-1.01-2.677-1.541a252.767 252.767 0 0 1-15.49-10.084ZM166.333 166.166c0 45.948 37.386 83.334 83.334 83.334S333 212.114 333 166.166s-37.385-83.333-83.333-83.333-83.334 37.385-83.334 83.333Z" fill="#AFAFAF"/></svg>