<svg xmlns="http://www.w3.org/2000/svg" width="945" height="349" fill="none"><path stroke="#AFAFAF" stroke-linecap="round" stroke-linejoin="round" stroke-width="18" d="M718.126 160.962v67.034m-.744-95.09v.745m-64.015-78.455v174.041m-32.008-96.331h63.271m96.27 96.331V55.197c-1.325-15.063 5.062-45.386 41.188-46.18 36.126-.795 46.647 26.814 47.391 40.717m-120.586 83.172h63.27m-302.209-1.241v32.028m0 0v63.558m0-63.558c5.295-10.676 21.884-32.028 45.902-32.028 30.022 0 43.917 21.352 45.654 32.028 1.389 8.54.58 45.931 0 63.558M936 132.658v63.559m0 0v104.027c-.506 13.076-9.354 39.327-40.716 39.724-15.796.579-47.54-6.554-48.136-39.724M936 196.217c-5.295 10.676-21.884 32.027-45.902 32.027-30.023 0-43.917-21.351-45.654-32.027-1.39-8.541-.581-45.931 0-63.559m-581.121.248 53.345 95.835 52.354-95.835M9 175.61h142.917m0 0h96.767c-9.131-63.559-93.564-52.883-96.767 0Zm0 0c-2.977 49.158 59.201 75.724 94.534 21.103m-94.534-21.103c-.231 0 .232 0 0 0Zm229.263-.045h96.766c-9.131-63.559-93.626-51.845-96.766 0Zm0 0c-2.978 49.158 59.201 75.724 94.533 21.103m-94.533-21.103c-.232 0 .232 0 0 0Z"/></svg>