<svg width="0" height="0"><symbol xmlns="http://www.w3.org/2000/svg" id="arrow" fill="none" viewBox="0 0 20 20"><path fill="currentColor" fill-rule="evenodd" d="M14.152 16.219a1.25 1.25 0 0 1-2.118.937L5.397 10.92a1.25 1.25 0 0 1 0-1.823l6.637-6.237a1.25 1.25 0 1 1 1.713 1.821l-5.67 5.328 5.669 5.327a1.25 1.25 0 0 1 .406.884Z" clip-rule="evenodd"/></symbol><symbol xmlns="http://www.w3.org/2000/svg" id="cross" fill="none" viewBox="0 0 14 14"><path stroke="currentColor" stroke-linecap="round" stroke-linejoin="round" stroke-width="1.5" d="M13 1 1 13M1 1l12 12"/></symbol><symbol xmlns="http://www.w3.org/2000/svg" id="menu" fill="none" viewBox="0 0 24 24"><path stroke="currentColor" stroke-linecap="round" stroke-linejoin="round" stroke-width="1.5" d="M20 12H10m10-7H4m16 14H4"/></symbol><symbol xmlns="http://www.w3.org/2000/svg" id="view-off" fill="none" viewBox="0 0 24 24"><path stroke="currentColor" stroke-linecap="round" stroke-width="1.5" d="M22 8s-4 6-10 6S2 8 2 8"/><path stroke="currentColor" stroke-linecap="round" stroke-linejoin="round" stroke-width="1.5" d="m15 13.5 1.5 2.5m3.5-5 2 2M2 13l2-2m5 2.5L7.5 16"/></symbol><symbol xmlns="http://www.w3.org/2000/svg" id="view" fill="none" viewBox="0 0 24 24"><path stroke="currentColor" stroke-width="1.5" d="M21.544 11.045c.304.426.456.64.456.955 0 .316-.152.529-.456.955C20.178 14.871 16.689 19 12 19c-4.69 0-8.178-4.13-9.544-6.045C2.152 12.529 2 12.315 2 12c0-.316.152-.529.456-.955C3.822 9.129 7.311 5 12 5c4.69 0 8.178 4.13 9.544 6.045Z"/><path stroke="currentColor" stroke-width="1.5" d="M15 12a3 3 0 1 0-6 0 3 3 0 0 0 6 0Z"/></symbol></svg>