<svg width="0" height="0"><symbol xmlns="http://www.w3.org/2000/svg" id="arrow-tail" fill="none" viewBox="0 0 20 20"><path fill="currentColor" d="M2.5 10.833h12.99l-4.41 4.411a.833.833 0 1 0 1.178 1.178l5.833-5.833a.834.834 0 0 0 0-1.178l-5.833-5.833a.831.831 0 0 0-1.36.27.833.833 0 0 0 .181.908l4.411 4.41H2.501a.833.833 0 1 0 0 1.667Z"/></symbol><symbol xmlns="http://www.w3.org/2000/svg" id="arrow" fill="none" viewBox="0 0 20 20"><path fill="currentColor" fill-rule="evenodd" d="M14.152 16.219a1.25 1.25 0 0 1-2.118.937L5.397 10.92a1.25 1.25 0 0 1 0-1.823l6.637-6.237a1.25 1.25 0 1 1 1.713 1.821l-5.67 5.328 5.669 5.327a1.25 1.25 0 0 1 .406.884Z" clip-rule="evenodd"/></symbol><symbol xmlns="http://www.w3.org/2000/svg" id="cross" fill="none" viewBox="0 0 14 14"><path stroke="currentColor" stroke-linecap="round" stroke-linejoin="round" stroke-width="1.5" d="M13 1 1 13M1 1l12 12"/></symbol><symbol xmlns="http://www.w3.org/2000/svg" id="image-add" fill="none" viewBox="0 0 32 32"><path stroke="currentColor" stroke-linecap="round" stroke-width="2" d="M15.344 3.987c-5.977 0-8.965 0-10.822 1.856-1.857 1.856-1.857 4.843-1.857 10.818s0 8.962 1.857 10.818c1.857 1.857 4.845 1.857 10.822 1.857 5.977 0 8.966 0 10.823-1.857 1.856-1.856 1.856-4.843 1.856-10.818v-.667"/><path stroke="currentColor" stroke-width="2" d="M6.665 27.986c5.613-6.335 11.922-14.736 21.333-8.435"/><path stroke="currentColor" stroke-linecap="round" stroke-linejoin="round" stroke-width="2" d="M23.994 2.665v10.677m5.34-5.372-10.68.02"/></symbol><symbol xmlns="http://www.w3.org/2000/svg" id="menu" fill="none" viewBox="0 0 24 24"><path stroke="currentColor" stroke-linecap="round" stroke-linejoin="round" stroke-width="1.5" d="M20 12H10m10-7H4m16 14H4"/></symbol><symbol xmlns="http://www.w3.org/2000/svg" id="move" fill="none" viewBox="0 0 24 24"><path stroke="currentColor" stroke-linecap="round" stroke-linejoin="round" stroke-width="1.5" d="M12 3v6m-9 3h6m12 0h-6m-3 9v-6.5M9 6l1.705-1.952C11.315 3.35 11.621 3 12 3c.38 0 .684.35 1.295 1.048L15 6m0 12-1.705 1.952C12.685 20.65 12.379 21 12 21c-.38 0-.684-.35-1.295-1.048L9 18m9-9 1.952 1.705C20.65 11.315 21 11.621 21 12c0 .38-.35.684-1.048 1.295L18 15M6 15l-1.952-1.705C3.35 12.685 3 12.379 3 12c0-.38.35-.684 1.048-1.295L6 9"/></symbol><symbol xmlns="http://www.w3.org/2000/svg" id="tick-double" fill="none" viewBox="0 0 41 40"><path stroke="currentColor" stroke-linecap="round" stroke-width="1.5" d="M12.71 30.153c-.545.458-1.018.685-1.51.68-1.133-.011-2.077-1.17-3.966-3.49l-2.525-3.1c-1.04-1.277-1.167-3.178-.309-4.612.98-1.639 2.861-2.098 4.327-1.276m9.977-4.189a86.09 86.09 0 0 1 4.26-4.188c.74-.68 1.663-.92 2.536-.767"/><path stroke="currentColor" stroke-width="1.5" d="M24.01 27.185c3.766-4.366 7.402-7.327 11.97-11.521 1.366-1.256 1.577-3.456.505-5.015-1.14-1.657-3.306-1.988-4.771-.671-4.184 3.76-7.439 7.379-10.526 11.248-.162.203-.243.304-.328.361a.613.613 0 0 1-.694.004c-.085-.056-.166-.156-.328-.355l-1.645-2.018c-1.501-1.841-4.194-1.637-5.447.413-.877 1.434-.747 3.335.315 4.612l2.58 3.1c1.93 2.32 2.894 3.479 4.053 3.49 1.158.012 2.21-1.208 4.315-3.648Z"/></symbol><symbol xmlns="http://www.w3.org/2000/svg" id="tick" viewBox="0 0 24 24"><path d="M19.98 5.99a1 1 0 0 0-.687.303L9 16.586l-3.293-3.293a1 1 0 1 0-1.414 1.414l4 4a1 1 0 0 0 1.414 0l11-11a1 1 0 0 0-.727-1.717z"/></symbol><symbol xmlns="http://www.w3.org/2000/svg" id="trash-can" fill="none" viewBox="0 0 24 24"><path stroke="currentColor" stroke-linecap="round" d="m19.5 5.5-.402 6.506M4.5 5.5l.605 10.025c.154 2.567.232 3.85.874 4.774.317.456.726.842 1.2 1.131.671.41 1.502.533 2.821.57"/><path stroke="currentColor" stroke-linecap="round" stroke-linejoin="round" d="m20 15-7 7m7 0-7-7"/><path stroke="currentColor" stroke-linecap="round" d="M3 5.5h18m-4.944 0-.683-1.408c-.453-.936-.68-1.403-1.071-1.695a1.994 1.994 0 0 0-.275-.172C13.594 2 13.074 2 12.035 2c-1.066 0-1.599 0-2.04.234a2 2 0 0 0-.278.18c-.395.303-.616.788-1.058 1.757L8.053 5.5"/></symbol><symbol xmlns="http://www.w3.org/2000/svg" id="view-off" fill="none" viewBox="0 0 24 24"><path stroke="currentColor" stroke-linecap="round" stroke-width="1.5" d="M22 8s-4 6-10 6S2 8 2 8"/><path stroke="currentColor" stroke-linecap="round" stroke-linejoin="round" stroke-width="1.5" d="m15 13.5 1.5 2.5m3.5-5 2 2M2 13l2-2m5 2.5L7.5 16"/></symbol><symbol xmlns="http://www.w3.org/2000/svg" id="view" fill="none" viewBox="0 0 24 24"><path stroke="currentColor" stroke-width="1.5" d="M21.544 11.045c.304.426.456.64.456.955 0 .316-.152.529-.456.955C20.178 14.871 16.689 19 12 19c-4.69 0-8.178-4.13-9.544-6.045C2.152 12.529 2 12.315 2 12c0-.316.152-.529.456-.955C3.822 9.129 7.311 5 12 5c4.69 0 8.178 4.13 9.544 6.045Z"/><path stroke="currentColor" stroke-width="1.5" d="M15 12a3 3 0 1 0-6 0 3 3 0 0 0 6 0Z"/></symbol></svg>