<svg width="0" height="0"><symbol xmlns="http://www.w3.org/2000/svg" id="calendar" fill="none" viewBox="0 0 20 20"><g clip-path="url(#a)"><path fill="currentColor" fill-rule="evenodd" d="M10.624 4.372v.624c-.01.554-.907.87-1.19.265a.658.658 0 0 1-.058-.265v-.624H7.503c-.48-.023-.802-.651-.472-1.033.114-.131.206-.203.472-.216.624 0 1.248-.002 1.873-.006V2.5a.544.544 0 0 1 .03-.195.64.64 0 0 1 .606-.429.624.624 0 0 1 .612.624v.611c1.248-.007 2.497-.014 3.746-.008V2.5a.623.623 0 0 1 .612-.624h.024a.623.623 0 0 1 .612.624v.614l.67.01c.958.03 1.809.854 1.827 1.85.024 3.76.024 7.522 0 11.283-.017.966-.853 1.83-1.85 1.85-4.176.025-8.354.025-12.53 0-.962-.019-1.831-.837-1.85-1.85a893.413 893.413 0 0 1 0-11.283c.018-.972.85-1.843 1.87-1.85h.627V2.5a.53.53 0 0 1 .031-.195.639.639 0 0 1 .605-.429.623.623 0 0 1 .612.624v2.497c-.01.553-.88.863-1.179.287a.647.647 0 0 1-.07-.287V4.37c-.212-.001-.426 0-.64.003a.647.647 0 0 0-.608.609c-.07 3.755-.07 7.512 0 11.267.01.318.288.599.609.609 4.172.077 8.344.077 12.516 0a.647.647 0 0 0 .609-.609c.07-3.755.07-7.512 0-11.267a.647.647 0 0 0-.626-.61h-.623v.625c-.01.548-.883.858-1.179.287a.656.656 0 0 1-.069-.287v-.624h-3.746ZM5.006 14.36a.626.626 0 1 1 .039 1.251.626.626 0 0 1-.04-1.251Zm2.497 0a.624.624 0 1 1 .055 1.247.624.624 0 0 1-.055-1.247Zm2.497 0a.625.625 0 0 1 0 1.249.625.625 0 0 1 0-1.249Zm-4.994-2.497a.627.627 0 0 1 .644.624.625.625 0 1 1-.644-.624Zm2.497 0a.624.624 0 1 1 0 1.248.624.624 0 0 1 0-1.248Zm2.497 0a.626.626 0 1 1 .039 1.252.626.626 0 0 1-.039-1.252Zm2.497 0a.626.626 0 0 1 .454 1.074.624.624 0 0 1-1.06-.45.625.625 0 0 1 .606-.624Zm2.497 0a.626.626 0 0 1 .594.868.625.625 0 1 1-.594-.868Zm-7.49-2.497a.624.624 0 1 1 0 1.247.624.624 0 0 1 0-1.247Zm2.496 0a.625.625 0 1 1 .056 1.25.625.625 0 0 1-.056-1.25Zm2.497 0a.625.625 0 1 1 .056 1.25.625.625 0 0 1-.056-1.25Zm2.497 0a.624.624 0 1 1 0 1.248.624.624 0 0 1 0-1.248Z" clip-rule="evenodd"/></g><defs><clipPath id="a"><path fill="currentColor" d="M0 0h20v20H0z"/></clipPath></defs></symbol><symbol xmlns="http://www.w3.org/2000/svg" id="cards" fill="none" viewBox="0 0 64 64"><path stroke="currentColor" stroke-opacity=".24" stroke-width="2" d="m45.396 8.09-2.545-.679c-7.2-1.918-10.8-2.877-13.636-1.249-2.836 1.628-3.8 5.208-5.73 12.367l-2.728 10.125c-1.93 7.16-2.894 10.739-1.257 13.559 1.638 2.82 5.238 3.779 12.438 5.697l2.545.679c7.2 1.918 10.8 2.877 13.636 1.25 2.836-1.63 3.8-5.209 5.73-12.368l2.728-10.125c1.93-7.16 2.894-10.739 1.257-13.559-1.638-2.82-5.238-3.78-12.438-5.697Z"/><path stroke="currentColor" stroke-opacity=".24" stroke-width="2" d="M44.942 19.821c0 2.171-1.77 3.931-3.953 3.931s-3.953-1.76-3.953-3.93c0-2.171 1.77-3.931 3.953-3.931s3.953 1.76 3.953 3.93Z"/><path stroke="currentColor" stroke-linecap="round" stroke-opacity=".24" stroke-width="2" d="m32 55.857-2.54.691c-7.183 1.956-10.774 2.934-13.604 1.274-2.83-1.66-3.791-5.31-5.716-12.61L7.418 34.89c-1.925-7.3-2.887-10.95-1.254-13.825 1.413-2.487 4.502-2.397 8.502-2.397"/></symbol><symbol xmlns="http://www.w3.org/2000/svg" id="location-star" fill="none" viewBox="0 0 24 24"><path stroke="currentColor" stroke-width="1.5" d="M13.618 21.367A2.366 2.366 0 0 1 12 22a2.366 2.366 0 0 1-1.617-.633C6.412 17.626 1.09 13.447 3.685 7.38 5.09 4.1 8.458 2 12.001 2c3.543 0 6.912 2.1 8.315 5.38 2.592 6.06-2.717 10.259-6.698 13.987Z"/><path stroke="currentColor" stroke-linecap="round" stroke-linejoin="round" stroke-width="1.5" d="m12.605 8.005.616 1.243a.761.761 0 0 0 .496.37l1.117.187c.714.12.882.642.367 1.157l-.867.875a.77.77 0 0 0-.182.64l.248 1.082c.196.858-.255 1.19-1.008.741l-1.046-.624a.751.751 0 0 0-.693 0l-1.047.624c-.749.448-1.203.113-1.008-.74l.249-1.084a.77.77 0 0 0-.182-.639l-.868-.875c-.51-.515-.346-1.037.368-1.157l1.116-.187a.763.763 0 0 0 .493-.37l.616-1.243c.336-.673.882-.673 1.215 0Z"/></symbol><symbol xmlns="http://www.w3.org/2000/svg" id="phone" fill="none" viewBox="0 0 24 25"><path fill="currentColor" d="M17.587 16.198a2.25 2.25 0 0 0-3.187 0l-1.088 1.087a19.96 19.96 0 0 1-6.098-6.098L8.303 10.1a2.25 2.25 0 0 0 0-3.187L6.18 4.798a2.198 2.198 0 0 0-1.582-.66A2.25 2.25 0 0 0 3 4.798L1.98 5.81A4.778 4.778 0 0 0 .75 9.748c.24 2.812 2.085 6.195 4.928 9.045 2.842 2.85 6.262 4.687 9.075 4.957.21.011.42.011.63 0a4.553 4.553 0 0 0 3.307-1.23l1.012-1.02a2.249 2.249 0 0 0 .66-1.598 2.197 2.197 0 0 0-.66-1.582l-2.115-2.122Zm1.058 4.244-1.02 1.013a3.428 3.428 0 0 1-2.745.75c-2.438-.21-5.543-1.935-8.108-4.5-2.565-2.565-4.29-5.647-4.522-8.085A3.397 3.397 0 0 1 3 6.875l1.058-1.02a.75.75 0 0 1 .532-.217.75.75 0 0 1 .532.217L7.245 8a.75.75 0 0 1 0 1.058l-1.5 1.5a.75.75 0 0 0-.12.907 20.614 20.614 0 0 0 3.248 4.185 20.616 20.616 0 0 0 4.184 3.248.75.75 0 0 0 .908-.12l1.5-1.5a.75.75 0 0 1 1.058 0l2.122 2.122a.75.75 0 0 1 .218.533.75.75 0 0 1-.218.51Zm1.305-15.9A11.19 11.19 0 0 0 12 1.25a.75.75 0 1 0 0 1.5 9.75 9.75 0 0 1 9.75 9.832.75.75 0 1 0 1.5 0 11.181 11.181 0 0 0-3.3-8.04Z"/><path fill="currentColor" d="M15.682 8.832a4.5 4.5 0 0 1 1.328 3.233.75.75 0 1 0 1.5 0 6 6 0 0 0-6-6.075.75.75 0 1 0 0 1.5 4.5 4.5 0 0 1 3.172 1.342Z"/></symbol><symbol xmlns="http://www.w3.org/2000/svg" id="search" fill="none" viewBox="0 0 21 20"><g clip-path="url(#a)"><path stroke="currentColor" stroke-linecap="round" stroke-linejoin="round" stroke-width="1.333" d="M14.796 13.811 20 19M17 8.5a7.5 7.5 0 1 1-15 0 7.5 7.5 0 0 1 15 0Z"/></g></symbol><symbol xmlns="http://www.w3.org/2000/svg" id="settings" fill="none" viewBox="0 0 24 24"><path stroke="currentColor" stroke-linecap="round" stroke-linejoin="round" stroke-width="1.5" d="M3 7h3M3 17h6m9 0h3M15 7h6"/><path stroke="currentColor" stroke-width="1.5" d="M6 7c0-.932 0-1.398.152-1.765a2 2 0 0 1 1.083-1.083C7.602 4 8.068 4 9 4c.932 0 1.398 0 1.765.152a2 2 0 0 1 1.083 1.083C12 5.602 12 6.068 12 7c0 .932 0 1.398-.152 1.765a2 2 0 0 1-1.083 1.083C10.398 10 9.932 10 9 10c-.932 0-1.398 0-1.765-.152a2 2 0 0 1-1.083-1.083C6 8.398 6 7.932 6 7Zm6 10c0-.932 0-1.398.152-1.765a2 2 0 0 1 1.083-1.083C13.602 14 14.068 14 15 14c.932 0 1.398 0 1.765.152a2 2 0 0 1 1.083 1.083C18 15.602 18 16.068 18 17c0 .932 0 1.398-.152 1.765a2 2 0 0 1-1.083 1.083C16.398 20 15.932 20 15 20c-.932 0-1.398 0-1.765-.152a2 2 0 0 1-1.083-1.083C12 18.398 12 17.932 12 17Z"/></symbol><symbol xmlns="http://www.w3.org/2000/svg" id="spinner" fill="currentColor" stroke="currentColor" stroke-width="0" viewBox="0 0 16 16"><path d="M8 16c-2.137 0-4.146-.832-5.657-2.343S0 10.137 0 8c0-1.513.425-2.986 1.228-4.261A8.02 8.02 0 0 1 4.421.844l.672 1.341a6.53 6.53 0 0 0-2.596 2.354A6.48 6.48 0 0 0 1.5 8c0 3.584 2.916 6.5 6.5 6.5s6.5-2.916 6.5-6.5c0-1.23-.345-2.426-.997-3.461a6.515 6.515 0 0 0-2.596-2.354l.672-1.341a8.02 8.02 0 0 1 3.193 2.895A7.981 7.981 0 0 1 16 8c0 2.137-.832 4.146-2.343 5.657S10.137 16 8 16z"/></symbol><symbol xmlns="http://www.w3.org/2000/svg" id="time" fill="none" viewBox="0 0 24 24"><path fill="currentColor" d="M21.023 7.79a.94.94 0 0 0 0-1.326l-.712-.712a.94.94 0 0 0-1.327 0l-.872.876a9.47 9.47 0 0 0-4.706-2.119V3.47h.497a.97.97 0 0 0 .956-.956V1.505a.96.96 0 0 0-.956-.942h-3.806a.96.96 0 0 0-.956.942v1.008a.973.973 0 0 0 .956.956h.497v1.04a9.518 9.518 0 0 0-8.114 9.413c0 5.245 4.27 9.51 9.515 9.51 5.246 0 9.516-4.265 9.516-9.51a9.417 9.417 0 0 0-1.5-5.119l1.012-1.012Zm-1.378-1.373.713.713-.896.895a9.764 9.764 0 0 0-.67-.76l.853-.848Zm-9.567-3.886V1.5h3.844v1.031h-3.844Zm1.453.938h.938v.951c-.188-.01-.319-.01-.469-.01-.15 0-.281.006-.469.01v-.95ZM12 22.495c-4.73 0-8.573-3.848-8.573-8.573 0-4.725 3.843-8.578 8.573-8.578s8.573 3.848 8.573 8.578c0 4.73-3.843 8.573-8.573 8.573Z"/><path fill="currentColor" d="M12 6.281h-.089c-4.116.047-7.458 3.366-7.547 7.472a.468.468 0 0 0 .005.431c.14 4.05 3.45 7.313 7.518 7.37a.308.308 0 0 0 .066.004.26.26 0 0 0 .056-.005c4.21 0 7.632-3.422 7.632-7.631 0-4.214-3.427-7.64-7.641-7.64Zm.422 14.325v-.872a.469.469 0 0 0-.938 0v.868a6.708 6.708 0 0 1-6.164-6.165h.82a.469.469 0 0 0 0-.937h-.829a6.712 6.712 0 0 1 6.173-6.263v.872a.469.469 0 0 0 .938 0v-.876a6.713 6.713 0 0 1 6.267 6.267h-.923a.469.469 0 1 0 0 .938h.914a6.707 6.707 0 0 1-6.258 6.168Z"/><path fill="currentColor" d="M14.667 13.547H12.47v-3.099a.469.469 0 0 0-.938 0v3.572a.454.454 0 0 0 .455.464h2.677a.469.469 0 1 0 .004-.937Z"/></symbol><symbol xmlns="http://www.w3.org/2000/svg" id="user-circle" fill="none" viewBox="0 0 24 24"><path stroke="currentColor" stroke-width="1.5" d="M12 22c5.523 0 10-4.477 10-10S17.523 2 12 2 2 6.477 2 12s4.477 10 10 10Z"/><path stroke="currentColor" stroke-linecap="round" stroke-width="1.5" d="M7.5 17c2.332-2.442 6.643-2.557 9 0m-2.005-7.5c0 1.38-1.12 2.5-2.503 2.5a2.502 2.502 0 0 1-2.504-2.5c0-1.38 1.12-2.5 2.504-2.5a2.502 2.502 0 0 1 2.503 2.5Z"/></symbol></svg>