<svg width="0" height="0"><symbol xmlns="http://www.w3.org/2000/svg" id="phone" fill="none" viewBox="0 0 24 25"><path fill="currentColor" d="M17.587 16.198a2.25 2.25 0 0 0-3.187 0l-1.088 1.087a19.96 19.96 0 0 1-6.098-6.098L8.303 10.1a2.25 2.25 0 0 0 0-3.187L6.18 4.798a2.198 2.198 0 0 0-1.582-.66A2.25 2.25 0 0 0 3 4.798L1.98 5.81A4.778 4.778 0 0 0 .75 9.748c.24 2.812 2.085 6.195 4.928 9.045 2.842 2.85 6.262 4.687 9.075 4.957.21.011.42.011.63 0a4.553 4.553 0 0 0 3.307-1.23l1.012-1.02a2.249 2.249 0 0 0 .66-1.598 2.197 2.197 0 0 0-.66-1.582l-2.115-2.122Zm1.058 4.244-1.02 1.013a3.428 3.428 0 0 1-2.745.75c-2.438-.21-5.543-1.935-8.108-4.5-2.565-2.565-4.29-5.647-4.522-8.085A3.397 3.397 0 0 1 3 6.875l1.058-1.02a.75.75 0 0 1 .532-.217.75.75 0 0 1 .532.217L7.245 8a.75.75 0 0 1 0 1.058l-1.5 1.5a.75.75 0 0 0-.12.907 20.614 20.614 0 0 0 3.248 4.185 20.616 20.616 0 0 0 4.184 3.248.75.75 0 0 0 .908-.12l1.5-1.5a.75.75 0 0 1 1.058 0l2.122 2.122a.75.75 0 0 1 .218.533.75.75 0 0 1-.218.51Zm1.305-15.9A11.19 11.19 0 0 0 12 1.25a.75.75 0 1 0 0 1.5 9.75 9.75 0 0 1 9.75 9.832.75.75 0 1 0 1.5 0 11.181 11.181 0 0 0-3.3-8.04Z"/><path fill="currentColor" d="M15.682 8.832a4.5 4.5 0 0 1 1.328 3.233.75.75 0 1 0 1.5 0 6 6 0 0 0-6-6.075.75.75 0 1 0 0 1.5 4.5 4.5 0 0 1 3.172 1.342Z"/></symbol></svg>