<svg width="0" height="0"><symbol xmlns="http://www.w3.org/2000/svg" id="facebook" fill="none" viewBox="0 0 40 40"><path fill="currentColor" d="M24.154 14.656h-1.506c-1.18 0-1.41.562-1.41 1.385v1.816h2.817v2.844h-2.816V28H18.3v-7.299h-2.455v-2.844H18.3V15.76c0-2.434 1.487-3.76 3.659-3.76l2.195.004v2.652Z"/><circle cx="20" cy="20" r="19.5" stroke="currentColor"/></symbol><symbol xmlns="http://www.w3.org/2000/svg" id="instagram" fill="none" viewBox="0 0 40 40"><g clip-path="url(#a)"><path fill="currentColor" d="M14.054 12h11.892c1.13 0 2.054.836 2.054 2.053v11.893C28 27.165 27.076 28 25.946 28H14.054C12.924 28 12 27.164 12 25.947V14.053c0-1.218.924-2.054 2.054-2.054Zm9.601 1.778a.722.722 0 0 0-.72.72v1.724c0 .396.324.72.72.72h1.809c.396 0 .72-.324.72-.72v-1.724a.722.722 0 0 0-.72-.72h-1.809Zm2.537 4.988h-1.409c.134.435.206.896.206 1.373 0 2.661-2.227 4.819-4.974 4.819-2.746 0-4.973-2.158-4.973-4.82 0-.476.072-.937.206-1.372h-1.47v6.759c0 .35.286.636.636.636h11.142c.35 0 .636-.286.636-.636v-6.759Zm-6.177-1.914c-1.774 0-3.213 1.394-3.213 3.113 0 1.72 1.439 3.114 3.213 3.114 1.775 0 3.214-1.394 3.214-3.114s-1.439-3.113-3.214-3.113Z"/></g><circle cx="20" cy="20" r="19.5" stroke="currentColor"/><defs><clipPath id="a"><path fill="currentColor" d="M12 12h16v16H12z"/></clipPath></defs></symbol><symbol xmlns="http://www.w3.org/2000/svg" id="linkedin" fill="none" viewBox="0 0 40 40"><path fill="currentColor" fill-rule="evenodd" d="M38.857 20c0 10.415-8.442 18.857-18.857 18.857S1.143 30.415 1.143 20 9.585 1.143 20 1.143 38.857 9.585 38.857 20ZM40 20c0 11.046-8.954 20-20 20S0 31.046 0 20 8.954 0 20 0s20 8.954 20 20Zm-25.161-4.258a1.714 1.714 0 1 0 0-3.429 1.714 1.714 0 0 0 0 3.429Zm13.18 5.29v5.254c0 .129-.111.24-.24.24h-2.71a.244.244 0 0 1-.24-.24V21.4c0-1.29-.46-2.175-1.621-2.175-.885 0-1.401.59-1.641 1.161-.092.203-.11.498-.11.774v5.125c0 .129-.111.24-.24.24h-2.691a.244.244 0 0 1-.24-.24l.005-1.772v-.001c.009-2.4.023-6.228-.005-7.333 0-.13.11-.24.24-.24h2.71c.128 0 .239.11.239.24v1.124c0 .01-.005.014-.01.019-.004.004-.009.009-.009.018h.019v-.037c.424-.645 1.18-1.585 2.875-1.585 2.102 0 3.669 1.382 3.669 4.313Zm-14.452 5.512h2.71c.129 0 .24-.11.24-.24V17.18c0-.13-.111-.24-.24-.24h-2.71c-.129 0-.24.11-.24.24v9.124c.019.13.111.24.24.24Z" clip-rule="evenodd"/></symbol></svg>