<svg width="40" height="40" viewBox="0 0 40 40" fill="none" xmlns="http://www.w3.org/2000/svg">
<g clip-path="url(#clip0_8700_2046)">
<path d="M14.0537 12H25.9464C27.0758 12 27.9999 12.8362 27.9999 14.0535V25.9465C27.9999 27.1638 27.0758 28 25.9464 28H14.0537C12.924 28 12.0001 27.1638 12.0001 25.9465V14.0535C12.0001 12.8362 12.924 12 14.0537 12ZM23.6554 13.7777C23.2591 13.7777 22.9353 14.1016 22.9353 14.498V16.2221C22.9353 16.6184 23.2591 16.9425 23.6554 16.9425H25.4638C25.86 16.9425 26.1841 16.6184 26.1841 16.2221V14.498C26.1841 14.1016 25.86 13.7777 25.4638 13.7777H23.6554ZM26.1917 18.7663H24.7835C24.9167 19.2014 24.9888 19.6622 24.9888 20.1389C24.9888 22.8002 22.7618 24.9575 20.0153 24.9575C17.2688 24.9575 15.0422 22.8002 15.0422 20.1389C15.0422 19.6618 15.1141 19.2012 15.2475 18.7663H13.7781V25.525C13.7781 25.8747 14.0642 26.1611 14.4141 26.1611H25.5559C25.9058 26.1611 26.192 25.8749 26.192 25.525V18.7663H26.1917ZM20.0151 16.8517C18.2405 16.8517 16.8018 18.2456 16.8018 19.9653C16.8018 21.6849 18.2405 23.0788 20.0151 23.0788C21.7898 23.0788 23.2287 21.6849 23.2287 19.9653C23.2287 18.2456 21.79 16.8517 20.0151 16.8517Z" fill="currentColor"/>
</g>
<circle cx="20" cy="20" r="19.5" stroke="currentColor"/>
<defs>
<clipPath id="clip0_8700_2046">
<rect width="16" height="16" fill="currentColor" transform="translate(12.0001 12)"/>
</clipPath>
</defs>
</svg>
