<svg width="40" height="40" viewBox="0 0 40 40" fill="none" xmlns="http://www.w3.org/2000/svg">
<path fill-rule="evenodd" clip-rule="evenodd" d="M38.8571 20C38.8571 30.4145 30.4145 38.8571 20 38.8571C9.58549 38.8571 1.14286 30.4145 1.14286 20C1.14286 9.58549 9.58549 1.14286 20 1.14286C30.4145 1.14286 38.8571 9.58549 38.8571 20ZM40 20C40 31.0457 31.0457 40 20 40C8.9543 40 0 31.0457 0 20C0 8.9543 8.9543 0 20 0C31.0457 0 40 8.9543 40 20ZM14.8387 15.7419C15.7855 15.7419 16.553 14.9744 16.553 14.0277C16.553 13.0809 15.7855 12.3134 14.8387 12.3134C13.892 12.3134 13.1245 13.0809 13.1245 14.0277C13.1245 14.9744 13.892 15.7419 14.8387 15.7419ZM28.0186 21.0322V26.2857C28.0186 26.4147 27.908 26.5253 27.779 26.5253H25.0693C24.9403 26.5253 24.8297 26.4147 24.8297 26.2857V21.4009C24.8297 20.1106 24.3688 19.2258 23.2076 19.2258C22.3228 19.2258 21.8066 19.8157 21.567 20.3871C21.4748 20.5899 21.4564 20.8848 21.4564 21.1613V26.2857C21.4564 26.4147 21.3458 26.5253 21.2168 26.5253H18.5255C18.3965 26.5253 18.2859 26.4147 18.2859 26.2857C18.2859 25.958 18.2882 25.3158 18.2911 24.514L18.2911 24.513V24.5127C18.2997 22.1128 18.3135 18.2849 18.2859 17.1797C18.2859 17.0507 18.3965 16.9401 18.5255 16.9401H21.2352C21.3642 16.9401 21.4748 17.0507 21.4748 17.1797V18.3041C21.4748 18.3134 21.4702 18.318 21.4656 18.3226C21.461 18.3272 21.4564 18.3318 21.4564 18.341H21.4748V18.3041C21.8988 17.659 22.6546 16.7189 24.3504 16.7189C26.4518 16.7189 28.0186 18.1014 28.0186 21.0322ZM13.567 26.5438H16.2767C16.4057 26.5438 16.5163 26.4332 16.5163 26.3041V17.1797C16.5163 17.0507 16.4057 16.9401 16.2767 16.9401H13.567C13.438 16.9401 13.3274 17.0507 13.3274 17.1797V26.3041C13.3458 26.4332 13.438 26.5438 13.567 26.5438Z" fill="currentColor"/>
</svg>
