<svg width="20" height="20" viewBox="0 0 20 20" fill="none" xmlns="http://www.w3.org/2000/svg">
<g clip-path="url(#clip0_8703_3957)">
<path fill-rule="evenodd" clip-rule="evenodd" d="M10.6244 4.37187V4.99625C10.6131 5.55 9.7175 5.86562 9.43437 5.26062C9.39668 5.17753 9.37667 5.08749 9.37563 4.99625V4.37187H7.50313C7.0225 4.34875 6.70062 3.72063 7.03125 3.33875C7.145 3.2075 7.23688 3.13625 7.50313 3.12313C8.12687 3.12313 8.75125 3.12125 9.37563 3.1175V2.49938C9.37397 2.4328 9.38457 2.36649 9.40687 2.30375C9.48937 2.05313 9.73625 1.875 10.0125 1.875C10.3456 1.88812 10.6169 2.1375 10.6244 2.49938V3.11C11.8725 3.1025 13.1213 3.09562 14.37 3.10187V2.49938C14.3763 2.16563 14.62 1.88938 14.9819 1.875H15.0063C15.34 1.88812 15.6113 2.1375 15.6181 2.49938V3.11312L16.2888 3.12375C17.2456 3.15375 18.0969 3.97687 18.115 4.97312C18.1388 8.73375 18.1388 12.495 18.115 16.2563C18.0975 17.2219 17.2619 18.0869 16.2656 18.1056C12.0887 18.1313 7.91125 18.1313 3.73438 18.1056C2.7725 18.0875 1.90375 17.2688 1.885 16.2563C1.86125 12.495 1.86125 8.73375 1.885 4.97312C1.9025 4.00062 2.73562 3.13 3.75562 3.12313H4.38188V2.49938C4.3799 2.43278 4.39051 2.36641 4.41312 2.30375C4.49562 2.05313 4.7425 1.875 5.01813 1.875C5.35188 1.88812 5.62313 2.1375 5.63 2.49938V4.99625C5.61938 5.54938 4.74938 5.85938 4.45125 5.28312C4.40635 5.19412 4.38261 5.09594 4.38188 4.99625V4.36938C4.16854 4.36771 3.95519 4.36854 3.74188 4.37187C3.425 4.38188 3.14313 4.65937 3.13313 4.98062C3.06344 8.73614 3.06344 12.4926 3.13313 16.2481C3.14313 16.5656 3.42062 16.8469 3.74188 16.8569C7.9136 16.9344 12.0864 16.9344 16.2581 16.8569C16.575 16.8469 16.8569 16.5694 16.8669 16.2481C16.9362 12.4931 16.9362 8.73562 16.8669 4.98062C16.8574 4.81926 16.7879 4.66728 16.672 4.55461C16.5561 4.44194 16.4022 4.37675 16.2406 4.37187H15.6181V4.99625C15.6075 5.54437 14.735 5.85375 14.4394 5.28312C14.3948 5.19401 14.371 5.0959 14.37 4.99625V4.37187H10.6244ZM5.00562 14.36C5.08932 14.3574 5.1727 14.3716 5.2508 14.4018C5.32891 14.432 5.40014 14.4775 5.46029 14.5358C5.52043 14.5941 5.56825 14.6638 5.6009 14.741C5.63356 14.8181 5.65039 14.9009 5.65039 14.9847C5.65039 15.0684 5.63356 15.1513 5.6009 15.2284C5.56825 15.3055 5.52043 15.3753 5.46029 15.4336C5.40014 15.4918 5.32891 15.5374 5.2508 15.5676C5.1727 15.5978 5.08932 15.612 5.00562 15.6094C4.84337 15.6042 4.68947 15.5362 4.57651 15.4196C4.46355 15.303 4.40039 15.147 4.40039 14.9847C4.40039 14.8223 4.46355 14.6664 4.57651 14.5498C4.68947 14.4332 4.84337 14.3651 5.00562 14.36ZM7.50313 14.36C7.58747 14.3563 7.67169 14.3697 7.7507 14.3995C7.82972 14.4293 7.90188 14.4747 7.96284 14.5331C8.0238 14.5915 8.0723 14.6617 8.1054 14.7394C8.1385 14.817 8.15552 14.9006 8.15544 14.985C8.15535 15.0695 8.13816 15.153 8.10491 15.2306C8.07165 15.3082 8.02301 15.3783 7.96194 15.4365C7.90086 15.4948 7.8286 15.5401 7.74953 15.5697C7.67046 15.5993 7.58622 15.6126 7.50187 15.6088C7.34112 15.6014 7.18939 15.5323 7.07829 15.4159C6.96719 15.2995 6.90528 15.1447 6.90544 14.9838C6.9056 14.8229 6.96782 14.6682 7.07916 14.552C7.19049 14.4358 7.34236 14.367 7.50313 14.36ZM10 14.36C10.1608 14.3672 10.3126 14.4361 10.4238 14.5524C10.535 14.6687 10.5971 14.8235 10.5971 14.9844C10.5971 15.1453 10.535 15.3 10.4238 15.4163C10.3126 15.5326 10.1608 15.6016 10 15.6088C9.83924 15.6016 9.68745 15.5326 9.57623 15.4163C9.46501 15.3 9.40294 15.1453 9.40294 14.9844C9.40294 14.8235 9.46501 14.6687 9.57623 14.5524C9.68745 14.4361 9.83924 14.3672 10 14.36ZM5.00562 11.8631C5.08924 11.8605 5.17253 11.8747 5.25056 11.9048C5.32859 11.935 5.39975 11.9805 5.45984 12.0388C5.51992 12.097 5.56769 12.1667 5.60032 12.2437C5.63294 12.3207 5.64975 12.4035 5.64975 12.4872C5.64975 12.5708 5.63294 12.6536 5.60032 12.7307C5.56769 12.8077 5.51992 12.8774 5.45984 12.9356C5.39975 12.9938 5.32859 13.0394 5.25056 13.0695C5.17253 13.0997 5.08924 13.1139 5.00562 13.1112C4.84353 13.1061 4.68979 13.0381 4.57695 12.9216C4.4641 12.8052 4.401 12.6494 4.401 12.4872C4.401 12.325 4.4641 12.1692 4.57695 12.0527C4.68979 11.9363 4.84353 11.8683 5.00562 11.8631ZM7.50313 11.8631C7.66864 11.8631 7.82737 11.9289 7.9444 12.0459C8.06144 12.1629 8.12719 12.3217 8.12719 12.4872C8.12719 12.6527 8.06144 12.8114 7.9444 12.9285C7.82737 13.0455 7.66864 13.1112 7.50313 13.1112C7.33761 13.1112 7.17888 13.0455 7.06185 12.9285C6.94481 12.8114 6.87906 12.6527 6.87906 12.4872C6.87906 12.3217 6.94481 12.1629 7.06185 12.0459C7.17888 11.9289 7.33761 11.8631 7.50313 11.8631ZM10 11.8631C10.0837 11.8605 10.1671 11.8747 10.2452 11.9049C10.3233 11.9351 10.3945 11.9807 10.4547 12.0389C10.5148 12.0972 10.5626 12.167 10.5953 12.2441C10.6279 12.3212 10.6448 12.4041 10.6448 12.4878C10.6448 12.5716 10.6279 12.6544 10.5953 12.7315C10.5626 12.8087 10.5148 12.8784 10.4547 12.9367C10.3945 12.995 10.3233 13.0405 10.2452 13.0707C10.1671 13.1009 10.0837 13.1151 10 13.1125C9.83774 13.1074 9.68385 13.0393 9.57089 12.9227C9.45793 12.8061 9.39476 12.6502 9.39476 12.4878C9.39476 12.3255 9.45793 12.1695 9.57089 12.0529C9.68385 11.9363 9.83774 11.8683 10 11.8631ZM12.4969 11.8631C12.5806 11.8605 12.6639 11.8747 12.7421 11.9049C12.8202 11.9351 12.8914 11.9807 12.9515 12.0389C13.0117 12.0972 13.0595 12.167 13.0922 12.2441C13.1248 12.3212 13.1416 12.4041 13.1416 12.4878C13.1416 12.5716 13.1248 12.6544 13.0922 12.7315C13.0595 12.8087 13.0117 12.8784 12.9515 12.9367C12.8914 12.995 12.8202 13.0405 12.7421 13.0707C12.6639 13.1009 12.5806 13.1151 12.4969 13.1125C12.3346 13.1074 12.1807 13.0393 12.0678 12.9227C11.9548 12.8061 11.8916 12.6502 11.8916 12.4878C11.8916 12.3255 11.9548 12.1695 12.0678 12.0529C12.1807 11.9363 12.3346 11.8683 12.4969 11.8631ZM14.9938 11.8631C15.0774 11.8605 15.1607 11.8747 15.2387 11.9048C15.3167 11.935 15.3879 11.9805 15.448 12.0388C15.508 12.097 15.5558 12.1667 15.5884 12.2437C15.6211 12.3207 15.6379 12.4035 15.6379 12.4872C15.6379 12.5708 15.6211 12.6536 15.5884 12.7307C15.5558 12.8077 15.508 12.8774 15.448 12.9356C15.3879 12.9938 15.3167 13.0394 15.2387 13.0695C15.1607 13.0997 15.0774 13.1139 14.9938 13.1112C14.8317 13.1061 14.6779 13.0381 14.5651 12.9216C14.4522 12.8052 14.3891 12.6494 14.3891 12.4872C14.3891 12.325 14.4522 12.1692 14.5651 12.0527C14.6779 11.9363 14.8317 11.8683 14.9938 11.8631ZM7.50313 9.36625C7.58504 9.36625 7.66615 9.38238 7.74182 9.41373C7.8175 9.44508 7.88626 9.49102 7.94418 9.54894C8.0021 9.60686 8.04805 9.67562 8.07939 9.7513C8.11074 9.82698 8.12687 9.90809 8.12687 9.99C8.12687 10.0719 8.11074 10.153 8.07939 10.2287C8.04805 10.3044 8.0021 10.3731 7.94418 10.4311C7.88626 10.489 7.8175 10.5349 7.74182 10.5663C7.66615 10.5976 7.58504 10.6138 7.50313 10.6138C7.3377 10.6138 7.17904 10.548 7.06207 10.4311C6.94509 10.3141 6.87937 10.1554 6.87937 9.99C6.87937 9.82457 6.94509 9.66592 7.06207 9.54894C7.17904 9.43197 7.3377 9.36625 7.50313 9.36625ZM10 9.36625C10.0843 9.36248 10.1686 9.37583 10.2476 9.4055C10.3267 9.43518 10.3989 9.48056 10.4599 9.53891C10.5209 9.59726 10.5695 9.66737 10.6027 9.74501C10.6358 9.82264 10.6529 9.9062 10.6529 9.99062C10.6529 10.0751 10.6358 10.1586 10.6027 10.2362C10.5695 10.3139 10.5209 10.384 10.4599 10.4423C10.3989 10.5007 10.3267 10.5461 10.2476 10.5757C10.1686 10.6054 10.0843 10.6188 10 10.615C9.83924 10.6078 9.68745 10.5389 9.57623 10.4226C9.46501 10.3063 9.40294 10.1515 9.40294 9.99062C9.40294 9.8297 9.46501 9.67498 9.57623 9.55868C9.68745 9.44237 9.83924 9.37345 10 9.36625ZM12.4969 9.36625C12.5812 9.36248 12.6655 9.37583 12.7445 9.4055C12.8235 9.43518 12.8957 9.48056 12.9568 9.53891C13.0178 9.59726 13.0664 9.66737 13.0995 9.74501C13.1327 9.82264 13.1498 9.9062 13.1498 9.99062C13.1498 10.0751 13.1327 10.1586 13.0995 10.2362C13.0664 10.3139 13.0178 10.384 12.9568 10.4423C12.8957 10.5007 12.8235 10.5461 12.7445 10.5757C12.6655 10.6054 12.5812 10.6188 12.4969 10.615C12.3361 10.6078 12.1843 10.5389 12.0731 10.4226C11.9619 10.3063 11.8998 10.1515 11.8998 9.99062C11.8998 9.8297 11.9619 9.67498 12.0731 9.55868C12.1843 9.44237 12.3361 9.37345 12.4969 9.36625ZM14.9938 9.36625C15.1593 9.36617 15.318 9.43184 15.4351 9.54881C15.5522 9.66579 15.618 9.82449 15.6181 9.99C15.6182 10.1555 15.5525 10.3143 15.4356 10.4314C15.3186 10.5485 15.1599 10.6143 14.9944 10.6144C14.9124 10.6144 14.8313 10.5983 14.7555 10.567C14.6798 10.5357 14.611 10.4897 14.553 10.4318C14.495 10.3739 14.449 10.3051 14.4176 10.2294C14.3862 10.1537 14.37 10.0726 14.37 9.99062C14.37 9.90867 14.3861 9.82751 14.4174 9.75178C14.4487 9.67605 14.4946 9.60723 14.5526 9.54925C14.6105 9.49128 14.6793 9.44527 14.755 9.41387C14.8307 9.38247 14.9118 9.36629 14.9938 9.36625Z" fill="#7A7A7A"/>
</g>
<defs>
<clipPath id="clip0_8703_3957">
<rect width="20" height="20" fill="white"/>
</clipPath>
</defs>
</svg>
