<svg width="64" height="64" viewBox="0 0 64 64" fill="none" xmlns="http://www.w3.org/2000/svg">
<path d="M45.3963 8.08959L42.8507 7.41135C35.651 5.493 32.051 4.53385 29.215 6.16201C26.3789 7.79017 25.4143 11.3698 23.4851 18.5291L20.7568 28.6539C18.8275 35.8131 17.8629 39.3928 19.5003 42.2128C21.1377 45.0331 24.7377 45.992 31.9377 47.9104L34.4833 48.5888C41.683 50.507 45.283 51.4662 48.119 49.8382C50.955 48.2099 51.9198 44.6302 53.8489 37.471L56.5771 27.3462C58.5065 20.1868 59.471 16.6072 57.8337 13.7871C56.1963 10.9671 52.5963 10.0079 45.3963 8.08959Z" stroke="#141B34" stroke-opacity="0.24" stroke-width="2"/>
<path d="M44.9423 19.8213C44.9423 21.9922 43.1724 23.7521 40.9892 23.7521C38.806 23.7521 37.0361 21.9922 37.0361 19.8213C37.0361 17.6505 38.806 15.8906 40.9892 15.8906C43.1724 15.8906 44.9423 17.6505 44.9423 19.8213Z" stroke="#141B34" stroke-opacity="0.24" stroke-width="2"/>
<path d="M31.9997 55.8568L29.4602 56.5483C22.2771 58.5043 18.6856 59.4824 15.8562 57.8222C13.0268 56.1622 12.0645 52.5123 10.1398 45.2126L7.41787 34.8891C5.49317 27.5894 4.53083 23.9395 6.1644 21.0641C7.57747 18.5769 10.6663 18.6674 14.6663 18.6671" stroke="#141B34" stroke-opacity="0.24" stroke-width="2" stroke-linecap="round"/>
</svg>
