<svg width="24" height="25" viewBox="0 0 24 25" fill="none" xmlns="http://www.w3.org/2000/svg">
<path d="M17.5875 16.1975C17.3785 15.9878 17.1301 15.8213 16.8566 15.7078C16.5831 15.5942 16.2899 15.5357 15.9937 15.5357C15.6976 15.5357 15.4044 15.5942 15.1309 15.7078C14.8574 15.8213 14.609 15.9878 14.4 16.1975L13.3125 17.285C12.0881 16.5079 10.9536 15.5973 9.93 14.57C8.90485 13.5445 7.99448 12.4103 7.215 11.1875L8.3025 10.1C8.51226 9.89099 8.67869 9.64261 8.79225 9.36911C8.90582 9.09562 8.96427 8.8024 8.96427 8.50627C8.96427 8.21014 8.90582 7.91692 8.79225 7.64343C8.67869 7.36994 8.51226 7.12156 8.3025 6.91252L6.18 4.79752C5.97392 4.58707 5.72763 4.42019 5.45578 4.30681C5.18392 4.19343 4.89205 4.13586 4.5975 4.13752C4.30086 4.1368 4.00701 4.19473 3.73284 4.308C3.45868 4.42127 3.20962 4.58764 3 4.79752L1.98 5.81002C1.49383 6.33275 1.13098 6.95778 0.918123 7.63918C0.705269 8.32057 0.64782 9.04101 0.75 9.74752C0.99 12.56 2.835 15.9425 5.6775 18.7925C8.52 21.6425 11.94 23.48 14.7525 23.75C14.9623 23.7612 15.1726 23.7612 15.3825 23.75C15.9879 23.7754 16.5923 23.6797 17.1603 23.4685C17.7282 23.2573 18.2483 22.9348 18.69 22.52L19.7025 21.5C19.9124 21.2904 20.0788 21.0413 20.192 20.7672C20.3053 20.493 20.3632 20.1992 20.3625 19.9025C20.3642 19.608 20.3066 19.3161 20.1932 19.0442C20.0798 18.7724 19.913 18.5261 19.7025 18.32L17.5875 16.1975ZM18.645 20.4425L17.625 21.455C17.2479 21.7693 16.8076 21.999 16.334 22.1284C15.8604 22.2577 15.3646 22.2839 14.88 22.205C12.4425 21.995 9.3375 20.27 6.7725 17.705C4.2075 15.14 2.4825 12.0575 2.25 9.62002C2.16912 9.13546 2.19429 8.63912 2.32377 8.16522C2.45325 7.69132 2.68396 7.25114 3 6.87502L4.0575 5.85502C4.12758 5.78551 4.21069 5.73052 4.30207 5.69319C4.39345 5.65587 4.49129 5.63695 4.59 5.63752C4.6887 5.63695 4.78655 5.65587 4.87793 5.69319C4.96931 5.73052 5.05242 5.78551 5.1225 5.85502L7.245 8.00002C7.38469 8.14054 7.46309 8.33063 7.46309 8.52877C7.46309 8.72691 7.38469 8.917 7.245 9.05752L5.745 10.5575C5.62762 10.6743 5.5522 10.8267 5.53049 10.9908C5.50879 11.155 5.54202 11.3217 5.625 11.465C6.52304 12.9939 7.61455 14.4005 8.8725 15.65C10.1221 16.908 11.5287 17.9995 13.0575 18.8975C13.2008 18.9805 13.3675 19.0137 13.5317 18.992C13.6958 18.9703 13.8482 18.8949 13.965 18.7775L15.465 17.2775C15.6055 17.1378 15.7956 17.0594 15.9937 17.0594C16.1919 17.0594 16.382 17.1378 16.5225 17.2775L18.645 19.4C18.7145 19.4701 18.7695 19.5532 18.8068 19.6446C18.8442 19.736 18.8631 19.8338 18.8625 19.9325C18.8578 20.1241 18.78 20.3065 18.645 20.4425ZM19.95 4.54252C18.9077 3.49625 17.6686 2.66665 16.3041 2.10156C14.9397 1.53647 13.4768 1.24706 12 1.25002C11.8011 1.25002 11.6103 1.32904 11.4697 1.46969C11.329 1.61034 11.25 1.80111 11.25 2.00002C11.25 2.19893 11.329 2.3897 11.4697 2.53035C11.6103 2.671 11.8011 2.75002 12 2.75002C13.2874 2.74998 14.562 3.00488 15.7503 3.50001C16.9387 3.99514 18.0172 4.72071 18.9236 5.63484C19.8301 6.54897 20.5465 7.63356 21.0316 8.82602C21.5167 10.0185 21.7609 11.2952 21.75 12.5825C21.75 12.7814 21.829 12.9722 21.9697 13.1129C22.1103 13.2535 22.3011 13.3325 22.5 13.3325C22.6989 13.3325 22.8897 13.2535 23.0303 13.1129C23.171 12.9722 23.25 12.7814 23.25 12.5825C23.2644 11.09 22.9798 9.60965 22.413 8.22882C21.8463 6.84799 21.0088 5.59459 19.95 4.54252Z" fill="#8C8C8C"/>
<path d="M15.6825 8.83249C16.1081 9.25555 16.4449 9.75948 16.6728 10.3146C16.9008 10.8698 17.0155 11.4649 17.01 12.065C17.01 12.2639 17.089 12.4547 17.2297 12.5953C17.3703 12.736 17.5611 12.815 17.76 12.815C17.9589 12.815 18.1497 12.736 18.2903 12.5953C18.431 12.4547 18.51 12.2639 18.51 12.065C18.5199 11.2708 18.3721 10.4825 18.075 9.74585C17.7779 9.00922 17.3375 8.3389 16.7794 7.77378C16.2212 7.20866 15.5565 6.75999 14.8236 6.45378C14.0907 6.14757 13.3043 5.98993 12.51 5.98999C12.3111 5.98999 12.1203 6.06901 11.9797 6.20966C11.839 6.35031 11.76 6.54108 11.76 6.73999C11.76 6.9389 11.839 7.12967 11.9797 7.27032C12.1203 7.41097 12.3111 7.48999 12.51 7.48999C13.1011 7.49444 13.6855 7.6153 14.2298 7.84565C14.7742 8.07599 15.2678 8.41133 15.6825 8.83249Z" fill="#8C8C8C"/>
</svg>
