<svg version="1.0" xmlns="http://www.w3.org/2000/svg" width="1280.000000pt" height="1280.000000pt" viewBox="0 0 1280.000000 1280.000000" preserveAspectRatio="xMidYMid meet">
<g transform="translate(0.000000,1280.000000) scale(0.100000,-0.100000)" fill="#000000" stroke="none">
<path d="M6120 12794 c-710 -48 -1205 -142 -1790 -342 -674 -231 -1331 -585 -1885 -1017 -302 -236 -722 -639 -952 -915 -851 -1021 -1339 -2202 -1469 -3555 -22 -224 -25 -826 -6 -1045 50 -570 150 -1054 320 -1560 398 -1179 1112 -2203 2067 -2965 920 -733 2023 -1197 3200 -1344 311 -39 425 -45 800 -45 372 0 552 11 840 50 1210 163 2339 663 3295 1459 195 162 608 574 767 765 851 1022 1339 2202 1469 3555 22 224 25 826 6 1045 -39 446 -108 834 -217 1225 -250 898 -677 1711 -1284 2440 -158 190 -572 604 -761 762 -1019 849 -2214 1343 -3550 1469 -154 14 -724 26 -850 18z m717 -1279 c787 -72 1483 -295 2158 -688 857 -500 1570 -1266 2005 -2152 275 -559 429 -1085 506 -1728 25 -202 30 -755 10 -973 -62 -673 -223 -1253 -511 -1839 -497 -1010 -1329 -1843 -2330 -2335 -559 -275 -1085 -429 -1728 -506 -202 -25 -755 -30 -973 -10 -799 73 -1491 294 -2169 689 -1158 676 -2032 1823 -2366 3102 -117 452 -163 812 -162 1290 0 532 67 993 214 1482 316 1049 947 1969 1803 2632 359 278 757 508 1166 674 457 186 967 312 1440 356 63 6 131 13 150 14 111 11 642 5 787 -8z"/>
<path d="M4980 8648 c-60 -31 -99 -92 -141 -220 l-34 -103 2 -640 c1 -352 7 -1234 13 -1960 11 -1226 13 -1326 30 -1400 67 -289 179 -342 506 -237 12 4 774 441 1694 972 1567 904 1677 969 1740 1032 92 91 134 174 128 255 -6 81 -41 146 -123 228 -67 67 -141 111 -1760 1051 -1186 689 -1709 988 -1755 1002 -151 48 -234 53 -300 20z"/>
</g>
</svg>
