<svg width="24" height="24" viewBox="0 0 24 24" fill="none" xmlns="http://www.w3.org/2000/svg">
<path d="M21.0235 7.79062C21.1991 7.61455 21.2977 7.37602 21.2977 7.12734C21.2977 6.87867 21.1991 6.64014 21.0235 6.46406L20.311 5.75156C20.1349 5.57596 19.8964 5.47734 19.6477 5.47734C19.399 5.47734 19.1605 5.57596 18.9844 5.75156L18.1125 6.62812C16.7702 5.49975 15.141 4.76626 13.4063 4.50937V3.46875H13.9032C14.1557 3.46531 14.3969 3.36345 14.5755 3.18486C14.7541 3.00627 14.856 2.76504 14.8594 2.5125V1.50469C14.8594 0.989062 14.4188 0.5625 13.9032 0.5625H10.0969C9.5813 0.5625 9.14067 0.989062 9.14067 1.50469V2.5125C9.14491 2.76479 9.24701 3.00557 9.42543 3.18399C9.60386 3.36241 9.84463 3.46452 10.0969 3.46875H10.5938V4.50937C6.00005 5.18437 2.47974 9.15 2.47974 13.9219C2.47974 19.1672 6.75005 23.4328 11.9954 23.4328C17.2407 23.4328 21.511 19.1672 21.511 13.9219C21.5148 12.1067 20.9939 10.3292 20.011 8.80313L21.0235 7.79062ZM19.6454 6.41719L20.3579 7.12969L19.4625 8.025C19.2516 7.7625 19.0313 7.50938 18.7922 7.26562L19.6454 6.41719ZM10.0782 2.53125V1.5H13.9219V2.53125H10.0782ZM11.5313 3.46875H12.4688V4.42031C12.2813 4.41094 12.15 4.41094 12 4.41094C11.85 4.41094 11.7188 4.41563 11.5313 4.42031V3.46875ZM12 22.4953C7.27036 22.4953 3.42661 18.6469 3.42661 13.9219C3.42661 9.19687 7.27036 5.34375 12 5.34375C16.7297 5.34375 20.5735 9.19219 20.5735 13.9219C20.5735 18.6516 16.7297 22.4953 12 22.4953Z" fill="#7A7A7A"/>
<path d="M12 6.28125H11.911C7.79534 6.32812 4.45315 9.64687 4.36409 13.7531C4.33058 13.8184 4.31291 13.8907 4.31253 13.9641C4.31166 14.0412 4.33106 14.1171 4.36878 14.1844C4.5094 18.2344 7.81878 21.4969 11.8875 21.5531C11.9092 21.557 11.9312 21.5586 11.9532 21.5578C11.972 21.5586 11.9909 21.557 12.0094 21.5531C16.2188 21.5531 19.6407 18.1313 19.6407 13.9219C19.6407 9.70781 16.2141 6.28125 12 6.28125ZM12.4219 20.6063V19.7344C12.4219 19.6101 12.3725 19.4908 12.2846 19.4029C12.1967 19.315 12.0775 19.2656 11.9532 19.2656C11.8288 19.2656 11.7096 19.315 11.6217 19.4029C11.5338 19.4908 11.4844 19.6101 11.4844 19.7344V20.6016C8.19847 20.3484 5.56878 17.7234 5.32034 14.4375H6.14065C6.26497 14.4375 6.3842 14.3881 6.47211 14.3002C6.56002 14.2123 6.6094 14.0931 6.6094 13.9688C6.6094 13.8444 6.56002 13.7252 6.47211 13.6373C6.3842 13.5494 6.26497 13.5 6.14065 13.5H5.31097C5.41415 11.888 6.09524 10.3673 7.22923 9.21691C8.36322 8.06656 9.87403 7.36377 11.4844 7.2375V8.10938C11.4844 8.2337 11.5338 8.35292 11.6217 8.44083C11.7096 8.52874 11.8288 8.57812 11.9532 8.57812C12.0775 8.57812 12.1967 8.52874 12.2846 8.44083C12.3725 8.35292 12.4219 8.2337 12.4219 8.10938V7.23281C14.0496 7.33781 15.5834 8.03181 16.7367 9.18515C17.8901 10.3385 18.5841 11.8723 18.6891 13.5H17.7657C17.6413 13.5 17.5221 13.5494 17.4342 13.6373C17.3463 13.7252 17.2969 13.8444 17.2969 13.9688C17.2969 14.0931 17.3463 14.2123 17.4342 14.3002C17.5221 14.3881 17.6413 14.4375 17.7657 14.4375H18.6797C18.4266 17.7516 15.75 20.4 12.4219 20.6063Z" fill="#7A7A7A"/>
<path d="M14.6673 13.5469H12.4689V10.4485C12.4689 10.3242 12.4195 10.2049 12.3316 10.117C12.2437 10.0291 12.1244 9.97974 12.0001 9.97974C11.8758 9.97974 11.7566 10.0291 11.6686 10.117C11.5807 10.2049 11.5314 10.3242 11.5314 10.4485V14.0204C11.5301 14.0809 11.5408 14.141 11.5631 14.1973C11.5854 14.2536 11.6187 14.3048 11.661 14.3481C11.7034 14.3913 11.754 14.4256 11.8098 14.4491C11.8656 14.4725 11.9255 14.4845 11.986 14.4844H14.6626C14.7869 14.485 14.9064 14.4363 14.9947 14.3488C15.0831 14.2613 15.1331 14.1423 15.1337 14.018C15.1343 13.8937 15.0855 13.7742 14.9981 13.6859C14.9106 13.5975 14.7916 13.5475 14.6673 13.5469Z" fill="#7A7A7A"/>
</svg>
