<?xml version="1.0" encoding="utf-8"?>
<!-- Generator: Adobe Illustrator 21.1.0, SVG Export Plug-In . SVG Version: 6.00 Build 0)  -->
<svg version="1.1" id="Layer_1" xmlns="http://www.w3.org/2000/svg" xmlns:xlink="http://www.w3.org/1999/xlink" x="0px" y="0px"
	 viewBox="0 0 99.9496231 82.0063095" style="enable-background:new 0 0 99.9496231 82.0063095;" xml:space="preserve">
<style type="text/css">
	.st0{fill:#FFD800;}
</style>
<g>
	<path class="st0" d="M53.1212692,77.4992218c20.4944916,0,37.2189026-16.7244148,37.2189026-37.2189026
		c0-20.5228348-16.724411-37.2472458-37.2189026-37.2472458c-20.5228386,0-37.2472496,16.724411-37.2472496,37.2472458
		C15.8740196,60.774807,32.5984306,77.4992218,53.1212692,77.4992218L53.1212692,77.4992218z"/>
	<path d="M40.251976,80.5039444C18.0566978,80.5039444,0,62.4472504,0,40.2519684S18.0566959,0,40.251976,0
		s40.251976,18.056694,40.251976,40.2519684S62.4472542,80.5039444,40.251976,80.5039444L40.251976,80.5039444z
		 M40.251976,4.0535431c-19.9559078,0-36.1984329,16.2425232-36.1984329,36.1984253S20.2960663,76.4504013,40.251976,76.4504013
		s36.1984329-16.2425232,36.1984329-36.1984329S60.2078819,4.0535431,40.251976,4.0535431L40.251976,4.0535431z"/>
	<path d="M40.251976,66.6708755c-14.5700817,0-26.4189014-11.8488235-26.4189014-26.4189072
		S25.6818943,13.8330765,40.251976,13.8330765s26.4188995,11.8488159,26.4188995,26.4188919
		S54.8220558,66.6708755,40.251976,66.6708755L40.251976,66.6708755z M40.251976,17.8866196
		c-12.3307114,0-22.3653584,10.0346451-22.3653584,22.3653488s10.034647,22.3653603,22.3653584,22.3653603
		s22.3653564-10.0346451,22.3653564-22.3653603S52.5826874,17.8866196,40.251976,17.8866196L40.251976,17.8866196z"/>
	<path d="M40.251976,52.8661461c-6.9448853,0-12.5858288-5.6692924-12.5858288-12.6141777
		c0-6.9448776,5.6409435-12.5858231,12.5858288-12.5858231s12.6141739,5.6409454,12.6141739,12.5858231
		C52.8661499,47.1968536,47.1968575,52.8661461,40.251976,52.8661461L40.251976,52.8661461z M40.251976,31.7196884
		c-4.705513,0-8.5322838,3.8267746-8.5322838,8.53228c0,4.7055206,3.8267708,8.5322876,8.5322838,8.5322876
		s8.5322838-3.826767,8.5322838-8.5322876C48.8126068,35.546463,44.957489,31.7196884,40.251976,31.7196884L40.251976,31.7196884z"
		/>
	<path d="M7.3417358,82.0063095c-0.5669289,0-1.1055126-0.2267761-1.5023632-0.6803207
		c-0.7653542-0.8220444-0.708662-2.0976334,0.1133862-2.8629913l9.5527573-8.7307053
		c0.8220463-0.765358,2.0976372-0.7086639,2.8629913,0.1417313c0.7653561,0.8220444,0.708662,2.0976334-0.1133842,2.8629913
		L8.7023659,81.46772C8.3055153,81.8078842,7.8236237,82.0063095,7.3417358,82.0063095L7.3417358,82.0063095z"/>
	<path d="M73.1905594,82.0063095c-0.4818878,0-0.9921265-0.1984253-1.3889771-0.5385895l-9.5244064-8.7307053
		c-0.8220482-0.765358-0.8787422-2.040947-0.1417313-2.8629913c0.7653542-0.8503952,2.040947-0.9070892,2.8913345-0.1417313
		l9.5244141,8.7307053c0.8220444,0.765358,0.8787384,2.040947,0.1417313,2.8629913
		C74.2960739,81.7795334,73.7291489,82.0063095,73.1905594,82.0063095L73.1905594,82.0063095z"/>
	<path d="M90.1984406,42.292923H40.251976c-1.1055107,0-2.0125999-0.9070892-2.0125999-2.0409546
		c0-1.1055069,0.9070892-2.0125885,2.0125999-2.0125885h49.9464645c1.1055069,0,2.0125961,0.9070816,2.0125961,2.0125885
		C92.2110367,41.3858337,91.3039474,42.292923,90.1984406,42.292923L90.1984406,42.292923z"/>
	<path d="M97.9086761,47.508667c-3.5433044,0-7.6818924-4.5354309-8.8724442-5.924408
		c-0.6236191-0.765358-0.6236191-1.8708649,0-2.6362228c1.1905518-1.3889771,5.3291397-5.9527512,8.8724442-5.9527512
		c1.1338577,0,2.040947,0.9070816,2.040947,2.0409393v10.4598389C99.9496231,46.6015778,99.0425339,47.508667,97.9086761,47.508667
		L97.9086761,47.508667z M93.3448944,40.2519684c0.8503952,0.822052,1.7291336,1.6157532,2.5511856,2.2110291v-4.3937073
		C95.074028,38.6362228,94.1669464,39.429924,93.3448944,40.2519684L93.3448944,40.2519684z"/>
</g>
</svg>
