<?xml version="1.0" encoding="utf-8"?>
<!-- Generator: Adobe Illustrator 21.1.0, SVG Export Plug-In . SVG Version: 6.00 Build 0)  -->
<svg version="1.1" id="Layer_1" xmlns="http://www.w3.org/2000/svg" xmlns:xlink="http://www.w3.org/1999/xlink" x="0px" y="0px"
	 viewBox="0 0 100.6486664 76.138588" style="enable-background:new 0 0 100.6486664 76.138588;" xml:space="preserve">
<style type="text/css">
	.st0{fill:#FFD800;}
</style>
<g>
	<path class="st0" d="M70.979538,9.6944885c-17.7732315,9.9496078-35.6315002,19.2189026-55.1338654,12.4157486v30.3874054
		c24.8881912-5.0740166,40.0535507,3.9685059,55.1338654,13.1527557V9.6944885z"/>
	<path d="M68.7685165,0.3685074l0.1133804-0.0850449C69.1653671,0.1133881,69.4771729,0,69.8456802,0
		c0.9354324,0,1.7291336,0.765358,1.7291336,1.7291336v18.2551193c2.4094467,0.7937012,4.5070877,2.2677155,6.0661392,4.195282
		c1.8425217,2.2677155,2.9196854,5.1307068,2.9196854,8.2488098c0,3.0897675-1.0771637,5.9527588-2.9196854,8.2204781
		c-1.5590515,1.9275589-3.6566925,3.4299202-6.0661392,4.2236214v18.7937012c0,0.2834702-0.0850372,0.5952759-0.2551193,0.878746
		c-0.4818878,0.8220444-1.5590515,1.0771637-2.3527527,0.5952682l-2.1826782-1.3039322
		C55.3606377,56.9480362,43.9370155,50.088192,28.2614231,49.4929199l8.2204723,24.2645645
		c0.085041,0.1984253,0.1417313,0.3968506,0.1417313,0.6519699c0,0.9354324-0.7653542,1.7291336-1.7291336,1.7291336H23.0173283
		c-0.680315-0.0283432-1.3322849-0.4251938-1.5874023-1.1055069l-9.3826771-24.0094528
		c-0.3118134,0.0850372-0.6236229,0.1417313-0.9354343,0.2267685c-0.1700802,0.028347-0.3401585,0.056694-0.5102367,0.056694
		c-0.9637794,0-1.7291336-0.7653542-1.7291336-1.7291336v-1.8425179H1.7291355C0.7653561,47.7354393,0,46.9700851,0,46.0063057
		V19.7007904c0-0.9637756,0.7653561-1.7291336,1.7291355-1.7291336h7.1433086v-3.4015732l0,0
		c0-0.1984253,0.056694-0.4252014,0.1417313-0.6236267c0.3401585-0.8787384,1.36063-1.3039322,2.2393723-0.9637756
		C31.2378006,21.1748047,50.0031586,10.7716522,68.7685165,0.3685074L68.7685165,0.3685074z M24.6047287,49.4929199
		c-2.8629913,0.0566902-5.8960629,0.3401566-9.0992126,0.8787384l8.7023621,22.3086624h8.2771683L24.6047287,49.4929199z
		 M86.485054,6.0094528c-0.6236267-0.7086639-0.5669327-1.8141785,0.1700745-2.4377975
		c0.7086639-0.6236191,1.7858276-0.5385818,2.4094543,0.1700821c8.3055191,9.6377945,11.8771744,19.332283,11.565361,29.0267715
		c-0.2834625,9.6661415-4.4220581,19.275589-11.4803238,28.8283463c-0.5669327,0.7653542-1.6440964,0.9070892-2.4094467,0.3685036
		c-0.765358-0.5669289-0.9070892-1.6440926-0.3401642-2.4094467c6.6330719-9.0141754,10.5165405-17.9716568,10.8000031-26.8724403
		C97.4551392,23.8393707,94.1669464,14.9385834,86.485054,6.0094528L86.485054,6.0094528z M71.5748138,23.6692963v17.4897614
		c1.332283-0.6236191,2.4944916-1.5307083,3.4015732-2.664566c1.332283-1.6724396,2.1259842-3.7700806,2.1259842-6.0661469
		c0-2.3244019-0.7937012-4.4220428-2.1259842-6.0944824C74.0693054,25.2283478,72.9070969,24.2929153,71.5748138,23.6692963
		L71.5748138,23.6692963z M8.8724442,44.2771683V21.4015808H3.458271v22.8755875H8.8724442z M68.1165466,4.648819
		c-18.0000038,9.9496078-36.0566978,19.2189026-55.7858353,12.4157486v2.6362228v26.3055153v1.4456673
		c25.2000046-5.0740166,40.5354385,3.9685059,55.7858353,13.1527557V21.2881927V4.648819z"/>
</g>
</svg>
