<?xml version="1.0" encoding="utf-8"?>
<!-- Generator: Adobe Illustrator 21.1.0, SVG Export Plug-In . SVG Version: 6.00 Build 0)  -->
<svg version="1.1" id="Layer_1" xmlns="http://www.w3.org/2000/svg" xmlns:xlink="http://www.w3.org/1999/xlink" x="0px" y="0px"
	 viewBox="0 0 81.4110336 80.8724442" style="enable-background:new 0 0 81.4110336 80.8724442;" xml:space="preserve">
<style type="text/css">
	.st0{fill:#FFD800;}
	.st1{fill:#141515;}
</style>
<g>
	<path class="st0" d="M30.5291386,67.549614v9.864563h50.881897v-9.864563c0-4.8755913-1.8708649-9.325985-4.9039383-12.6992149
		c-3.0614166-3.4299202-7.3417282-5.7259865-12.1039352-6.2362213c-0.5385818-0.056694-1.0488205-0.3401566-1.3606339-0.8503952
		c-0.4535446-0.8220444-0.1700745-1.8708649,0.6519699-2.3527489c2.3244095-1.3606339,4.2519684-3.2881927,5.5842514-5.6409454
		c1.3039398-2.2393799,2.040947-4.8472443,2.040947-7.6251984c0-4.195282-1.7007828-7.9937057-4.4220428-10.7716599
		l-0.0850449-0.0850372c-2.7779541-2.7779541-6.6047287-4.4787369-10.8283463-4.4787369
		c-4.2519684,0-8.078743,1.7007828-10.8566971,4.4787369l0,0c-2.7779541,2.7779541-4.5070877,6.6047287-4.5070877,10.8566971
		c0,2.7779541,0.7370071,5.3858185,2.040947,7.6251984c1.332283,2.3527527,3.2598419,4.2803116,5.5842514,5.6409454
		c0.4818878,0.2551117,0.7937012,0.7370033,0.8503952,1.3039322c0.1133881,0.9637794-0.5669327,1.8141747-1.5307083,1.8992119
		c-4.7905502,0.5102348-9.0708694,2.8063011-12.1322861,6.2362213C32.4000015,58.223629,30.5291386,62.6740227,30.5291386,67.549614
		L30.5291386,67.549614z"/>
	<path d="M21.1464596,79.0582733V67.549614c0-5.7543335,2.1826763-11.0267754,5.7826767-15.0236244
		c2.7496071-3.0614166,6.3212605-5.3574791,10.3748035-6.5480309c-1.3889771-1.3039398-2.607872-2.8063049-3.5716553-4.4787445
		c-1.5874023-2.7779541-2.4944859-5.9527588-2.4944859-9.3543243c0-5.1874084,2.0976353-9.8645706,5.4992161-13.2944946l0,0
		c3.4299164-3.4015732,8.1070862-5.4992142,13.294487-5.4992142c5.1874084,0,9.8929138,2.097641,13.2944946,5.4992142
		l0.0850372,0.1133881c3.3448792,3.4015732,5.4141769,8.0503922,5.4141769,13.1811066
		c0,3.4015656-0.9070892,6.5763702-2.4944916,9.3543243c-0.9637833,1.6724396-2.1826782,3.1748047-3.6000061,4.4787445
		c4.0535507,1.1905518,7.6535492,3.4866142,10.4031601,6.5480309c3.5999985,3.9968491,5.7826767,9.2692909,5.7826767,15.0236244
		v11.5086594v0.1984253c-0.056694,0.9070892-0.822052,1.5874023-1.7291336,1.5874023l-54.311821,0.0283432
		c-0.9637794,0-1.7291336-0.7936935-1.7291336-1.7291336V79.0582733z M24.6047268,67.549614v9.864563h50.8535538v-9.864563
		c0-4.8755913-1.8425217-9.325985-4.8755951-12.6992149c-3.0897598-3.4299202-7.3417358-5.7259865-12.1322861-6.2362213
		c-0.5385818-0.056694-1.0488205-0.3401566-1.332283-0.8503952c-0.4818878-0.8220444-0.1984253-1.8708649,0.6236191-2.3527489
		c2.3244095-1.3606339,4.2519684-3.2881927,5.6126022-5.6409454c1.275589-2.2393799,2.0125961-4.8472443,2.0125961-7.6251984
		c0-4.195282-1.6724396-7.9937057-4.3936996-10.7716599l-0.0850372-0.0850372
		c-2.7779541-2.7779541-6.6330719-4.4787369-10.8566971-4.4787369c-4.2519684,0-8.078743,1.7007828-10.8566971,4.4787369l0,0
		c-2.7779465,2.7779541-4.4787369,6.6047287-4.4787369,10.8566971c0,2.7779541,0.7370071,5.3858185,2.0125961,7.6251984
		c1.332283,2.3527527,3.2881927,4.2803116,5.6126022,5.6409454c0.4535446,0.2551117,0.7937012,0.7370033,0.8503952,1.3039322
		c0.0850372,0.9637794-0.5952759,1.8141747-1.5307083,1.8992119c-4.7905579,0.5102348-9.0708694,2.8063011-12.160635,6.2362213
		C26.4472466,58.223629,24.6047268,62.6740227,24.6047268,67.549614L24.6047268,67.549614z"/>
	<path class="st1" d="M0,65.7070923V54.1984291c0-5.7543297,2.1826763-11.0267754,5.7826786-15.0236168
		c2.7496061-3.0614243,6.3496065-5.3574829,10.4031506-6.5480347c-1.4173231-1.3039398-2.6362209-2.8063049-3.5716543-4.4787445
		c-1.6157484-2.7496033-2.5228348-5.9527588-2.5228348-9.354332c0-5.1874008,2.1259842-9.864563,5.5275602-13.2661362V5.4992142
		C19.0204754,2.097641,23.7259865,0,28.8850422,0c5.1874065,0,9.8929119,2.097641,13.2944927,5.4992142l0,0
		c1.4173203,1.4173203,2.607872,3.0614166,3.5149612,4.8755951c-1.1622086,0.2267685-2.2960663,0.566925-3.4015808,0.9637756
		c-0.6803131-1.2472458-1.5590515-2.3811035-2.551178-3.4015732c-2.7779541-2.7779541-6.6047287-4.4787445-10.8566952-4.4787445
		c-4.2236214,0-8.0787411,1.7007904-10.8283463,4.4787445h-0.028347c-2.7496071,2.7779541-4.4787407,6.6047211-4.4787407,10.8566895
		c0,2.7779541,0.7370081,5.3858261,2.0409451,7.6535416c1.332283,2.3244171,3.2598419,4.251976,5.5842533,5.6126022
		c0.4535427,0.2551193,0.7936993,0.7370071,0.8503933,1.3039398c0.1133862,0.9637833-0.5952759,1.8141708-1.5307083,1.8992081
		c-4.7905521,0.5102386-9.0708685,2.8063049-12.1322861,6.2362213c-3.0614185,3.37323-4.9039364,7.8236237-4.9039364,12.6992149
		v9.8645668h14.5133858c-0.1417313,1.1338577-0.2267704,2.2960663-0.2267704,3.4582672H1.7291336
		C0.7653542,67.5212631,0,66.727562,0,65.7921295V65.7070923z"/>
</g>
</svg>
