<?xml version="1.0" encoding="utf-8"?>
<!-- Generator: Adobe Illustrator 21.1.0, SVG Export Plug-In . SVG Version: 6.00 Build 0)  -->
<svg version="1.1" id="Layer_1" xmlns="http://www.w3.org/2000/svg" xmlns:xlink="http://www.w3.org/1999/xlink" x="0px" y="0px"
	 viewBox="0 0 101.423645 94.7905579" style="enable-background:new 0 0 101.423645 94.7905579;" xml:space="preserve">
<style type="text/css">
	.st0{fill:#FFD800;}
</style>
<g>
	<path class="st0" d="M88.3275757,55.4456787c-1.4173279-1.4173279-3.4015808-2.3244171-5.584259-2.3244171
		c-2.1543274,0-4.1102295,0.8787384-5.5275574,2.2393723l-0.0850372,0.0850449
		c-1.4456635,1.4456635-2.3244019,3.4299164-2.3244019,5.6125946s0.8787384,4.1669312,2.3244019,5.6126022
		c1.4173279,1.4173203,3.4015808,2.3244095,5.6125946,2.3244095c2.1259918,0,4.0818939-0.8503952,5.5275726-2.2393723
		l0.0566864-0.0850372c1.4456635-1.4456711,2.3244171-3.429924,2.3244171-5.6126022
		c0-2.1543274-0.8504028-4.1102371-2.2393799-5.5275574L88.3275757,55.4456787z M60.0094604,5.7826767
		c-1.4173203-1.4456635-3.4015732-2.3244095-5.6125984-2.3244095c-2.1826782,0-4.1669273,0.878746-5.5842514,2.3244095
		c-1.4456711,1.4173279-2.3244095,3.4015808-2.3244095,5.5842514c0,2.154335,0.8503914,4.1102371,2.2393684,5.5559082
		l0.085041,0.056694c1.4173241,1.4456711,3.4015732,2.3244095,5.5842514,2.3244095
		c2.1543312,0,4.1102371-0.8503952,5.5275612-2.2393723l0.0850372-0.0850372
		c1.4456711-1.4173203,2.3244095-3.4015732,2.3244095-5.6126022C62.3338699,9.1842575,61.4551315,7.2000046,60.0094604,5.7826767
		L60.0094604,5.7826767z M73.1055298,41.6692963v-4.3653564c0-3.0330658-1.0771637-5.7826767-2.8629913-7.9370117
		c-1.6157532-1.9842453-3.8267822-3.4582672-6.3779564-4.1669235l-8.2488213,8.2488174
		c-0.6519699,0.6803131-1.7574806,0.6803131-2.4377975,0l-8.2488174-8.2488174
		c-2.5228348,0.7086563-4.73386,2.1826782-6.3779526,4.1669235c-1.7574806,2.154335-2.8346481,4.9039459-2.8346481,7.9370117
		v4.3653564H73.1055298z M101.423645,91.3322906v-4.3653564c0-3.0047226-1.0771637-5.7543259-2.8346558-7.9370041
		c-1.6440887-1.9559097-3.8551178-3.4582672-6.3779449-4.138588l-8.2488251,8.2488251
		c-0.6803131,0.6803131-1.7858276,0.6803131-2.4661407,0l-8.2488251-8.2488251
		c-2.5228271,0.6803207-4.7338562,2.1826782-6.3779449,4.138588c-1.7574768,2.1826782-2.8346558,4.9322815-2.8346558,7.9370041
		v4.3653564H101.423645z M44.6173325,91.3322906v-4.3653564c0-3.0047226-1.0771637-5.7543259-2.8346443-7.9370041
		c-1.6440964-1.9559097-3.8551178-3.4582672-6.3779526-4.138588l-8.2488213,8.2488251
		c-0.680315,0.6803131-1.7858276,0.6803131-2.4377956,0l-8.2488194-8.2488251
		c-2.5511818,0.6803207-4.7622051,2.1826782-6.3779526,4.138588c-1.7858276,2.1826782-2.8629951,4.9322815-2.8629951,7.9370041
		v4.3653564H44.6173325z M31.5212708,55.4456787c-1.4173241-1.4173279-3.401577-2.3244171-5.5842533-2.3244171
		c-2.2110252,0-4.1669312,0.9070892-5.6126003,2.3244171c-1.4456692,1.4456635-2.3244095,3.4299164-2.3244095,5.6125946
		s0.8787403,4.1669312,2.3244095,5.6126022c1.4173241,1.4173203,3.4015751,2.3244095,5.6126003,2.3244095
		c2.1826763,0,4.1669292-0.9070892,5.5842533-2.3244095c1.4456673-1.4456711,2.3244095-3.429924,2.3244095-5.6126022
		S32.966938,56.8913422,31.5212708,55.4456787L31.5212708,55.4456787z"/>
	<path d="M61.9370232,10.2614212c6.462986,1.8992081,12.2456703,5.4141693,16.8944893,10.0346451
		c7.2283478,7.2283478,11.6787415,17.2062988,11.6787415,28.233078c0,2.9196777-0.3118134,5.7826691-0.9070892,8.53228
		c0.4818878,1.2472458,0.7370148,2.5795212,0.7370148,3.9968491c0,3.1464539-1.275589,5.981102-3.3448944,8.0503922
		l-0.1133728,0.0850449c-2.0409546,2.0125961-4.8472443,3.2598419-7.9370117,3.2598419
		c-3.1464539,0-5.9811096-1.2755966-8.0503998-3.3448868c-2.0409393-2.0692902-3.3165283-4.9039383-3.3165283-8.0503922
		s1.275589-5.981102,3.3165283-8.0503998l0.1133881-0.0850372c2.0692902-2.0125961,4.8472443-3.2314911,7.9370117-3.2314911
		c3.0614166,0,5.8110199,1.1905518,7.8519592,3.1464539c0.1700897-1.4173203,0.255127-2.8629913,0.255127-4.3086548
		c0-10.0630035-4.0818939-19.1905594-10.6582642-25.7669373c-4.0535431-4.0535431-9.0708771-7.1716537-14.6551247-8.9574814
		c-0.4535446,2.1826782-1.5590553,4.1102371-3.0614204,5.6126022l-0.1133842,0.1133881
		c-2.040947,1.9842453-4.8472443,3.2314911-7.9370079,3.2314911c-3.1464577,0-5.9811058-1.275589-8.050396-3.3448792
		l-0.085041-0.0850372c-1.4740143-1.5023651-2.5228348-3.4015808-2.9763756-5.527565
		c-5.5842552,1.7858276-10.6015778,4.9039383-14.6551208,8.9574814C18.255127,29.3385849,14.201582,38.4661407,14.201582,48.5291443
		c0,1.4173126,0.0566921,2.8062897,0.2267723,4.1669235c2.0409451-1.8708649,4.7338581-3.0047226,7.7102375-3.0047226
		c3.1464558,0,5.981102,1.275589,8.0503941,3.3165283c2.0692921,2.0692978,3.3448811,4.9039459,3.3448811,8.0503998
		s-1.275589,5.981102-3.3448811,8.0503922c-2.0409451,2.0692902-4.9039383,3.3448868-8.0503941,3.3448868
		c-3.1181107,0-5.9811039-1.2755966-8.022049-3.3448868c-2.0692902-2.0692902-3.344883-4.9039383-3.344883-8.0503922
		c0-1.5023651,0.2834663-2.9480286,0.8220482-4.2519684c-0.5669289-2.6929169-0.8503952-5.4425201-0.8503952-8.2771606
		c0-11.0267792,4.4503956-21.0047302,11.6787434-28.233078c4.648819-4.6204758,10.4314976-8.135437,16.8661442-10.0346451
		c0.2834625-2.6929169,1.4740143-5.1023636,3.2881889-6.9165344C44.6456795,1.275589,47.4803276,0,50.6267853,0
		c3.1464539,0,5.981102,1.275589,8.0503922,3.3448868C60.4913521,5.1307068,61.6819038,7.5685043,61.9370232,10.2614212
		L61.9370232,10.2614212z M56.2393837,5.7826767c-1.4456711-1.4456635-3.429924-2.3244095-5.6125984-2.3244095
		c-2.1826782,0-4.1669312,0.878746-5.6126022,2.3244095c-1.4173203,1.4173279-2.3244095,3.4015808-2.3244095,5.5842514
		c0,2.154335,0.8503952,4.1102371,2.2393723,5.5559082l0.0850372,0.056694
		c1.4456711,1.4456711,3.429924,2.3244095,5.6126022,2.3244095c2.1543312,0,4.1102333-0.8503952,5.5275574-2.2393723
		l0.085041-0.0850372c1.4173241-1.4173203,2.3244095-3.4015732,2.3244095-5.6126022
		C58.5637932,9.1842575,57.6567078,7.2000046,56.2393837,5.7826767L56.2393837,5.7826767z M69.3070984,41.6692963v-4.3653564
		c0-3.0330658-1.0488129-5.7826767-2.8346405-7.9370117c-1.6157532-1.9842453-3.8551216-3.4582672-6.3779564-4.1669235
		l-8.2488213,8.2488174c-0.6803131,0.6803131-1.7574806,0.6803131-2.4377937,0l-8.2488213-8.2488174
		c-2.5228348,0.7086563-4.7622032,2.1826782-6.3779526,4.1669235c-1.7858276,2.154335-2.8346481,4.9039459-2.8346481,7.9370117
		v4.3653564H69.3070984z M72.7653656,37.3039398v6.0661469c0,0.9637756-0.7653503,1.729126-1.729126,1.729126H30.2173328
		c-0.9637794,0-1.7291355-0.7653503-1.7291355-1.729126v-6.0661469c0-3.826767,1.3606319-7.370079,3.6283493-10.1196823
		c2.2960625-2.8062973,5.4992104-4.7905502,9.1559067-5.5559082c0.5669289-0.1417313,1.1905479,0,1.6440926,0.4535446
		l7.7102394,7.7102356l7.7102356-7.7102356c0.3968506-0.3968506,0.9637794-0.5669327,1.5590553-0.4535446
		c3.6850433,0.7086639,6.9165306,2.7496109,9.2409477,5.5559082C71.4047394,29.9338608,72.7653656,33.4771729,72.7653656,37.3039398
		L72.7653656,37.3039398z M97.6535645,91.3322906v-4.3653564c0-3.0047226-1.0771637-5.7543259-2.8629913-7.9370041
		c-1.6157532-1.9559097-3.8267822-3.4582672-6.3779602-4.138588l-8.2488251,8.2488251
		c-0.6803131,0.6803131-1.7574768,0.6803131-2.4377899,0l-8.2488251-8.2488251
		c-2.5228271,0.6803207-4.7621918,2.1826782-6.3779488,4.138588c-1.7858238,2.1826782-2.8346443,4.9322815-2.8346443,7.9370041
		v4.3653564H97.6535645z M101.0834808,86.9669342v6.0944901c0,0.9637833-0.7653503,1.7291336-1.729126,1.7291336H58.5354462
		c-0.9637794,0-1.7291336-0.7653503-1.7291336-1.7291336v-5.1307068c-2.0125999,0.3118057-4.0818901,0.4818878-6.1795273,0.4818878
		c-2.1543312,0-4.2803154-0.1700821-6.3496094-0.5102386v5.1590576c0,0.9637833-0.7653542,1.7291336-1.7007866,1.7291336H1.7291374
		C0.765358,94.7905579,0,94.0252075,0,93.0614243v-6.0944901c0-3.826767,1.3606319-7.3417282,3.6283493-10.1196823
		c2.2960625-2.7779541,5.5275593-4.7905502,9.1559067-5.5275574c0.5669289-0.1417389,1.2188969,0,1.6440945,0.453537
		l7.7102375,7.7102432l7.7102375-7.7102432c0.3968487-0.3968506,0.9637794-0.5952759,1.5590534-0.4818878
		c3.6850395,0.7370071,6.9448853,2.7496109,9.2409477,5.5559082c1.7574806,2.1259842,2.9480324,4.705513,3.4299202,7.5118103
		c2.1259842,0.3968506,4.3086624,0.5952759,6.5480347,0.5952759c2.1826744,0,4.3086586-0.1984253,6.3779526-0.5669327
		c0.4818878-2.8062973,1.7007866-5.4141693,3.4299202-7.5401535c2.2960625-2.7779541,5.4992142-4.7905502,9.1559067-5.5275574
		c0.5669327-0.1417389,1.1905518,0,1.6440964,0.453537l7.7102356,7.7102432l7.7102356-7.7102432
		c0.3968506-0.3968506,0.9637833-0.5952759,1.5590591-0.4818878c3.6850357,0.7370071,6.9448853,2.7496109,9.2409515,5.5559082
		C99.7228546,79.625206,101.0834808,83.1401672,101.0834808,86.9669342L101.0834808,86.9669342z M40.8472557,91.3322906v-4.3653564
		c0-3.0047226-1.0771675-5.7543259-2.8629951-7.9370041c-1.6157455-1.9559097-3.8267708-3.4582672-6.3779526-4.138588
		l-8.2488194,8.2488251c-0.651968,0.6803131-1.7574806,0.6803131-2.4377956,0l-8.2488194-8.2488251
		c-2.5228348,0.6803207-4.7338581,2.1826782-6.3779545,4.138588c-1.7574806,2.1826782-2.8346443,4.9322815-2.8346443,7.9370041
		v4.3653564H40.8472557z M27.7511902,55.4456787c-1.4173222-1.4173279-3.4015751-2.3244171-5.6125984-2.3244171
		c-2.1826782,0-4.1669312,0.9070892-5.5842533,2.3244171c-1.4456692,1.4456635-2.3244095,3.4299164-2.3244095,5.6125946
		s0.8787403,4.1669312,2.3244095,5.6126022c1.4173222,1.4173203,3.4015751,2.3244095,5.5842533,2.3244095
		s4.1669292-0.9070892,5.6125984-2.3244095c1.4456692-1.4456711,2.3244095-3.429924,2.3244095-5.6126022
		S29.1968594,56.8913422,27.7511902,55.4456787L27.7511902,55.4456787z M84.5574951,55.4456787
		c-1.4456635-1.4173279-3.4299164-2.3244171-5.6125946-2.3244171c-2.1543274,0-4.1102448,0.8787384-5.5275574,2.2393723
		l-0.0850372,0.0850449c-1.4173279,1.4456635-2.2960663,3.4299164-2.2960663,5.6125946s0.8787384,4.1669312,2.2960663,5.6126022
		c1.4456635,1.4173203,3.4299164,2.3244095,5.6125946,2.3244095c2.1543274,0,4.1102295-0.8503952,5.5275574-2.2393723
		l0.0850372-0.0850372c1.4173279-1.4456711,2.3244171-3.429924,2.3244171-5.6126022
		c0-2.1543274-0.8504028-4.1102371-2.2393799-5.5275574L84.5574951,55.4456787z"/>
</g>
</svg>
