<?xml version="1.0" encoding="utf-8"?>
<!-- Generator: Adobe Illustrator 21.1.0, SVG Export Plug-In . SVG Version: 6.00 Build 0)  -->
<svg version="1.1" id="Layer_1" xmlns="http://www.w3.org/2000/svg" xmlns:xlink="http://www.w3.org/1999/xlink" x="0px" y="0px"
	 viewBox="0 0 79.6433411 90.4831467" style="enable-background:new 0 0 79.6433411 90.4831467;" xml:space="preserve">
<style type="text/css">
	.st0{fill:#FFD800;}
</style>
<g>
	<path class="st0" d="M64.5630264,59.1025047C64.5346756,74.4379425,52.062233,86.8820343,36.698452,86.8536911
		c-15.363781,0-27.7795296-12.4724426-27.7795296-27.8362274C8.9472675,43.6820297,21.3913631,31.237936,36.755146,31.237936
		C52.118927,31.2662792,64.5630264,43.7103806,64.5630264,59.1025047L64.5630264,59.1025047z M38.3142014,56.3245468
		c0.3685036,0.1984253,0.7086601,0.4252014,0.9921265,0.7086639c0.6803131,0.6803131,1.1055107,1.6440964,1.1055107,2.6929169
		c0,0.6803131-0.1984253,1.36063-0.5385818,1.9275589l6.1228333,7.8803177
		c0.5669289,0.7370071,0.4251976,1.8141708-0.3118095,2.4094467c-0.7653542,0.566925-1.8425217,0.4251938-2.4094505-0.3118134
		l-6.3212585-8.1354294c-0.1133881,0-0.2267723,0-0.3401604,0c-1.0204697,0-1.9842491-0.4252014-2.664566-1.1055145
		c-0.6803131-0.6803131-1.1055107-1.6440926-1.1055107-2.664566c0-1.0488205,0.4251976-2.0126038,1.1055107-2.6929169
		c0.2551193-0.2834625,0.5952759-0.5102386,0.9354324-0.6803131V42.9166794c0-0.9637833,0.7653542-1.7291412,1.7291336-1.7291412
		c0.9354362,0,1.7007904,0.765358,1.7007904,1.7291412V56.3245468z"/>
	<path d="M66.8307419,27.4111614l-0.056694,0.0283432H58.043335c-3.940155-0.0283432-7.1433067-3.2031479-7.1433067-7.1433029
		v-9.5811005c0.028347-5.8960648-4.705513-10.686615-10.6015739-10.7149658
		c-5.6692924-0.0283432-10.3464603,4.3936996-10.6866169,10.0346451c0,0.056694,0,0.1133881,0,0.1700821v8.3055115h-5.4992142
		c-1.9275589,0-3.4866142,1.5590591-3.4866142,3.4866104v7.7385864C4.3551412,35.6316376-4.0070643,53.6032944,1.8890002,69.8458099
		c5.8960629,16.2708664,23.8677177,24.6614227,40.1102409,18.7370148
		c16.2425194-5.8960648,24.6330757-23.8677216,18.737011-40.1102371
		c-3.1748047-8.7023621-10.0346489-15.5622101-18.737011-18.7370167v-7.7669296
		c0-1.9275589-1.5590553-3.5149612-3.4866142-3.5149612h-5.3858299v-7.7385788c0-3.9685059,3.2031517-7.1716537,7.1433105-7.1716537
		c3.968502,0,7.1716537,3.2031479,7.1716537,7.1716537v9.5527573c0,5.8677139,4.7622032,10.629921,10.629921,10.6582642h8.7590599
		c0.9637756,0,1.7291336-0.7937012,1.7291336-1.7574768C68.5598755,28.2048626,67.7945175,27.4111614,66.8307419,27.4111614
		L66.8307419,27.4111614z M32.9567184,56.3245468c0.3685036,0.1984253,0.6803169,0.4252014,0.9637794,0.7086639
		c0.7086639,0.6803131,1.1338577,1.6440964,1.1338577,2.6929169c0,0.6803131-0.1984253,1.36063-0.5385818,1.9275589
		l6.0944901,7.8803177c0.5952759,0.7370071,0.4535446,1.8141708-0.3118095,2.4094467
		c-0.737011,0.566925-1.8141747,0.4251938-2.4094505-0.3118134l-6.2929153-8.1354294c-0.1133842,0-0.2267723,0-0.3401566,0
		c-1.0488186,0-1.9842529-0.4252014-2.6929131-1.1055145c-0.680315-0.6803131-1.1055126-1.6440926-1.1055126-2.664566
		c0-1.0488205,0.4251976-2.0126038,1.1055126-2.6929169c0.2834644-0.2834625,0.595274-0.5102386,0.9354324-0.6803131V42.9166794
		c0-0.9637833,0.7653542-1.7291412,1.7291336-1.7291412s1.7291336,0.765358,1.7291336,1.7291412V56.3245468z M77.8858566,27.4395046
		h-5.4708633c-0.9637833,0-1.7574844,0.765358-1.7574844,1.7291412c0,0.9637756,0.7937012,1.7574768,1.7574844,1.7574768h5.4708633
		c0.9637833,0,1.7574844-0.7937012,1.7574844-1.7574768C79.6433411,28.2048626,78.8496399,27.4395046,77.8858566,27.4395046
		L77.8858566,27.4395046z M75.8732605,35.7733688l-3.8834686-3.8551197
		c-0.5952759-0.7653503-1.6724396-0.9070892-2.4377899-0.3118134c-0.765358,0.5669346-0.9354324,1.6724415-0.3401566,2.4377995
		c0.0850372,0.1417313,0.2267685,0.2551193,0.3401566,0.3401566l3.8551178,3.8551178
		c0.7370071,0.6236267,1.8425217,0.5385895,2.4661407-0.1984253C76.4401932,37.389122,76.4401932,36.4253387,75.8732605,35.7733688
		L75.8732605,35.7733688z M70.7992401,26.9576168v-0.0283432c0.4535446,0,0.878746-0.1700821,1.2189026-0.4818954
		l3.8551178-3.940155c0.6236191-0.7370071,0.5385818-1.842514-0.1984253-2.4661407
		c-0.6519699-0.566925-1.6157455-0.566925-2.2677155,0l-3.8551178,3.9118118c-0.6803207,0.6803131-0.6803207,1.7858276,0,2.4661407
		c0.3118057,0.3401566,0.7653503,0.5102386,1.218895,0.5102386v0.0283432H70.7992401z M66.7740479,32.9954147
		c-0.9637833,0-1.7291336,0.7937012-1.7291336,1.7574768v5.470871c0,0.9637756,0.7653503,1.7291336,1.7291336,1.7291336
		c0.9637756,0,1.7574768-0.765358,1.7574768-1.7291336v-5.470871
		C68.5315247,33.7891159,67.7378235,32.9954147,66.7740479,32.9954147L66.7740479,32.9954147z M66.7740479,16.3276958
		c-0.9637833,0-1.7291336,0.765358-1.7291336,1.7291336v5.470871c0,0.9637756,0.7653503,1.7574768,1.7291336,1.7574768
		c0.9637756,0,1.7574768-0.7937012,1.7574768-1.7574768v-5.470871
		C68.5315247,17.0930538,67.7378235,16.3276958,66.7740479,16.3276958L66.7740479,16.3276958z M59.1771965,59.1025047
		c-0.028347,15.3354378-12.4724426,27.7795296-27.8362236,27.7511864c-15.3637829,0-27.8078804-12.4724426-27.7795334-27.8362274
		c0.028347-15.335434,12.4724426-27.7795277,27.8078766-27.7795277
		C46.7331009,31.2662792,59.1771965,43.7103806,59.1771965,59.1025047L59.1771965,59.1025047z M38.5409737,22.0253353v6.6047211
		c-4.705513-1.1622009-9.6661453-1.1622009-14.4000034,0v-6.6047211h7.1149616h0.1417313h0.1700783H38.5409737z"/>
</g>
</svg>
