<?xml version="1.0" encoding="utf-8"?>
<!-- Generator: Adobe Illustrator 21.1.0, SVG Export Plug-In . SVG Version: 6.00 Build 0)  -->
<svg version="1.1" id="Layer_1" xmlns="http://www.w3.org/2000/svg" xmlns:xlink="http://www.w3.org/1999/xlink" x="0px" y="0px"
	 viewBox="0 0 72.0283508 90.878746" style="enable-background:new 0 0 72.0283508 90.878746;" xml:space="preserve">
<style type="text/css">
	.st0{fill:#FFD800;}
</style>
<g>
	<path class="st0" d="M8.7874002,3.9968491h63.2409515v83.9622116H8.7874002V3.9968491z M33.392128,27.3826828
		c-3.2598419,0.2267685-6.5480328,0.4251938-9.8078747,0.6236191c-1.5874023,0.0850372-3.2881889,0.1700821-4.8755913,0.3118134
		c-1.4173241,0.1133881-2.2677174,1.7574768-1.0204735,3.0047226c0.1984253,0.2267685,0.4818897,0.3968506,0.708662,0.5952759
		l7.8236237,6.4913406c0.5102367,0.3968506,0.9354324,0.7937012,1.4173222,1.1622009
		c0.2267723,0.1984253,1.2755909,1.0488205,1.3889771,1.2189026c-0.7937012,2.8062973-1.4740162,5.7259827-2.1826782,8.5606232
		c-0.3685036,1.4456787-0.7370071,2.862999-1.1055107,4.30867c-0.1700802,0.6519623-0.5385838,1.6157455-0.3118114,2.2960587
		c0.1984253,0.6236191,0.7653542,1.1622086,1.5307083,1.1905518c0.8220482,0.056694,1.36063-0.4818878,1.8992138-0.7937012
		c0.5669289-0.3685074,1.0771656-0.7086563,1.6440945-1.0488205c1.1338577-0.7086639,2.1826782-1.3889771,3.3165359-2.097641
		c0.6803131-0.4251862,6.4629936-4.1669235,6.6047249-4.1385803l11.5653572,7.2566986
		c0.5102348,0.3401566,1.1055107,0.8787384,1.9275589,0.8220444c0.7370071-0.056694,1.303936-0.5952759,1.5023613-1.1905518
		c0.1984253-0.6803131-0.1417313-1.5307083-0.3118095-2.2110214c-0.1984253-0.7937012-3.344883-12.8409424-3.2881927-13.0110245
		l5.6692924-4.705513c1.3322868-1.0204773,2.9196854-2.4944916,4.2519722-3.5149612l1.4456711-1.1905518
		c1.1055031-1.0771637,0.510231-2.8629913-1.0488205-3.0047226c-1.6157494-0.1417313-3.2881927-0.2267761-4.9039383-0.3118134
		c-1.6440964-0.1133881-3.2598457-0.2267685-4.9039383-0.3118134c-1.5023613-0.1133804-3.429924-0.1133804-4.8755913-0.3401566
		l-1.5307083-3.8551178c-1.2188988-3.0897598-2.6078758-6.7181091-3.8834648-9.7228317
		c-0.6236229-1.5307083-2.5511818-1.5590591-3.2031517-0.0850372C38.154335,15.1653595,37.1055145,18,36.4818916,19.5590591
		c-0.5102348,1.332283-1.0204735,2.607872-1.5590553,3.9118118C34.4409485,24.74646,33.8456726,26.078743,33.392128,27.3826828
		L33.392128,27.3826828z"/>
	<path d="M1.7291317,0H68.42836c0.9637756,0,1.7291336,0.765358,1.7291336,1.7291336v87.4204788
		c0,0.9637833-0.765358,1.7291336-1.7291336,1.7291336H1.7291336C0.7653542,90.878746,0,90.1133957,0,89.1496124V1.7291336
		C-0.0000019,0.765358,0.7653522,0,1.7291317,0L1.7291317,0z M17.971653,30.9543304
		c1.0488205-0.1417236,2.3811035-0.1700745,3.4866161-0.2551117l6.9732285-0.4252014
		c1.332283-0.0850372,2.0409451-0.1417313,2.4377956-1.218895c0.7086601-1.7858276,1.4173241-3.5433121,2.1259842-5.3007889
		c0.2834663-0.7653503,1.8708649-4.9606323,2.0976372-5.2440948c0.6519699,1.7574768,1.4173241,3.5433044,2.1259842,5.3007889
		c0.6803169,1.7574844,1.3322868,3.5433044,2.069294,5.272438c0.4818878,1.0771637,1.1905518,1.1055145,2.5511818,1.1905518
		c3.3732262,0.1984253,7.0866127,0.3968506,10.3464584,0.6519699c-0.1700821,0.2267685-0.3401604,0.3401566-0.5385857,0.5102386
		l-6.066143,5.0173264c-0.3968468,0.3401489-0.7370071,0.6236115-1.1055107,0.9354248
		c-0.1700783,0.1417389-0.3685036,0.3118134-0.5669289,0.4535522c-1.5307083,1.1905441-1.1905518,1.729126-0.7086601,3.5716476
		c0.3685036,1.3889771,2.3527565,8.9291306,2.4661407,9.6661453c-0.3118095-0.1417389-2.1543312-1.3606339-2.636219-1.6440964
		c-0.8787422-0.5669327-1.7291374-1.1055069-2.6078758-1.6440964c-0.8503952-0.5385818-1.7007866-1.0771637-2.5795288-1.6440887
		c-2.2393684-1.3889771-2.4377937-1.9842529-4.3086624-0.765358l-6.4346447,4.0818863
		c-0.4535446,0.2551193-0.8220482,0.5102386-1.2755909,0.7937012c-0.3685036,0.2267761-0.9354343,0.6519699-1.332283,0.822052
		c0.1700783-0.9921265,2.0692902-8.2204742,2.4661407-9.7228394c0.3685036-1.3606262,0.7653542-2.1259842-0.1984253-3.0897675
		L17.971653,30.9543304z M28.062994,26.844101c-3.2598438,0.2267685-6.5480328,0.3968506-9.8078747,0.6236191
		c-1.6157494,0.0850372-3.2881908,0.1700821-4.8755922,0.3118134c-1.4173231,0.1133804-2.2677164,1.7574768-1.0204725,3.0047226
		c0.1984253,0.2267761,0.4535437,0.3968506,0.680315,0.5952759l7.8519688,6.491333
		c0.4818916,0.3968506,0.9070873,0.7937012,1.3889771,1.1622086c0.2551193,0.1984253,1.3039379,1.0488205,1.4173241,1.218895
		c-0.7937012,2.8063049-1.4740162,5.7259903-2.2110252,8.5606384c-0.3685036,1.4456635-0.7086601,2.8629913-1.0771656,4.3086548
		c-0.1700783,0.6236267-0.5385818,1.6157532-0.3401566,2.2960663c0.1984253,0.6236267,0.7653542,1.1622009,1.5590553,1.1905518
		c0.7937012,0.056694,1.36063-0.4818878,1.8992119-0.7937012c0.5669308-0.3684998,1.0771656-0.7086639,1.6440964-1.0488205
		c1.1055107-0.7086563,2.1826763-1.3889694,3.2881889-2.0976334c0.680315-0.4252014,6.4913387-4.1669312,6.63307-4.1669312
		l11.5370102,7.2850342c0.5385818,0.3401642,1.1338577,0.878746,1.9559059,0.822052
		c0.7370071-0.056694,1.303936-0.5952759,1.5023613-1.1905518c0.1984253-0.6803131-0.1417313-1.5590515-0.3118095-2.2110291
		c-0.1984253-0.7936935-3.344883-12.8409424-3.2881889-13.0110168l5.6692924-4.705513
		c1.332283-1.0204697,2.9196854-2.4944839,4.2519684-3.5149612l1.4173241-1.2189026
		c1.1338577-1.0488129,0.5385818-2.8346405-1.0488205-2.9763718c-1.5874023-0.1700821-3.2881889-0.2267761-4.8755913-0.3118134
		c-1.6440964-0.1133881-3.2881889-0.2267685-4.9039383-0.3118134c-1.5023613-0.1133804-3.4582672-0.1133804-4.8755913-0.3401566
		l-1.5590553-3.8551178c-1.218895-3.0897675-2.5795288-6.7181091-3.8551178-9.7228317
		c-0.6236229-1.5307083-2.5511818-1.5874023-3.2314949-0.0850449c-0.6519699,1.4740143-1.7007904,4.3086624-2.3244095,5.8677216
		c-0.5385838,1.3039398-1.0488205,2.607872-1.5590572,3.9118118C29.0834656,24.2078781,28.5165367,25.5401611,28.062994,26.844101
		L28.062994,26.844101z M19.7858276,70.157486c-0.9637794,0-1.7291336-0.7653503-1.7291336-1.7291336
		c0-0.9354324,0.7653542-1.7291336,1.7291336-1.7291336h30.8976402c0.9637794,0,1.7291336,0.7937012,1.7291336,1.7291336
		c0,0.9637833-0.7653542,1.7291336-1.7291336,1.7291336H19.7858276z M19.7858276,80.844101
		c-0.9637794,0-1.7291336-0.7937012-1.7291336-1.7291336c0-0.9637833,0.7653542-1.7291336,1.7291336-1.7291336h30.8976402
		c0.9637794,0,1.7291336,0.7653503,1.7291336,1.7291336c0,0.9354324-0.7653542,1.7291336-1.7291336,1.7291336H19.7858276z
		 M66.6992188,3.4582672H3.4582672v83.9622116h63.2409515V3.4582672z"/>
</g>
</svg>
