<?xml version="1.0" encoding="utf-8"?>
<!-- Generator: Adobe Illustrator 21.1.0, SVG Export Plug-In . SVG Version: 6.00 Build 0)  -->
<svg version="1.1" id="Layer_1" xmlns="http://www.w3.org/2000/svg" xmlns:xlink="http://www.w3.org/1999/xlink" x="0px" y="0px"
	 viewBox="0 0 81.1842651 99.9212646" style="enable-background:new 0 0 81.1842651 99.9212646;" xml:space="preserve">
<style type="text/css">
	.st0{fill:#FFD800;}
</style>
<g>
	<path class="st0" d="M70.5543442,89.8015823c0,0.0850372-0.0283508,0.1417313-0.0283508,0.1984253
		c-0.566925,4.5354309-3.6283417,6.4062958-8.135437,6.4062958H32.4000015c-3.0614147,0-5.7259827-2.2677155-6.1795254-5.272438
		c-0.028347-0.0850372-0.028347-0.1700821-0.056694-0.2551193l-0.0283451-0.0850372V63.2126007l0.7936993-0.2267685
		l-0.0850391,0.0283432c0.056694-0.0283432,0.0850391-0.0283432,0.1417332-0.0283432
		c2.3244095-0.6803131,5.0173206-2.0976334,6.9732304-3.4582672c4.3936996-3.1464615,7.1999969-7.5118103,7.1999969-13.0110245
		V35.6881943l0.6803207-0.0850449c1.7574768-0.1700745,3.7417297,0,5.215744,1.0771713
		c2.1259842,1.5873947,2.5511856,4.5921249,2.5511856,7.0582657v12.6708679c0,0.9637756,0.7937012,1.7574768,1.7858276,1.7574768
		h16.8944855c1.4456711,0,2.862999,0.5669327,3.9685059,1.5023651c1.7291336,1.4740143,2.5228348,3.8267746,2.154335,6.0661392
		L70.5543442,89.8015823z"/>
	<path d="M23.6692944,40.5921326c0-0.9637833-0.7937012-1.7574844-1.7574806-1.7574844H1.7574806
		C0.7937012,38.8346481,0,39.6283493,0,40.5921326c0,0.9637756,0.7937012,1.7858276,1.7574806,1.7858276h20.1543331
		C22.8755932,42.3779602,23.6692944,41.5559082,23.6692944,40.5921326L23.6692944,40.5921326z M70.2992249,57.0047302
		c-1.7574844-1.4740143-3.9685059-2.3527527-6.2645721-2.3527527H48.897644V43.7669373
		c0-3.7133942-0.8503952-7.5968552-3.9968491-9.9212646c-2.7496109-2.0126038-7.0866165-2.2393646-10.2614212-1.2472382
		c-0.7370071,0.2267609-1.2472458,0.9070816-1.2472458,1.6724396v12.2456665c0,4.2803192-2.2110233,7.5685043-5.6409435,10.0346451
		c-1.6440945,1.1905518-3.996851,2.4377975-6.009449,3.0330734l-0.708662,0.1700745l-0.2834644-0.3401566
		c-0.8503933-0.9637833-2.0409451-1.4740143-3.3165359-1.4740143H7.8803158c-2.4377956,0-4.4220467,1.9842529-4.4220467,4.4220505
		v31.294487c0,2.4377975,1.984251,4.4220505,4.4220467,4.4220505h9.5811043c1.0204716,0,2.0409451-0.3401566,2.8346462-1.0204773
		l0.5102348-0.4535446l0.4818897,0.4818954c1.8425198,1.7858276,4.2803154,2.8346405,6.8598442,2.8346405H58.138588
		c2.5228348,0,5.1590576-0.5385818,7.2850418-1.9842453c2.6078796-1.7574844,3.9401627-4.5070877,4.3653564-7.5968552
		L73.644104,66.274025C74.2110367,62.8724518,72.9354477,59.2724457,70.2992249,57.0047302L70.2992249,57.0047302z
		 M18.3685055,93.6567001c0,0.5102386-0.3968506,0.9070892-0.9070854,0.9070892H7.8803158
		c-0.4818897,0-0.9070864-0.3968506-0.9070864-0.9070892v-31.294487c0-0.5102386,0.4251966-0.9070892,0.9070864-0.9070892h9.5811043
		c0.5102348,0,0.9070854,0.3968506,0.9070854,0.9070892V93.6567001z M66.3023758,89.8015823
		c0,0.0850372-0.0283508,0.1417313-0.0283508,0.1984253c-0.566925,4.5354309-3.6283493,6.4062958-8.135437,6.4062958H28.148035
		c-3.0614185,0-5.6976395-2.2677155-6.1795292-5.272438c-0.0283451-0.0850372-0.0283451-0.1700821-0.0566921-0.2551193
		l-0.028347-0.0850372V63.2126007l0.7937012-0.2267685l-0.0850391,0.0283432
		c0.0566921-0.0283432,0.1133862-0.0283432,0.1417332-0.0283432c2.3244095-0.6803131,5.0456696-2.0976334,6.9732285-3.4582672
		c4.3937016-3.1464615,7.2283497-7.5118103,7.2283497-13.0110245V35.6881943l0.6519699-0.0850449
		c1.7574768-0.1700745,3.7417297,0,5.215744,1.0771713c2.1259842,1.5873947,2.5511856,4.5921249,2.5511856,7.0582657v12.6708679
		c0,0.9637756,0.7937012,1.7574768,1.78582,1.7574768h16.8944931c1.4456711,0,2.862999,0.5669327,3.9685059,1.5023651
		c1.7291336,1.4740143,2.5228348,3.8267746,2.154335,6.0661392L66.3023758,89.8015823z M26.135437,28.6299286
		c0.3401566,0.3401489,0.7936993,0.5385742,1.2472439,0.5385742c0.4818897,0,0.9354324-0.1984253,1.2472439-0.5385742
		c0.708662-0.6803207,0.708662-1.7858276,0-2.4944916L14.3716555,11.8771667c-0.680315-0.6803131-1.7858276-0.6803131-2.4944887,0
		c-0.680315,0.7086639-0.680315,1.8141785,0,2.4944916L26.135437,28.6299286z M53.8015823,29.1685028
		c0.4818878,0,0.9354324-0.1984253,1.2472458-0.5385742l14.2582703-14.2582703c0.7086639-0.6803131,0.7086639-1.7858276,0-2.4944916
		c-0.6803131-0.6803131-1.8141708-0.6803131-2.4944916,0L52.5543365,26.135437
		c-0.6803131,0.7086639-0.6803131,1.8141708,0,2.4944916C52.8944931,28.9417343,53.3480377,29.1685028,53.8015823,29.1685028
		L53.8015823,29.1685028z M40.5921326,23.6692963c0.9637756,0,1.7858276-0.7937012,1.7858276-1.7574844V1.7574768
		C42.3779602,0.7937012,41.5559082,0,40.5921326,0c-0.9637833,0-1.7574844,0.7937012-1.7574844,1.7574768v20.154335
		C38.8346481,22.8755951,39.6283493,23.6692963,40.5921326,23.6692963L40.5921326,23.6692963z M79.4267807,38.8346481H59.3007965
		c-0.9637833,0-1.7574844,0.7937012-1.7574844,1.7574844c0,0.9637756,0.7937012,1.7858276,1.7574844,1.7858276h20.1259842
		c0.9637833,0,1.7574844-0.822052,1.7574844-1.7858276C81.1842651,39.6283493,80.4189072,38.8346481,79.4267807,38.8346481
		L79.4267807,38.8346481z"/>
</g>
</svg>
