<?xml version="1.0" encoding="utf-8"?>
<!-- Generator: Adobe Illustrator 21.1.0, SVG Export Plug-In . SVG Version: 6.00 Build 0)  -->
<svg version="1.1" id="Layer_1" xmlns="http://www.w3.org/2000/svg" xmlns:xlink="http://www.w3.org/1999/xlink" x="0px" y="0px"
	 viewBox="0 0 102.7275772 81.3259888" style="enable-background:new 0 0 102.7275772 81.3259888;" xml:space="preserve">
<style type="text/css">
	.st0{fill:#FFD800;}
</style>
<g>
	<path class="st0" d="M102.7275772,62.9007912c0,0.9070854-0.7370148,1.6157494-1.6440887,1.6157494h-4.1102371
		c-0.9070892,0-1.644104,0.7086639-1.7291412,1.5874023c-0.0566864,2.4094467,0,4.8755875,0,7.2850418v1.6724396
		L85.2094727,65.0267792c-0.0283508-0.0283508-0.0567017-0.0283508-0.0850525-0.056694
		c-0.3117981-0.2834625-0.7086487-0.4535446-1.1338501-0.4535446H52.6677284c-0.9070854,0-1.6440926-0.7086639-1.6440926-1.6157494
		V34.5826797c0-0.9070816,0.7370071-1.6440964,1.6440926-1.6440964h48.41576c0.907074,0,1.6440887,0.7370148,1.6440887,1.6440964
		V62.9007912z"/>
	<path d="M74.3244171,0H5.1307106C2.2960644,0,0,2.2960663,0,5.1307068v41.499218
		c0,2.8346481,2.2960644,5.1307106,5.1307106,5.1307106h5.1590576v16.1291351c0,0.7086639,0.4251957,1.332283,1.0771637,1.6157455
		c0.2267723,0.0850449,0.4535446,0.1417313,0.6803169,0.1417313c0.4535408,0,0.9070854-0.1984253,1.218895-0.510231
		l17.3763809-17.3763809h3.7417336c0.9637794,0,1.7291336-0.7937012,1.7291336-1.7574806s-0.7653542-1.7291336-1.7291336-1.7291336
		c-1.5307083,0-3.0897636-0.028347-4.5637798,0c-0.4251976,0.028347-0.8220482,0.1984253-1.1338596,0.5102348L13.7763824,63.6944962
		v-1.6724434c0-4.0535431,0.0850372-8.1637802,0-12.1606293c-0.085041-0.9070892-0.8220482-1.5874023-1.7291336-1.5874023H5.1307106
		c-0.9070854,0-1.6440945-0.7370071-1.6440945-1.6440964V5.1307068c0-0.9070816,0.737009-1.6440887,1.6440945-1.6440887h69.1937103
		c0.8787537,0,1.6157532,0.7370071,1.6157532,1.6440887v15.9023666c0,0.9637833,0.7937012,1.7574844,1.7574768,1.7574844
		c0.9637909,0,1.7291412-0.7937012,1.7291412-1.7574844V5.1307068C79.4267883,2.2960663,77.130722,0,74.3244171,0L74.3244171,0z
		 M34.3842621,32.173233H17.5748119c-0.9637814,0-1.7291355,0.7937012-1.7291355,1.7574768
		c0,0.9637833,0.7653542,1.7291412,1.7291355,1.7291412h16.8094501c0.9637794,0,1.7291336-0.765358,1.7291336-1.7291412
		C36.1133957,32.9669342,35.3480415,32.173233,34.3842621,32.173233L34.3842621,32.173233z M61.8519821,16.1007919
		c-14.7685051,0-29.508667,0-44.2771683,0c-0.9637814,0-1.7291355,0.7653503-1.7291355,1.7291336
		c0,0.9637756,0.7653542,1.7574768,1.7291355,1.7574768h44.2771683c0.9637794,0,1.7574806-0.7937012,1.7574806-1.7574768
		C63.6094627,16.8661423,62.8157616,16.1007919,61.8519821,16.1007919L61.8519821,16.1007919z M96.661438,29.7637787H48.2173347
		c-2.8346443,0-5.1307106,2.2960663-5.1307106,5.1307144v28.3181076c0,2.8063049,2.2960663,5.1023636,5.1307106,5.1023636
		h30.6141777l12.4724426,12.5007935c0.3401642,0.3118057,0.7653503,0.510231,1.2472382,0.510231
		c0.2267761,0,0.4535522-0.056694,0.6519775-0.1417313c0.6519623-0.2834625,1.0771637-0.9070892,1.0771637-1.6157455V68.3149643
		h2.3811035c2.8062973,0,5.1023636-2.2960587,5.1023636-5.1023636V34.8944931
		C101.7638016,32.059845,99.4677353,29.7637787,96.661438,29.7637787L96.661438,29.7637787z M98.2771835,63.2126007
		c0,0.878746-0.7370148,1.6157532-1.6157455,1.6157532h-4.1102448c-0.907074,0-1.6724396,0.7086563-1.729126,1.5874023
		c-0.0850372,2.4094467-0.0283508,4.8755875-0.0283508,7.2850342v1.6724472L80.7590637,65.3385849
		c0-0.0283432-0.0283356-0.0566864-0.0566864-0.0850372c-0.3401642-0.2551193-0.7370148-0.4251938-1.1622009-0.4251938H48.2173347
		c-0.9070854,0-1.6440964-0.7370071-1.6440964-1.6157532V34.8944931c0-0.9070892,0.737011-1.6440964,1.6440964-1.6440964H96.661438
		c0.8787308,0,1.6157455,0.7370071,1.6157455,1.6440964V63.2126007z M83.7354431,47.3102417
		c-0.9637756,0-1.729126,0.7653542-1.729126,1.7291336s0.7653503,1.7574806,1.729126,1.7574806
		c0.9637909,0,1.7574921-0.7937012,1.7574921-1.7574806S84.699234,47.3102417,83.7354431,47.3102417L83.7354431,47.3102417z
		 M61.114975,47.3102417c-0.9637794,0-1.7291336,0.7653542-1.7291336,1.7291336s0.7653542,1.7574806,1.7291336,1.7574806
		s1.7574806-0.7937012,1.7574806-1.7574806S62.0787544,47.3102417,61.114975,47.3102417L61.114975,47.3102417z
		 M72.4252167,47.3102417c-0.9637909,0-1.7291412,0.7653542-1.7291412,1.7291336s0.7653503,1.7574806,1.7291412,1.7574806
		c0.9637756,0,1.7574768-0.7937012,1.7574768-1.7574806S73.3889923,47.3102417,72.4252167,47.3102417L72.4252167,47.3102417z"/>
</g>
</svg>
