<?xml version="1.0" encoding="utf-8"?>
<!-- Generator: Adobe Illustrator 21.1.0, SVG Export Plug-In . SVG Version: 6.00 Build 0)  -->
<svg version="1.1" id="Layer_1" xmlns="http://www.w3.org/2000/svg" xmlns:xlink="http://www.w3.org/1999/xlink" x="0px" y="0px"
	 viewBox="0 0 88.8378067 88.8377991" style="enable-background:new 0 0 88.8378067 88.8377991;" xml:space="preserve">
<style type="text/css">
	.st0{fill:#FFD800;}
</style>
<g>
	<path class="st0" d="M6.5480328,67.2661514c0,4.0818863,3.3165359,7.3984222,7.3984261,7.3984222
		c4.0535431,0,7.370079-3.3165359,7.370079-7.3984222c0-4.0535507-3.3165359-7.3700829-7.370079-7.3700829
		C9.8645687,59.8960686,6.5480328,63.2126007,6.5480328,67.2661514L6.5480328,67.2661514z M80.9858398,74.6645737
		c4.0535431,0,7.370079-3.3165359,7.370079-7.3984222c0-4.0535507-3.2881927-7.3700829-7.370079-7.3700829
		c-4.0818939,0-7.3984299,3.3165321-7.3984299,7.3700829C73.58741,71.3480377,76.9039459,74.6645737,80.9858398,74.6645737
		L80.9858398,74.6645737z M47.451973,3.5149612c-4.0818863,0-7.3984222,3.3165359-7.3984222,7.370079
		c0,4.0818939,3.3165359,7.3984299,7.3984222,7.3984299c4.0818939,0,7.3984299-3.3165359,7.3984299-7.3984299
		C54.8504028,6.8314972,51.5338669,3.5149612,47.451973,3.5149612L47.451973,3.5149612z"/>
	<path d="M79.9370193,56.5795326c0.5385818-2.4944878,0.8220444-5.0456734,0.8220444-7.5968513
		c0-12.7275543-6.491333-24.2929153-17.3196869-30.9543304c-0.8220444-0.5102386-1.0771637-1.5874023-0.566925-2.4094543
		c0.5102386-0.8220444,1.5874023-1.0771637,2.4094467-0.566925c11.8771667,7.313385,18.9921265,19.9842529,18.9921265,33.9307098
		c0,2.9763794-0.3684998,5.8960648-1.0204697,8.7874031c3.429924,1.9275589,5.5842514,5.5559044,5.5842514,9.496067
		c0,6.0094452-4.8755875,10.9133835-10.8850403,10.9133835c-6.0094452,0-10.9133835-4.9039383-10.9133835-10.9133835
		c0-6.0094528,4.9039383-10.8850441,10.9133835-10.8850441C78.6047363,56.3811073,79.2850494,56.4378014,79.9370193,56.5795326
		L79.9370193,56.5795326z M33.5338593,10.686615C33.6472473,4.762207,38.4944916,0,44.4188995,0
		c6.0094528,0,10.9133911,4.9039383,10.9133911,10.8850403c0,6.0094528-4.9039383,10.9133911-10.9133911,10.9133911
		c-4.7621994,0-8.9574814-3.0897675-10.3748016-7.6251984C19.5023651,18.5102386,9.2409458,31.2661438,8.1921272,46.4031525
		c-0.0850391,0.9070892-0.8220463,1.6157532-1.7574806,1.6157532c-0.028347,0-0.0850391,0-0.1133862,0
		C5.357481,47.962204,4.6204739,47.1118164,4.677166,46.1480408C5.8677177,29.3669281,17.3480339,15.2787476,33.5338593,10.686615
		L33.5338593,10.686615z M16.0157509,76.9039459c-1.5874023,0.8220444-3.3165369,1.275589-5.1023636,1.275589
		C4.9039364,78.1795349,0,73.2755966,0,67.2661514c0-6.0094528,4.9039364-10.8850441,10.9133873-10.8850441
		c5.981102,0,10.8850403,4.8755913,10.8850403,10.8850441c0,2.8062973-1.0771656,5.4708633-2.9763775,7.4834595
		c6.7748032,6.74646,16.015749,10.5732346,25.5968494,10.5732346c4.7905579,0,9.46772-0.9070892,13.8897705-2.7496109
		c0.8787384-0.3684998,1.9275589,0.056694,2.2960587,0.9637833c0.3685074,0.8787384-0.0566864,1.8992081-0.9637756,2.2677155
		c-4.8472443,2.0125961-9.977951,3.0330658-15.2220535,3.0330658
		C33.7606354,88.8377991,23.4708691,84.5007935,16.0157509,76.9039459L16.0157509,76.9039459z M77.9527664,74.6645737
		c4.0535431,0,7.370079-3.3165359,7.370079-7.3984222c0-4.0535507-3.3165359-7.3700829-7.370079-7.3700829
		c-4.0818863,0-7.3984222,3.3165321-7.3984222,7.3700829C70.5543442,71.3480377,73.8708801,74.6645737,77.9527664,74.6645737
		L77.9527664,74.6645737z M44.4188995,3.5149612c-4.0818863,0-7.3984222,3.3165359-7.3984222,7.370079
		c0,4.0818939,3.3165359,7.3984299,7.3984222,7.3984299c4.0818939,0,7.3984299-3.3165359,7.3984299-7.3984299
		C51.8173294,6.8314972,48.5007935,3.5149612,44.4188995,3.5149612L44.4188995,3.5149612z M3.5149612,67.2661514
		c0,4.0818863,3.3165359,7.3984222,7.3984261,7.3984222c4.0535431,0,7.370079-3.3165359,7.370079-7.3984222
		c0-4.0535507-3.3165359-7.3700829-7.370079-7.3700829C6.8314972,59.8960686,3.5149612,63.2126007,3.5149612,67.2661514
		L3.5149612,67.2661514z"/>
</g>
</svg>
