<?xml version="1.0" encoding="utf-8"?>
<!-- Generator: Adobe Illustrator 21.1.0, SVG Export Plug-In . SVG Version: 6.00 Build 0)  -->
<svg version="1.1" id="Layer_1" xmlns="http://www.w3.org/2000/svg" xmlns:xlink="http://www.w3.org/1999/xlink" x="0px" y="0px"
	 viewBox="0 0 22 22" style="enable-background:new 0 0 22 22;" xml:space="preserve">
<style type="text/css">
	.st0{fill:#DADADA;}
</style>
<g>
	<g id="Icon-Gear" transform="translate(226.000000, 426.000000)">
		<path id="Fill-45" class="st0" d="M-215-409.8235474c-2.8655396,0-5.2226868-2.3571472-5.2226868-5.2226868
			s2.3571472-5.2226868,5.2226868-5.2226868c2.8655548,0,5.222702,2.3571472,5.222702,5.2226868
			S-212.1344452-409.8235474-215-409.8235474L-215-409.8235474z M-215-419.159668
			c-2.2646942,0-4.1134338,1.8487549-4.1134338,4.1134338c0,2.2647095,1.8487396,4.1134644,4.1134338,4.1134644
			c2.2647095,0,4.1134491-1.8487549,4.1134491-4.1134644C-210.8865509-417.3109131-212.7352905-419.159668-215-419.159668
			L-215-419.159668z"/>
		<path id="Fill-46" class="st0" d="M-213.4285736-404h-3.1428528l-0.8781586-2.6806641
			c-0.6008301-0.1848755-1.1554565-0.4159546-1.710083-0.6932678l-2.5420074,1.2940979l-2.2184906-2.2184753l1.2941132-2.5420227
			c-0.2773132-0.5546265-0.5546112-1.1092529-0.6932678-1.710083L-226-413.4285583v-3.1428833l2.6806793-0.8781433
			c0.1848602-0.6008301,0.4159546-1.1554565,0.6932678-1.710083l-1.2941132-2.5420227l2.2184906-2.2184753l2.5420074,1.2940979
			c0.5546265-0.2773132,1.1092529-0.5546265,1.710083-0.6932678L-216.5714264-426h3.1428528l0.8781586,2.6806641
			c0.6008301,0.1848755,1.1554565,0.4159546,1.710083,0.6932678l2.5420074-1.2940979l2.2184906,2.2184753l-1.2941132,2.5420227
			c0.2773132,0.5546265,0.5546112,1.1092529,0.6932678,1.710083L-204-416.5714417v3.1428833l-2.6806793,0.8781433
			c-0.1848602,0.6008301-0.4159546,1.1554565-0.6932678,1.710083l1.2941132,2.5420227l-2.2184906,2.2184753l-2.5420074-1.2940979
			c-0.5546265,0.2773132-1.1092529,0.5546265-1.710083,0.6932678L-213.4285736-404L-213.4285736-404z M-215.7857056-405.0630188
			h1.5714264l0.8319244-2.4957886l0.2773132-0.0924377c0.6932831-0.1848755,1.3403473-0.4621887,1.9873962-0.8319397
			l0.2773132-0.1386414l2.3571472,1.2016602l1.1092529-1.1092224l-1.2016907-2.3571472l0.1386566-0.2773132
			c0.369751-0.6008301,0.6470642-1.2941284,0.8319397-1.9873962l0.0924377-0.2773132l2.4957886-0.8319397v-1.5714111
			l-2.4957886-0.8319397l-0.0924377-0.2773132c-0.1848755-0.6932678-0.4621887-1.3865356-0.8319397-1.9873962l-0.1386566-0.2773132
			l1.2016907-2.3571472l-1.1092529-1.1092224l-2.3571472,1.2016907l-0.2773132-0.1386719
			c-0.6008301-0.3697205-1.2941132-0.6470337-1.9873962-0.8319092l-0.2773132-0.0924377l-0.8319244-2.4958191h-1.5714264
			l-0.8319397,2.4958191l-0.2773132,0.0924377c-0.6932831,0.1848755-1.340332,0.4621887-1.9873962,0.8319092l-0.2773132,0.1386719
			l-2.3571472-1.2016907l-1.1092377,1.1092224l1.2016754,2.3571472l-0.1386566,0.2773132
			c-0.369751,0.6008606-0.647049,1.2941284-0.8319244,1.9873962l-0.0924377,0.2773132l-2.4958038,0.8319397v1.5714111
			l2.4958038,0.8319397l0.0924377,0.2773132c0.1848602,0.6932678,0.4621735,1.3865662,0.8319244,1.9873962l0.1386566,0.2773132
			l-1.2016754,2.3571472l1.1092377,1.1092224l2.3571472-1.2016602l0.2773132,0.1386414
			c0.6008453,0.369751,1.2941132,0.6470642,1.9873962,0.8319397l0.2773132,0.0924377L-215.7857056-405.0630188
			L-215.7857056-405.0630188z"/>
	</g>
</g>
</svg>
