<?xml version="1.0" encoding="utf-8"?>
<!-- Generator: Adobe Illustrator 21.1.0, SVG Export Plug-In . SVG Version: 6.00 Build 0)  -->
<svg version="1.1" id="Layer_1" xmlns="http://www.w3.org/2000/svg" xmlns:xlink="http://www.w3.org/1999/xlink" x="0px" y="0px"
	 viewBox="0 0 93 80" style="enable-background:new 0 0 93 80;" xml:space="preserve">
<g id="Layer_2">
	<g id="Layer_3">
		<path d="M0,0v80h93V0H0z M89.096962,75.9183655H4.0376258V4.0816331h84.9247437v71.836731H89.096962z"/>
		<polygon points="30.820549,30.0680275 45.2214165,44.6258507 48.1823463,41.7687073 30.820549,24.2176857 13.4587545,41.7687073 
			16.4196815,44.6258507 		"/>
		<polygon points="48.9898682,30.0680275 76.5803146,57.9591827 79.406662,55.1020355 48.9898682,24.2176857 40.2416763,33.0612221 
			43.0680199,35.9183655 		"/>
		<path d="M72.6772842,23.8095245c4.0376205,0,7.2677307-3.2653065,7.2677307-7.3469391s-3.2301102-7.3469381-7.2677307-7.3469381
			c-4.0376282,0-7.2677307,3.4013596-7.2677307,7.3469381S68.7742386,23.8095245,72.6772842,23.8095245L72.6772842,23.8095245z
			 M72.6772842,13.333333c1.7496338,0,3.2301025,1.4965982,3.2301025,3.2653055
			c0,1.7687054-1.4804611,3.2653046-3.2301025,3.2653046s-3.2301025-1.4965992-3.2301025-3.2653046
			C69.4471817,14.6938772,70.9276428,13.333333,72.6772842,13.333333
			C72.6772842,13.197279,72.6772842,13.197279,72.6772842,13.333333L72.6772842,13.333333z"/>
	</g>
</g>
</svg>
