<?xml version="1.0" encoding="utf-8"?>
<!-- Generator: Adobe Illustrator 21.1.0, SVG Export Plug-In . SVG Version: 6.00 Build 0)  -->
<svg version="1.1" id="Layer_1" xmlns="http://www.w3.org/2000/svg" xmlns:xlink="http://www.w3.org/1999/xlink" x="0px" y="0px"
	 viewBox="0 0 22 22" style="enable-background:new 0 0 22 22;" xml:space="preserve">
<style type="text/css">
	.st0{fill:#FFD800;}
</style>
<g id="calendar_1_">
	<path class="st0" d="M20.1671257,2.0625H17.1875v-1.375C17.1875,0.3073125,16.880188,0,16.5,0s-0.6875,0.3073125-0.6875,0.6875
		v1.375h-4.125v-1.375C11.6875,0.3073125,11.3795004,0,11,0s-0.6875,0.3073125-0.6875,0.6875v1.375h-4.125v-1.375
		C6.1875,0.3073125,5.8794999,0,5.5,0S4.8125,0.3073125,4.8125,0.6875v1.375H1.8335625C0.820875,2.0625,0,2.8826873,0,3.895375
		v16.2710629C0,21.1791248,0.820875,22,1.8335625,22h18.3335629C21.1798115,22,22,21.1791248,22,20.1664371V3.895375
		C22,2.8826873,21.1798115,2.0625,20.1671257,2.0625z M20.625,20.1664371c0,0.2530003-0.2055626,0.4585629-0.4578743,0.4585629
		H1.8335625c-0.253,0-0.4585625-0.2055626-0.4585625-0.4585629V3.895375c0-0.2523127,0.2055625-0.457875,0.4585625-0.457875H4.8125
		v1.375C4.8125,5.1926875,5.1205001,5.5,5.5,5.5s0.6875-0.3073125,0.6875-0.6875v-1.375h4.125v1.375
		C10.3125,5.1926875,10.6204996,5.5,11,5.5s0.6875-0.3073125,0.6875-0.6875v-1.375h4.125v1.375
		C15.8125,5.1926875,16.119812,5.5,16.5,5.5s0.6875-0.3073125,0.6875-0.6875v-1.375h2.9796257
		c0.2523117,0,0.4578743,0.2055624,0.4578743,0.457875V20.1664371z"/>
	<rect x="4.8125" y="8.25" class="st0" width="2.75" height="2.0625"/>
	<rect x="4.8125" y="11.6875" class="st0" width="2.75" height="2.0625"/>
	<rect x="4.8125" y="15.125" class="st0" width="2.75" height="2.0625"/>
	<rect x="9.625" y="15.125" class="st0" width="2.75" height="2.0625"/>
	<rect x="9.625" y="11.6875" class="st0" width="2.75" height="2.0625"/>
	<rect x="9.625" y="8.25" class="st0" width="2.75" height="2.0625"/>
	<rect x="14.4375" y="15.125" class="st0" width="2.75" height="2.0625"/>
	<rect x="14.4375" y="11.6875" class="st0" width="2.75" height="2.0625"/>
	<rect x="14.4375" y="8.25" class="st0" width="2.75" height="2.0625"/>
</g>
</svg>
