<?xml version="1.0" encoding="utf-8"?>
<!-- Generator: Adobe Illustrator 21.1.0, SVG Export Plug-In . SVG Version: 6.00 Build 0)  -->
<svg version="1.1" id="Layer_1" xmlns="http://www.w3.org/2000/svg" xmlns:xlink="http://www.w3.org/1999/xlink" x="0px" y="0px"
	 viewBox="0 0 26 26" style="enable-background:new 0 0 26 26;" xml:space="preserve">
<style type="text/css">
	.st0{fill:#B7B7B7;}
</style>
<path class="st0" d="M14.1489258,13L25.7619629,1.3869629c0.3173828-0.3173828,0.3173828-0.8315429,0-1.1489258
	s-0.831543-0.3173829-1.1489258,0L13,11.8510742L1.3869629,0.2380372c-0.3173828-0.3173829-0.8315429-0.3173829-1.1489258,0
	s-0.3173829,0.8315429,0,1.1489258L11.8510742,13L0.2380372,24.6130371c-0.3173829,0.3173828-0.3173829,0.831543,0,1.1489258
	C0.3967286,25.9206543,0.6040853,26,0.8125001,26s0.4157714-0.0793457,0.5744628-0.2380371L13,14.1489258l11.6130371,11.6130371
	C24.7717285,25.9206543,24.9790859,26,25.1875,26s0.4157715-0.0793457,0.5744629-0.2380371
	c0.3173828-0.3173828,0.3173828-0.831543,0-1.1489258L14.1489258,13z"/>
</svg>
