<svg width="12" height="12" viewBox="0 0 12 12" fill="none" xmlns="http://www.w3.org/2000/svg">
<path d="M12 6C12 9.31371 9.31371 12 6 12C2.68629 12 0 9.31371 0 6C0 2.68629 2.68629 0 6 0C9.31371 0 12 2.68629 12 6Z" fill="#DC1414"/>
<path d="M5.23079 6.59766L5.05066 4.0249C5.01689 3.5236 5 3.16374 5 2.94531C5 2.64811 5.08068 2.41716 5.24205 2.25244C5.40717 2.08415 5.62296 2 5.8894 2C6.21214 2 6.42793 2.10742 6.53676 2.32227C6.64559 2.53353 6.7 2.83968 6.7 3.24072C6.7 3.47705 6.68687 3.71696 6.6606 3.96045L6.41854 6.6084C6.39227 6.9235 6.33598 7.1652 6.24967 7.3335C6.16336 7.50179 6.02075 7.58594 5.82185 7.58594C5.6192 7.58594 5.47848 7.50537 5.39967 7.34424C5.32086 7.17952 5.26457 6.93066 5.23079 6.59766ZM5.85563 10.1318C5.62671 10.1318 5.42594 10.062 5.25331 9.92236C5.08444 9.77913 5 9.5804 5 9.32617C5 9.10417 5.08068 8.91618 5.24205 8.76221C5.40717 8.60466 5.60795 8.52588 5.84437 8.52588C6.08079 8.52588 6.28157 8.60466 6.44669 8.76221C6.61556 8.91618 6.7 9.10417 6.7 9.32617C6.7 9.57682 6.61556 9.77376 6.44669 9.91699C6.27781 10.0602 6.08079 10.1318 5.85563 10.1318Z" fill="white"/>
</svg>
