<?xml version="1.0" encoding="utf-8"?>
<!-- Generator: Adobe Illustrator 21.1.0, SVG Export Plug-In . SVG Version: 6.00 Build 0)  -->
<svg version="1.1" id="Layer_1" xmlns="http://www.w3.org/2000/svg" xmlns:xlink="http://www.w3.org/1999/xlink" x="0px" y="0px"
	 viewBox="0 0 20 25" style="enable-background:new 0 0 20 25;" xml:space="preserve">
<style type="text/css">
	.st0{fill:#FFD800;}
</style>
<g>
	<path class="st0" d="M15.1098108,9.4624872c0-2.6875706-2.313324-4.8712206-5.0951691-4.8712206
		c-2.8111277,0-5.1244516,2.18365-5.1244516,4.8712206s2.313324,4.8712215,5.1244516,4.8712215
		C12.7964869,14.3337088,15.1098108,12.1500568,15.1098108,9.4624872L15.1098108,9.4624872z M9.8975105,25l0.6149349-0.5879059
		C10.8931189,24.0201569,20,14.8376265,20,9.6584558C20,4.395298,15.4904833,0,10.0146418,0C4.5095167,0,0,4.2833157,0,9.6584558
		c0,5.1791706,9.1068821,14.361701,9.3997068,14.7536383L9.8975105,25z M9.8975105,1.4837652
		c4.7144947,0,8.4919472,3.6954079,8.4919472,8.1746902c0,3.5834265-5.6808195,10.1623735-8.4919472,13.1578932
		c-2.7818441-2.8835373-8.4919472-9.5744667-8.4919472-13.1578932C1.4055638,5.179173,5.2122989,1.4837652,9.8975105,1.4837652
		L9.8975105,1.4837652z M6.5007319,9.4624872c0-1.9036956,1.6105428-3.3874569,3.5139098-3.3874569
		c1.8740854,0,3.4846268,1.4837613,3.4846268,3.3874569s-1.6105413,3.3874578-3.4846268,3.3874578
		C8.1112747,12.8499451,6.5007319,11.3661814,6.5007319,9.4624872L6.5007319,9.4624872z"/>
</g>
</svg>
