<?xml version="1.0" encoding="utf-8"?>
<!-- Generator: Adobe Illustrator 21.1.0, SVG Export Plug-In . SVG Version: 6.00 Build 0)  -->
<svg version="1.1" id="Layer_1" xmlns="http://www.w3.org/2000/svg" xmlns:xlink="http://www.w3.org/1999/xlink" x="0px" y="0px"
	 viewBox="0 0 113.846756 104.9094162" style="enable-background:new 0 0 113.846756 104.9094162;" xml:space="preserve">
<style type="text/css">
	.st0{fill-rule:evenodd;clip-rule:evenodd;fill:#FFD800;}
</style>
<g>
	<path class="st0" d="M67.8897705,58.7897263c1.3606339,1.4456635,2.6078796,2.9763794,3.7133865,4.5921249
		c0.9354401,1.3606262,1.7858276,2.7779541,2.5228348,4.2519684c0.2267761,0.4251938,0.4535446,0.8503952,0.6519699,1.275589
		c2.4377975,1.332283,5.1023636,1.7858276,7.7669296,1.5307083c2.4944916-0.2551193,5.0456696-1.1622009,7.4267731-2.607872
		c-0.1984253-0.1417313-0.3684998-0.3118134-0.5385818-0.4818878c-0.6803131-0.6519699-1.3039322-1.5023651-1.8708649-2.5511856
		l-0.1133881-0.1984253c-0.3118057-0.6236191-0.5952759-1.3039322-0.7937012-1.9842529V62.58815l-0.0850372-0.1984253l0,0
		l-0.0283432-0.1133804c-1.4173279,0.9354248-3.1181107,1.4740143-4.9039383,1.6157455
		c-2.6078796,0.2551193-5.3858261-0.3118134-7.7669296-1.5874023c-1.5023651-0.7937012-2.4094543-1.7574844-3.3165359-2.6929169
		c-0.6236267-0.6519699-1.2189026-1.2472458-1.9559097-1.7291336C68.371666,58.1944504,68.1165466,58.4779129,67.8897705,58.7897263
		L67.8897705,58.7897263z M15.3070889,61.6243668c0.623621,0,1.1338577,0.5102386,1.1338577,1.1338654
		c0,0.6519623-0.5102367,1.1622009-1.1338577,1.1622009c-1.8141737,0-3.2598429-0.3684998-4.4220486-1.218895
		c-1.1622047-0.8220444-1.984252-2.0692978-2.5511808-3.7417374c-0.1984253-0.5952759-0.4251976-1.0488129-0.7370081-1.3322754
		C7.37008,57.4291,7.0582685,57.3440552,6.661418,57.3723984C6.4913392,57.4007492,6.3212605,57.4291,6.1795282,57.5141373
		c-0.311811,0.1417236-0.5669293,0.3968506-0.7370081,0.7369995c-0.1984253,0.3968506-0.311811,0.9070892-0.2267714,1.5590591
		c0.0566926,0.4818954,0.1984248,1.0771713,0.5102363,1.7007904H5.6976385
		c0.5952754,1.275589,1.332284,2.3811035,2.2960634,3.2598419c0.9637794,0.9070892,2.1543312,1.5874023,3.6566935,2.0692902
		c0.7937002,0.2551193,2.2110233,0.4252014,3.6850405,0.4535446c1.7574787,0.056694,3.5716534,0,4.5921249-0.1700821
		c0.8503952-0.1700745,1.6157494-0.4251938,2.2960644-0.9354324c0.2551174-0.1700745,0.5102367-0.3968506,0.7653542-0.6803131l0,0
		l0,0c0.0850391-0.0850372,0.1417313-0.1417313,0.1984253-0.2267685c0.3685036-0.4252014,0.7370071-0.9637833,1.0771656-1.6157532
		l0.1133862-0.2267685c0.2267704-0.4252014,0.3968506-0.8503952,0.5385818-1.3039398h0.028347
		c0.3685036-1.218895,0.4818897-2.4377899,0.3118114-3.5716553c-0.2267723-1.275589-0.8220482-2.4377899-1.8992138-3.2031479
		l-0.2551174-0.1984253c-0.0850391-0.0283432-0.1700783-0.0850372-0.2551193-0.1417313l-0.0850391-0.0283508
		c-1.4740162-0.7653503-3.6283455-0.7086563-5.5842514-0.6803131c-0.5385838,0.0283508-1.1055126,0.0283508-1.3889771,0.0283508
		H1.5874017H1.5307089c-0.6803151,0-1.105512,0.3118134-1.3322837,0.7370071
		C0.0850394,55.3031082,0.0283464,55.5582275,0,55.8133469l0,0c0,0.2551193,0.0283464,0.5385818,0.1133858,0.7653503
		c0.1700788,0.5102386,0.5669292,0.9354401,1.1905513,1.0204773h1.8992127
		c0.0566931-0.1417313,0.1133862-0.2834625,0.1700788-0.3968506c0.4251971-0.822052,1.0771656-1.4456711,1.8425202-1.7858276
		h0.0283461c0.368504-0.1700745,0.7370081-0.2834625,1.1622052-0.3401566
		c1.1338582-0.1133881,2.0125985,0.1984253,2.7212596,0.8220444c0.4535437,0.3968506,0.7937012,0.9354401,1.0771656,1.5307159
		l1.8708668,0.0283432c0.651969,0,1.1622047,0.510231,1.1622047,1.1622086c0,0.6236115-0.5385828,1.1338501-1.1622047,1.1338501
		h-0.8503942c0.2834654,0.4535446,0.6236229,0.822052,1.0204725,1.0771637
		C12.9826784,61.3692551,13.9748049,61.6243668,15.3070889,61.6243668L15.3070889,61.6243668z M2.9196854,60.0369644
		l-0.0283465-0.1417236c-0.4818897,0-1.2188977,0.0566864-1.7007874,0
		c-0.4535434,0.0566864-0.7937009,0.4818878-0.9637797,0.9921265c-0.0850394,0.2551117-0.1133859,0.5385742-0.1133859,0.8220444
		c0.0283465,0.2551193,0.0850394,0.510231,0.1700788,0.765358c0.2551183,0.510231,0.7937009,0.9070816,1.7007878,0.9070816
		l0.0283462-0.0283432h2.0409451c-0.1417322-0.2834702-0.311811-0.5669327-0.4251966-0.8787384H3.6000004
		C3.2314963,61.6243668,3.0047245,60.8023224,2.9196854,60.0369644L2.9196854,60.0369644z M12.6425209,52.0432663h3.1464577
		c0.5952759,0,0.9637794,0,1.36063-0.0283432c0.4535427,0,0.9070873-0.0283432,1.3889771-0.0283432
		c-1.4173241-0.9637833-2.7779541-1.9275665-3.9401588-2.7212677l-0.0566931-0.0283432
		c-0.9921255-0.7370071-1.8708658-0.765358-2.4661417-0.4535446c-0.2267714,0.1133881-0.4251966,0.2834625-0.5952759,0.4818878l0,0
		c-0.1417322,0.1984253-0.2551184,0.3968506-0.3118105,0.6236267c-0.1133862,0.4818878-0.028347,0.9921265,0.4251966,1.332283
		L12.6425209,52.0432663z M27.6094513,58.8180771c0.028347,0.2551117,0.028347,0.510231,0.028347,0.7936935
		c0.8787403,0.8503952,2.0125999,1.4173203,3.2314968,1.7291336c-0.028347-0.453537-0.0566921-0.9354324-0.0850391-1.4740143
		c-0.2267723-2.8913422-0.5669289-5.1874008-1.3039379-7.3417358c-0.2834644-0.8220444-0.623621-1.6440887-1.0488186-2.4377899
		c0.0850391,1.0488129,0.1133862,1.9559021,0.0850391,2.8346405C28.4598465,54.8495712,28.119688,56.4653168,27.6094513,58.8180771
		L27.6094513,58.8180771z M27.0992165,62.9566574c-0.1984253,0.566925-0.4251976,1.1055069-0.708662,1.6440887l-0.1133862,0.1984253
		c-0.5669289,1.0488205-1.1905518,1.8708725-1.8425198,2.5228348l-0.028347,0.0283508
		c-0.1700783,0.1700745-0.3401566,0.3401566-0.5102348,0.4818878c2.3811016,1.4456711,4.9039364,2.3527527,7.3984261,2.607872
		c2.692915,0.2551193,5.329134-0.1984253,7.7669315-1.5307083c0.1700783-0.3684998,0.3685036-0.7086563,0.5385818-1.0771637l0,0l0,0
		c0.7937012-1.5590515,1.6724434-3.0330734,2.6362228-4.4503937c1.1338577-1.6440964,2.3810997-3.2031479,3.7984238-4.6771622
		c-0.2267723-0.2834625-0.4818878-0.5669327-0.7086601-0.8787384c-0.7937012,0.4818878-1.3889771,1.1338501-2.040947,1.78582
		c-0.8787384,0.9354324-1.8141708,1.8992157-3.3165359,2.6929169c-2.3527565,1.275589-5.1590538,1.8425217-7.7669296,1.5874023
		c-1.7858276-0.1417313-3.4866161-0.6803207-4.9039383-1.6157455l-0.028347,0.1133804
		c-0.0566921,0.1700821-0.1133862,0.3685074-0.1700783,0.5385818V62.9566574z M58.1385918,59.1015396
		c0.8503952,0.5385742,1.6157494,1.0204697,2.3811035,1.3889771c0.6519661,0.3118057,1.332283,0.5385742,2.0692902,0.6803131
		c0.9354362-0.8787384,1.8992119-1.8992157,2.8346443-3.0047302c3.3165359-3.940155,6.0944901-8.6740112,6.3212662-11.3669281
		v-0.0283432c0.6519623-6.037796-0.9354401-9.7511826-2.4661484-13.3795319
		c-0.3684998-0.8787384-0.7653503-1.7574787-1.1055069-2.6929111c-0.1984253-0.5102386,0.0283432-1.1055145,0.510231-1.3889771
		c3.3165359-2.1826782,7.2566986-5.6409454,10.2047272-9.5527573c2.2393723-3.0047226,3.9118118-6.2645645,4.1669312-9.4110184
		v-0.1133881c0.1133881-1.2189026,0.1417313-3.2315063-0.056694-5.1590576
		c-4.2236176,2.6078644-6.8881912,4.8188934-8.9291306,7.3700714c-2.2110291,2.7212677-4.3086624,5.6409531-5.9527588,10.233078
		l-0.056694,3.0897598c0,0.6236267-0.5385818,1.1338577-1.1622009,1.1338577l-0.0283508-0.0283432
		c-3.2314987-0.1417313-6.5480309-0.2267685-9.8645668-0.2267685c-3.344883,0-6.6330719,0.0850372-9.8645706,0.2551117
		c-0.6519661,0.0283508-1.1905479-0.4818878-1.218895-1.1055069v-0.0850449l-0.056694-3.2314911
		c-2.0976372-4.2803192-3.6850395-7.370079-5.8393707-10.0346527c-2.0692902-2.5795288-4.73386-4.8188934-9.0141773-7.4267731
		c-0.2551174,1.9842529-0.1984234,4.0535431-0.0850372,5.3007965v0.0283508
		c0.2551155,3.1464539,1.8992138,6.4062958,4.1669292,9.4110184c2.9763794,3.940155,6.9448853,7.3984222,10.2614212,9.5811005
		c0.4535408,0.3118134,0.6236191,0.878746,0.4535408,1.3606339c-0.3401566,0.9354324-0.7370071,1.8141727-1.1055107,2.6929111
		c-1.5307083,3.6283493-3.1181107,7.3417358-2.4661407,13.3795319v0.056694
		c0.2834625,2.7779541,3.1181107,7.5968475,6.5196838,11.5653534c0.8503952,0.9921265,1.7574806,1.9559021,2.6362228,2.7779541
		c0.7370071-0.1417389,1.4173203-0.3685074,2.0409431-0.6803131c0.7937012-0.3685074,1.5590553-0.8504028,2.4094505-1.3889771
		v-1.1622086c-0.2834663,0-0.5669289-0.056694-0.8220482-0.0850449c-1.5307083-0.2267609-2.5511818-0.8503876-3.0330696-1.6157379
		c-0.3118134-0.4535522-0.4251976-0.9637833-0.3685036-1.4740219c0.0566902-0.4818878,0.2834625-0.9354324,0.6803131-1.3606339
		c0.7086601-0.7086563,2.040947-1.2472382,3.9401588-1.2472382h1.5023613c1.8992119,0,3.2314949,0.5385818,3.9401588,1.2472382
		c0.3968506,0.4252014,0.6236229,0.878746,0.6803131,1.3606339c0.056694,0.5102386-0.0566902,1.0204697-0.3685036,1.4740219
		c-0.5102348,0.7653503-1.5023613,1.3889771-3.0330696,1.6157379l0,0c-0.2551193,0.0567017-0.5385818,0.0850449-0.8220482,0.1133881
		V59.1015396z M60.4630013,62.9566574c-0.3118095-0.1133881-0.6236229-0.2551193-0.9070854-0.3968506
		c-0.8503952-0.3968506-1.6724434-0.8787384-2.5795288-1.4740143c-0.8787384,0.5952759-1.7007866,1.0771637-2.5511818,1.4740143
		c-0.2834625,0.1417313-0.5952759,0.2834625-0.8787384,0.3968506c1.332283,0.9354324,2.5511818,1.4740143,3.5716515,1.4740143
		C58.0535507,64.4023209,59.2157593,63.863739,60.4630013,62.9566574L60.4630013,62.9566574z M68.2299347,17.3755474
		c1.275589-2.4377975,2.4944839-4.5070877,4.0535431-6.3779526c2.3244095-2.919693,5.3574753-5.3858337,10.2614136-8.3622131
		c-0.3401566-1.1905365-0.8220444-2.1259766-1.5023575-2.4944763c-0.3118134-0.1700897-0.7370071-0.1700897-1.2472458-0.0850372
		c-1.7007904,0.3684998-3.940155,2.0692902-6.1511841,4.4503937c-1.9275589,2.0692902-3.7984238,4.648819-5.3291321,7.3417206
		v0.0567017L68.2299347,17.3755474z M68.8535538,41.2432632c0.5385818,0.3401642,0.6803131,1.0488281,0.3401566,1.5874023
		c-0.3401566,0.5385895-1.0488205,0.6803131-1.5874023,0.3401642c-0.9637756-0.5952759-1.8708649-0.9070892-2.7212601-0.9070892
		c-0.8220444,0-1.6157455,0.2834625-2.4094467,0.8787384c-0.4818916,0.3684998-1.2188988,0.2834625-1.6157494-0.2267761
		c-0.3685036-0.510231-0.2551193-1.2472382,0.2267723-1.6157379c1.1905518-0.9070892,2.4661407-1.3606339,3.7984238-1.3606339
		C66.1606369,39.9393311,67.4929276,40.3928757,68.8535538,41.2432632L68.8535538,41.2432632z M46.8850479,43.1708298
		c-0.5385818,0.3401489-1.2472458,0.1984253-1.5874023-0.3401642c-0.3401566-0.5102386-0.1984253-1.2472382,0.3401566-1.5874023
		c1.332283-0.8503876,2.6645699-1.3039322,3.9401588-1.3039322c1.303936,0,2.5511818,0.4535446,3.7417336,1.3606339
		c0.5102348,0.3968506,0.5952759,1.1055069,0.1984253,1.6157379c-0.3685036,0.5102386-1.1055145,0.5952759-1.6157494,0.2267761
		c-0.7370071-0.5952759-1.5307083-0.8787384-2.3244095-0.8787384
		C48.7275658,42.2637405,47.8488274,42.5755539,46.8850479,43.1708298L46.8850479,43.1708298z M45.7795334,17.1771221
		l-0.1133842-5.3291397c-1.5307083-2.664566-3.4015732-5.2440948-5.3291359-7.3417206
		c-2.2393684-2.3811035-4.4503937-4.0818939-6.1511803-4.4503937c-0.5102348-0.0850525-0.9354324-0.0850525-1.2472458,0.0850372
		c-0.6803131,0.3401489-1.1622066,1.275589-1.4740162,2.4377899c4.9606304,2.9763794,7.9937038,5.4992065,10.3464603,8.4188995
		C43.3133926,12.8401089,44.5039444,14.8243618,45.7795334,17.1771221L45.7795334,17.1771221z M48.0189056,14.8527126
		l0.1700783,9.6661377c2.9480324-0.1133804,5.8960648-0.1984253,8.8157501-0.1984253
		c2.8913383,0,5.8393707,0.0850449,8.7874031,0.1984253l0.1700745-9.6661377l-0.3968506,0.4818878
		c-0.9637756,1.1055145-1.9275589,2.2110291-2.551178,2.8063049c-0.6519699,0.6236191-1.1622047,0.8787384-1.8425217,0.7369995
		c-0.5669289-0.1417236-0.9637794-0.5385742-1.3889732-1.2472382l-0.056694-0.1133881l-2.7212601-5.9527588l-2.6929131,5.8677216
		c-0.028347,0.056694-0.056694,0.1417313-0.1133881,0.1984253c-0.4251976,0.7086639-0.7937012,1.1055145-1.3889771,1.2472382
		c-0.6803131,0.1417389-1.1905479-0.1133804-1.8141708-0.7369995l0,0c-0.6519699-0.5952759-1.6157494-1.7007904-2.5511818-2.8063049
		L48.0189056,14.8527126z M58.6204834,55.5865707c0.7653542-0.1133804,1.218895-0.3401489,1.4173203-0.566925l0,0
		c-0.3118095-0.3118134-1.0771637-0.566925-2.2960625-0.566925h-1.5023613c-1.2188988,0-1.9842529,0.2551117-2.2960625,0.566925l0,0
		c0.1984253,0.2267761,0.6519661,0.4535446,1.4173203,0.566925c0.4818916,0.0850449,1.0488205,0.1133881,1.6157494,0.1133881
		S58.1102448,55.6432724,58.6204834,55.5865707L58.6204834,55.5865707z M47.593708,60.5472031
		c-1.9275589,2.040947-3.5716553,4.2236252-4.9606285,6.5480347c-0.3401604,0.5952759-0.6803169,1.1905518-0.9921265,1.8141708
		v0.0283508c-1.1338577,2.2393646-2.040947,4.4787369-2.7496071,6.8881836
		c-0.7937012,2.8063049-1.303936,5.5559082-1.3889771,8.2771683c-0.056694,2.7212601,0.2834663,5.4425201,1.1622047,8.192131
		c1.4173241,4.3370056,4.1669312,7.5401535,7.5401573,9.6377945c0.085041,0.056694,0.1984253,0.1417313,0.3118134,0.1984253
		c0.1700783,0.056694,0.3401566,0.1417313,0.4818878,0.2834625c3.0047264,1.6724396,6.4629936,2.4944916,9.9212608,2.4944916
		c3.4866142,0,6.9732285-0.8503952,10.0063019-2.5228348c0.1133881-0.1133881,0.2267685-0.1984253,0.3968506-0.2267761
		c0.1133881-0.0850372,0.2267685-0.1417313,0.3401566-0.2267685c3.37323-2.097641,6.0944901-5.3007889,7.5118103-9.6377945
		c0.9070892-2.7496109,1.2472458-5.470871,1.1622086-8.192131s-0.5952759-5.4708633-1.3889771-8.2771683
		c-0.7086639-2.4661407-1.6724396-4.8188934-2.8346481-7.0866089c-0.2834625-0.5669327-0.5952759-1.1055145-0.9070892-1.6440964
		c-1.3606262-2.2960663-3.0047226-4.4503937-4.8755875-6.4913406c-3.0897675,3.429924-6.5480309,6.0661469-9.1842537,6.1228333
		C54.3685112,66.7834244,50.7685127,64.0905151,47.593708,60.5472031L47.593708,60.5472031z M25.398428,71.2054749
		c0.028347,1.5590515,0.4251976,3.0897598,1.6157494,5.0173187c2.8062992,0.7086639,5.6409473,1.9842529,8.0220509,3.8267746
		c0.1700783,0.1417313,0.3401566,0.2551193,0.4818878,0.3968506c0.2267723-1.5307083,0.5669289-3.0614166,0.9921265-4.5921249
		c-1.2188988-1.1622086-2.1259842-2.154335-2.8346443-3.0614166c-0.8787422,0.0283432-1.7291393,0.0283432-2.6078777-0.056694
		C29.1685066,72.5377579,27.2692947,71.999176,25.398428,71.2054749L25.398428,71.2054749z M36.3685112,72.3960266
		c0.2551155,0.3118057,0.5669289,0.6236191,0.8787384,0.9637756c0.1700783-0.4535446,0.3118134-0.9070816,0.4818916-1.3606262
		C37.2755966,72.1692505,36.822052,72.2826385,36.3685112,72.3960266L36.3685112,72.3960266z M95.3008041,51.9865799
		c0.4818878,0,0.9637756,0.0283432,1.4173203,0.0283432c0.3685074,0.0283432,0.7370071,0.0283432,1.332283,0.0283432h3.1464615
		l1.0771637-0.8220444c0.4251938-0.3401566,0.5385818-0.8503952,0.3968506-1.332283
		c-0.056694-0.2267761-0.1700821-0.4252014-0.3118134-0.6236267c-0.1700821-0.1984253-0.3685074-0.3684998-0.5669327-0.4818878
		c-0.6236191-0.3118134-1.5023575-0.2834625-2.4944839,0.4535446l-0.056694,0.0283432
		C98.0787582,50.0590134,96.7181244,51.0227966,95.3008041,51.9865799L95.3008041,51.9865799z M90.7653656,55.161377
		l-0.2834625,0.1984253c-1.0771637,0.765358-1.6724396,1.9275589-1.8992157,3.2031479
		c-0.1984253,1.2189026-0.0283432,2.5511856,0.4252014,3.8551178v0.0283508
		c0.1417313,0.3401566,0.2834625,0.6519699,0.4535446,0.9921265l0.1133804,0.2267685
		c0.3401566,0.6519699,0.7086639,1.1622086,1.0771713,1.6157532c0.0566864,0.0850372,0.1417313,0.1700745,0.1984253,0.2267685l0,0
		l0.0283432,0.0283432c0.2267685,0.2551193,0.4818878,0.4818954,0.7370071,0.6519699
		c0.6803131,0.5102386,1.4456711,0.765358,2.2960663,0.9354324c1.0204697,0.1700821,2.8346405,0.2267761,4.5921249,0.1700821
		c1.4740143-0.0283432,2.8913345-0.1984253,3.7133865-0.4535446c1.4740143-0.4818878,2.664566-1.1622009,3.6283493-2.0692902
		c0.9637756-0.8787384,1.7291336-1.9842529,2.2960587-3.2598419l0,0c0.2834625-0.6236191,0.4535446-1.218895,0.4818878-1.7007904
		c0.0850449-0.6519699,0-1.1622086-0.2267685-1.5590591c-0.1700821-0.3401489-0.4251938-0.5952759-0.7370071-0.7369995
		c-0.1417313-0.0850372-0.3118134-0.1133881-0.4535446-0.1417389c-0.4251938-0.0283432-0.7370071,0.0567017-0.9637756,0.255127
		c-0.2834702,0.2834625-0.5385895,0.7369995-0.7370148,1.3322754c-0.566925,1.6724396-1.3889694,2.919693-2.551178,3.7417374
		c-1.1622086,0.8503952-2.607872,1.218895-4.4220505,1.218895c-0.6236191,0-1.1338577-0.5102386-1.1338577-1.1622009
		c0-0.6236267,0.5102386-1.1338654,1.1622086-1.1338654c1.3039322,0,2.2960587-0.2551117,3.0614166-0.7937012
		c0.3684998-0.2551117,0.7086639-0.6236191,0.9921265-1.0771637h-0.8503952c-0.6236191,0-1.1622009-0.5102386-1.1622009-1.1622009
		c0-0.6236267,0.5385818-1.1338577,1.1622009-1.1338577h1.8708649c0.2834702-0.6236191,0.6236267-1.1338577,1.0771637-1.5590591
		c0.7086639-0.6236191,1.5874023-0.9354324,2.7212601-0.8220444c0.4252014,0.056694,0.822052,0.1700821,1.1905518,0.3401566l0,0
		c0.765358,0.3401566,1.4173279,0.9637756,1.8425217,1.7858276c0.056694,0.1133881,0.1133881,0.2551193,0.1700821,0.3968506
		h1.9559021c0.5952759-0.1133881,0.9921265-0.5102386,1.1338577-1.0204773
		c0.0850449-0.2267685,0.1417313-0.510231,0.1133881-0.7653503l0,0c-0.0283432-0.2551193-0.0850372-0.5102386-0.1984253-0.7370071
		c-0.2267685-0.4251938-0.6519699-0.7370071-1.332283-0.7370071h-0.0283432H98.0504074
		c-0.2834625,0-0.8220444,0-1.3889771-0.0283508c-1.9559021-0.0283432-4.1102371-0.0850372-5.5842514,0.6803131
		l-0.0850372,0.0283508C90.9070969,55.0763397,90.8504105,55.1046829,90.7653656,55.161377L90.7653656,55.161377z
		 M112.6488342,59.8952408h-1.7007904l-0.0283432,0.1417236c-0.0850372,0.765358-0.2834625,1.5874023-0.6803131,2.4378052l0,0
		c-0.1417313,0.3118057-0.2834625,0.5952682-0.4535446,0.8787384h2.040947l0.0283432,0.0283432
		c0.9354324,0,1.4740143-0.3968506,1.7007904-0.9070816c0.1133804-0.255127,0.1417313-0.5102386,0.1700745-0.765358
		c0-0.2834702-0.0283432-0.5669327-0.1133804-0.8220444C113.4425354,60.3487778,113.1023788,59.9519272,112.6488342,59.8952408
		L112.6488342,59.8952408z M39.8551254,84.6700439c-0.5385818-0.3401566-0.7086601-1.0488205-0.3685036-1.5874023
		s1.0488167-0.7086639,1.5874023-0.3685074c5.3007851,3.2881927,10.6015739,5.0173264,15.8456688,5.0740204
		c5.2724419,0.0283432,10.5448837-1.6157532,15.8173294-5.0740204c0.5385818-0.3401566,1.2472382-0.1984253,1.6157455,0.3401566
		c0.3401566,0.5385818,0.1984253,1.2472458-0.3401566,1.5874023c-5.6692963,3.7133865-11.3669319,5.470871-17.0929184,5.4425201
		C51.2220573,90.0275192,45.5244179,88.1850052,39.8551254,84.6700439L39.8551254,84.6700439z M78.5480423,82.572403
		c0.056694,0.4818878,0.0850372,0.9637833,0.0850372,1.4740143c0.0850449,2.9763794-0.2834625,5.9527588-1.275589,8.9574814
		c-1.218895,3.7984238-3.3448792,6.803154-6.0094452,9.0708694h18.0850372
		c1.2189026-0.2551193,1.1622086-1.6724396,1.1338577-3.0047226c-0.0283432-0.3968506-0.056694-0.765358-0.056694-1.0204773
		c0-0.6519699,0.5385895-1.1622009,1.1622086-1.1622009c0.6519699,0,1.1622009,0.510231,1.1622009,1.1622009
		c0,0.3685074,0,0.6519699,0.0283508,0.9354324c0.0283432,1.0771713,0.0850372,2.1826782-0.1984253,3.0897675h3.1748047
		c1.218895-0.2551193,1.1622009-1.6724396,1.1055069-3.0047226c-0.0283432-0.3968506-0.0283432-0.765358-0.0283432-1.0204773
		c0-0.6519699,0.5102386-1.1622009,1.1338577-1.1622009c0.6519699,0,1.1622086,0.510231,1.1622086,1.1622009
		c0,0.3685074,0,0.6519699,0.0283432,0.9354324c0.0283432,1.0771713,0.0850372,2.1826782-0.1984253,3.0897675h1.7574844v0.0283432
		c1.2472382-0.056694,2.0692902-0.9354324,2.4377899-2.0976334c0.1984253-0.5669327,0.2551193-1.1905518,0.2267761-1.8425217
		c-0.0283508-0.6236191-0.1984253-1.2472458-0.4535446-1.8141708c-0.6236267-1.3889771-1.9559097-2.4094543-4.0818939-2.2960663
		l-0.056694,0.0283432H83.111824c-0.6519699,0-1.1622086-0.5385818-1.1622086-1.1622009
		c0-0.6519699,0.5102386-1.1622086,1.1622086-1.1622086h9.5244064c2.5228424-2.3527527,3.9685059-4.5354309,4.5921326-6.434639
		c0.6519699-2.040947,0.3401566-3.7133865-0.6236267-4.9606323c-0.1700745-0.2267761-0.3684998-0.4535446-0.5952759-0.6519699
		c-1.6440887-1.5307083-4.2803116-2.1259842-7.1716537-1.8708649c-2.9763794,0.2551193-6.2078705,1.4173203-8.8440933,3.4582672
		C79.4834747,81.6936646,79.0015869,82.1188583,78.5480423,82.572403L78.5480423,82.572403z M42.4913445,102.0747681
		c-2.636219-2.2677155-4.7622032-5.2724457-6.009449-9.0708694c-0.9921265-3.0047226-1.36063-5.981102-1.275589-8.9574814
		c0-0.2551193,0.028347-0.4818878,0.028347-0.7370071c-0.5102386-0.5102386-1.0488205-0.9921265-1.6157494-1.4456711
		c-2.749609-2.0976334-6.1511841-3.4015732-9.3259869-3.7700729c-3.0614185-0.3685074-5.8393726,0.1700745-7.4834671,1.6724396
		c-0.1984253,0.1700745-0.3685036,0.3684998-0.5385818,0.5952759c-0.9637794,1.2472458-1.2755909,2.9196854-0.6236229,4.9606323
		c0.6236229,1.8992081,2.0692921,4.0818863,4.5921268,6.434639h9.5244102c0.6236229,0,1.1622066,0.5102386,1.1622066,1.1622086
		c0,0.6236191-0.5385838,1.1622009-1.1622066,1.1622009H14.0031509l-0.0566921-0.0283432
		c-2.1259851-0.1133881-3.4582682,0.9070892-4.0818911,2.2960663c-0.2834644,0.566925-0.4251966,1.1905518-0.4535427,1.8141708
		c-0.028347,0.6519699,0.0283461,1.275589,0.2267714,1.8425217c0.3685036,1.1622009,1.1905518,2.0409393,2.4377956,2.0976334
		v-0.0283432h1.7574806c-0.2834644-0.9070892-0.2267714-2.0125961-0.1984253-3.0897675
		c0-0.2834625,0.0283461-0.566925,0.0283461-0.9354324c0-0.6519699,0.5102367-1.1622009,1.1622047-1.1622009
		c0.6236219,0,1.1338587,0.510231,1.1338587,1.1622009c0,0.2551193,0,0.6236267-0.028347,1.0204773
		c-0.0566921,1.332283-0.1133842,2.7496033,1.1055126,3.0047226h3.1748028
		c-0.2834644-0.9070892-0.2267704-2.0125961-0.1984253-3.0897675c0.028347-0.2834625,0.028347-0.566925,0.028347-0.9354324
		c0-0.6519699,0.5102367-1.1622009,1.1622047-1.1622009c0.6236229,0,1.1622047,0.510231,1.1622047,1.1622009
		c0,0.2551193-0.0283451,0.6236267-0.0566921,1.0204773c-0.056694,1.332283-0.1133862,2.7496033,1.1338577,3.0047226H42.4913445z"/>
</g>
</svg>
