<?xml version="1.0" encoding="utf-8"?>
<!-- Generator: Adobe Illustrator 21.1.0, SVG Export Plug-In . SVG Version: 6.00 Build 0)  -->
<svg version="1.1" id="Layer_1" xmlns="http://www.w3.org/2000/svg" xmlns:xlink="http://www.w3.org/1999/xlink" x="0px" y="0px"
	 viewBox="0 0 88 80" style="enable-background:new 0 0 88 80;" xml:space="preserve">
<style type="text/css">
	.st0{fill-rule:evenodd;clip-rule:evenodd;fill:#FFD800;}
</style>
<g>
	<path class="st0" d="M52.4766769,44.8308487c1.0517273,1.1024094,2.0158119,2.2696762,2.8703346,3.5017815
		c0.7230644,1.0375633,1.3803864,2.1183624,1.9500732,3.2423935c0.1752892,0.324234,0.3505745,0.6484795,0.503952,0.9727173
		c1.8843422,1.0159492,3.9439659,1.361805,6.0035934,1.1672592c1.9281654-0.1945457,3.9001427-0.8862495,5.7406654-1.9886665
		c-0.1533737-0.108078-0.2848358-0.2377777-0.4163055-0.3674698c-0.5258636-0.4971657-1.0079041-1.1456451-1.4461212-1.9454384
		l-0.0876465-0.15131c-0.2410126-0.4755516-0.4601288-0.9943314-0.6135101-1.5131187v-0.0216141l-0.0657272-0.15131l0,0
		l-0.0219116-0.0864601c-1.0955505,0.7133179-2.410202,1.1240273-3.7905884,1.2321053
		c-2.0158119,0.1945457-4.1630745-0.2377739-6.0035934-1.2104912c-1.1612816-0.6052475-1.8624344-1.3401947-2.5635796-2.0535202
		c-0.4820442-0.4971657-0.9421768-0.9511032-1.5118599-1.318573C52.8491669,44.3769112,52.6519699,44.593071,52.4766769,44.8308487
		L52.4766769,44.8308487z M11.8319035,46.9924393c0.4820395,0,0.8764362,0.3890877,0.8764362,0.8646431
		c0,0.4971619-0.3943968,0.8862495-0.8764362,0.8862495c-1.4022999,0-2.5197573-0.281002-3.4181061-0.9294815
		c-0.8983479-0.6268616-1.5337648-1.5779724-1.9719834-2.8533096c-0.1533766-0.4539375-0.3286643-0.7997856-0.569684-1.0159454
		c-0.1752872-0.15131-0.4163079-0.2161636-0.7230611-0.1945496c-0.1314654,0.0216179-0.2629313,0.0432396-0.3724856,0.1080856
		c-0.2410202,0.1080742-0.4382191,0.3026237-0.5696845,0.5620079c-0.1533766,0.3026237-0.2410202,0.6917114-0.1752872,1.1888809
		c0.0438218,0.3674736,0.1533766,0.8214111,0.3943968,1.2969589H4.4040976
		c0.4601293,0.9727173,1.0298138,1.8157387,1.7747855,2.4858322c0.7449713,0.6917152,1.6652308,1.210495,2.82651,1.5779648
		c0.6135054,0.1945457,1.7090521,0.3242416,2.8484221,0.3458557c1.3584757,0.043232,2.7607765,0,3.5495691-0.1296997
		c0.6573286-0.1296921,1.2489233-0.324234,1.7747869-0.7133255c0.197197-0.1296921,0.3943958-0.3026237,0.5915947-0.5187798l0,0l0,0
		c0.065733-0.064846,0.1095543-0.108078,0.1533756-0.172924c0.2848434-0.3242455,0.569685-0.7349472,0.8326168-1.2321129
		l0.0876427-0.1729279c0.1752872-0.3242416,0.3067532-0.6484795,0.4163074-0.9943352H19.28162
		c0.2848415-0.9294815,0.3724861-1.8589668,0.2410202-2.7236099c-0.1752872-0.9727173-0.6354179-1.8589668-1.4680328-2.4426003
		l-0.197197-0.1513138c-0.065733-0.0216141-0.1314659-0.064846-0.1972008-0.108078l-0.065731-0.0216179
		c-1.13937-0.5836296-2.8045988-0.5403976-4.316453-0.5187836c-0.4163094,0.0216217-0.8545275,0.0216217-1.0736361,0.0216217
		H1.2270122H1.1831903c-0.5258625,0-0.8545264,0.2377739-1.0298139,0.5620117
		C0.0657328,42.172081,0.0219109,42.3666267,0,42.5611725l0,0c0,0.1945419,0.0219109,0.4107018,0.0876437,0.5836258
		c0.1314656,0.3890915,0.4382187,0.7133331,0.9202591,0.7781792h1.4680325
		c0.0438221-0.108078,0.0876439-0.2161598,0.1314657-0.3026237c0.3286641-0.6268654,0.8326154-1.1024132,1.4242105-1.361805
		h0.0219107c0.284842-0.1296921,0.5696845-0.2161598,0.8983483-0.2593918
		c0.8764372-0.0864639,1.5556765,0.1513138,2.1034493,0.6268616c0.350575,0.3026237,0.6135063,0.7133293,0.8326154,1.1672668
		l1.4461217,0.0216141c0.503952,0,0.8983479,0.38908,0.8983479,0.8862572c0,0.4755402-0.4163074,0.8646317-0.8983479,0.8646317
		H8.6767282c0.2191105,0.3458557,0.4820414,0.6268654,0.7887936,0.8214035
		C10.0352068,46.7979012,10.8020897,46.9924393,11.8319035,46.9924393L11.8319035,46.9924393z M2.2568259,45.7819443
		L2.234915,45.6738701c-0.3724858,0-0.94217,0.0432281-1.3146558,0c-0.350575,0.0432281-0.6135061,0.3674698-0.7449717,0.7565613
		c-0.0657328,0.1945381-0.0876438,0.4106941-0.0876438,0.6268578c0.021911,0.1945457,0.0657328,0.3890839,0.1314656,0.5836334
		c0.1971985,0.3890839,0.6135061,0.6917076,1.314656,0.6917076l0.0219108-0.0216141h1.577587
		c-0.1095545-0.2161636-0.2410202-0.4323196-0.3286638-0.6700935H2.7826884
		C2.4978461,46.9924393,2.3225586,46.3655777,2.2568259,45.7819443L2.2568259,45.7819443z M9.772275,39.6862488h2.4321146
		c0.4601297,0,0.7449713,0,1.0517244-0.0216141c0.3505745,0,0.7011499-0.0216141,1.0736361-0.0216141
		c-1.0955477-0.7349434-2.1472721-1.4698868-3.04562-2.0751343l-0.0438223-0.0216141
		c-0.7668819-0.5620155-1.4461212-0.5836334-1.906251-0.3458557c-0.1752872,0.0864639-0.3286638,0.216156-0.4601297,0.3674698l0,0
		c-0.1095543,0.15131-0.1971989,0.3026237-0.2410202,0.4755516c-0.0876436,0.3674698-0.0219107,0.7565613,0.3286638,1.0159492
		L9.772275,39.6862488z M21.3412476,44.8524666c0.0219097,0.1945381,0.0219097,0.3890839,0.0219097,0.6052399
		c0.6792393,0.6484795,1.5556774,1.0807953,2.4978466,1.318573c-0.0219116-0.3458481-0.0438213-0.7133255-0.065731-1.1240273
		c-0.1752892-2.2048302-0.4382191-3.955719-1.0079041-5.5985336c-0.2191086-0.6268616-0.4820404-1.2537193-0.8107052-1.8589668
		c0.065733,0.7997856,0.0876446,1.491497,0.065733,2.1615906C21.9985752,41.8262329,21.7356434,43.0583382,21.3412476,44.8524666
		L21.3412476,44.8524666z M20.9468517,48.0083923c-0.1533775,0.4323158-0.3286648,0.8430176-0.5477753,1.2537231l-0.0876427,0.15131
		c-0.4382191,0.7997932-0.9202595,1.4266586-1.4242115,1.9238205l-0.0219116,0.0216179
		c-0.131464,0.1296921-0.2629299,0.2593918-0.3943939,0.3674698c1.840517,1.102417,3.7905903,1.7941208,5.7187519,1.9886665
		c2.0815392,0.1945457,4.1192532-0.15131,6.0035954-1.1672592c0.1314659-0.2810059,0.2848415-0.5403976,0.4163074-0.8214073l0,0l0,0
		c0.6135063-1.1888733,1.2927456-2.3129082,2.0377178-3.3937035c0.8764381-1.253727,1.8405151-2.4426003,2.9360619-3.5666275
		c-0.1752853-0.2161598-0.3724823-0.4323235-0.5477715-0.6700935c-0.6135063,0.3674698-1.0736351,0.8646317-1.5775871,1.3617973
		c-0.6792374,0.7133255-1.402298,1.4482727-2.5635796,2.0535202c-1.8186073,0.9727173-3.9877892,1.4050369-6.0035954,1.2104912
		c-1.3803883-0.108078-2.6950436-0.5187874-3.7905903-1.2321053l-0.0219116,0.0864601
		c-0.0438213,0.1296959-0.0876427,0.2810097-0.131464,0.4107018V48.0083923z M44.9393196,45.0686264
		c0.6573296,0.4106941,1.2489243,0.7781715,1.840519,1.0591812c0.503952,0.2377701,1.0298157,0.4106941,1.5994987,0.5187798
		c0.7230606-0.6700935,1.468029-1.4482689,2.1910896-2.2912941c2.5635796-3.0046158,4.7108536-6.6144753,4.8861427-8.6679955
		v-0.0216141c0.5039482-4.6041965-0.7230644-7.4358864-1.9062538-10.2027302
		c-0.2848396-0.6700935-0.5915947-1.3401852-0.8545227-2.0535126c-0.1533775-0.3890877,0.0219078-0.8430233,0.3943901-1.0591812
		c2.5635796-1.6644287,5.6092033-4.3015747,7.8879395-7.2845755c1.7309647-2.2912893,3.0237083-4.7771235,3.2209053-7.1764913
		V7.8027272c0.0876465-0.9294896,0.1095581-2.4642258-0.0438232-3.9341044
		c-3.2647247,1.9886599-5.3243561,3.6747079-6.9019394,5.620141c-1.7090569,2.0751371-3.3304596,4.3015804-4.6012955,7.8033638
		l-0.0438232,2.3561344c0,0.4755554-0.4163055,0.8646374-0.8983459,0.8646374l-0.0219154-0.0216122
		c-2.4978447-0.1080799-5.0614204-0.1729259-7.625-0.1729259c-2.5854912,0-5.1271591,0.064846-7.6250076,0.1945381
		c-0.5039482,0.0216198-0.9202576-0.3674698-0.9421692-0.8430176v-0.0648518l-0.0438194-2.4642143
		c-1.6214104-3.2640123-2.848423-5.6201477-4.5136528-7.6520519c-1.5994968-1.967052-3.6591282-3.6747079-6.9676781-5.6633797
		c-0.197197,1.5131173-0.1533756,3.0910807-0.065731,4.0421896v0.0216193
		c0.197197,2.3993678,1.4680309,4.8852019,3.2209053,7.1764913c2.3006477,3.0046148,5.3681793,5.6417608,7.9317589,7.3061895
		c0.3505745,0.2377758,0.4820366,0.6700974,0.3505745,1.0375671c-0.2629318,0.7133274-0.5696831,1.383419-0.8545265,2.0535126
		c-1.1831894,2.7668438-2.410202,5.5985336-1.90625,10.2027302v0.043232
		c0.2191086,2.1183662,2.410202,5.7930756,5.0395126,8.8193092c0.6573296,0.7565575,1.3584785,1.491497,2.0377197,2.1183624
		c0.5696831-0.1080856,1.0955429-0.2810097,1.5775833-0.5187798c0.6135063-0.2810097,1.205101-0.6484871,1.8624306-1.0591812
		v-0.8862572c-0.2191086,0-0.4382172-0.0432358-0.6354179-0.0648537c-1.1831894-0.1729202-1.9719849-0.6484718-2.3444672-1.2321014
		c-0.241024-0.3458633-0.3286667-0.7349434-0.2848434-1.1240349c0.0438194-0.3674698,0.2191086-0.7133255,0.5258636-1.0375671
		c0.5477715-0.5403938,1.5775871-0.9510956,3.04562-0.9510956h1.1612778c1.468029,0,2.4978447,0.4107018,3.04562,0.9510956
		c0.3067513,0.3242416,0.4820404,0.6700974,0.5258598,1.0375671c0.0438232,0.3890915-0.0438194,0.7781715-0.2848396,1.1240349
		c-0.3943977,0.5836296-1.1612816,1.0591812-2.344471,1.2321014l0,0c-0.197197,0.0432396-0.4163055,0.0648537-0.6354179,0.0864639
		V45.0686264z M46.7360153,48.0083923c-0.2410164-0.0864639-0.4820404-0.1945419-0.701149-0.3026237
		c-0.6573257-0.3026237-1.2927437-0.6700897-1.9938927-1.1240273c-0.6792374,0.4539375-1.3146553,0.8214035-1.9719849,1.1240273
		c-0.2191086,0.1080818-0.4601288,0.2161598-0.6792374,0.3026237c1.0298119,0.7133255,1.9719849,1.1240311,2.7607765,1.1240311
		C44.8735847,49.1108017,45.7719383,48.7000999,46.7360153,48.0083923L46.7360153,48.0083923z M52.7396164,13.2499437
		c0.9859886-1.8589735,1.9281578-3.4369373,3.1332626-4.8635883c1.7966957-2.226449,4.1411591-4.1070361,7.9317513-6.3767118
		c-0.2629318-0.9078586-0.6354141-1.6211902-1.161274-1.9021944c-0.241024-0.1297041-0.5696831-0.1297041-0.9640846-0.0648462
		c-1.3146553,0.2810041-3.0456161,1.5779634-4.754673,3.3937039c-1.4899445,1.5779634-2.9360619,3.5450158-4.1192513,5.5985222
		v0.0432386L52.7396164,13.2499437z M53.221653,31.4505711c0.4163055,0.2593956,0.5258598,0.7997952,0.2629318,1.2104931
		c-0.2629318,0.4107094-0.8107071,0.5187798-1.2270126,0.2593956c-0.7449684-0.4539337-1.4461212-0.6917114-2.1034508-0.6917114
		c-0.6354141,0-1.2489204,0.216156-1.8624268,0.6700935c-0.3724861,0.281002-0.942173,0.216156-1.2489243-0.1729317
		c-0.2848434-0.3890839-0.1972008-0.9510975,0.1752892-1.2321014c0.9202576-0.6917114,1.90625-1.037569,2.9360619-1.037569
		C51.14011,30.4562397,52.1699295,30.8020973,53.221653,31.4505711L53.221653,31.4505711z M36.2406807,32.9204597
		c-0.4163055,0.2593842-0.9640808,0.1513138-1.2270126-0.2593956c-0.262928-0.3890877-0.1533775-0.9510975,0.2629318-1.2104931
		c1.0298119-0.6484737,2.0596275-0.9943314,3.04562-0.9943314c1.0079002,0,1.9719849,0.3458576,2.8922424,1.037569
		c0.3943977,0.3026237,0.4601288,0.8430176,0.1533775,1.2321014c-0.2848434,0.3890877-0.8545303,0.4539337-1.2489243,0.1729317
		c-0.5696831-0.4539375-1.1831894-0.6700935-1.7966957-0.6700935C37.6648903,32.2287483,36.9856529,32.466526,36.2406807,32.9204597
		L36.2406807,32.9204597z M35.3861542,13.0986319l-0.0876427-4.0638027c-1.1831894-2.031899-2.6293106-3.998951-4.119257-5.5985222
		c-1.7309628-1.8157406-3.4400158-3.1126997-4.7546711-3.3937039c-0.3943958-0.0648579-0.7230606-0.0648579-0.9640827,0.0648462
		c-0.5258598,0.2593849-0.8983479,0.9727166-1.1393661,1.8589675c3.8344116,2.2696757,6.1788826,4.1934896,7.9974918,6.4199386
		C33.4799042,9.7913876,34.4001617,11.3045044,35.3861542,13.0986319L35.3861542,13.0986319z M37.1171188,11.3261242
		l0.1314659,7.3710346c2.2787361-0.0864601,4.5574722-0.1513119,6.8143005-0.1513119
		c2.2349129,0,4.513649,0.0648518,6.7923889,0.1513119l0.1314621-7.3710346l-0.3067551,0.3674688
		c-0.7449684,0.8430243-1.4899406,1.6860485-1.971981,2.1399841c-0.503952,0.4755478-0.8983459,0.6700926-1.4242096,0.5620079
		c-0.438221-0.1080732-0.7449722-0.410697-1.0736351-0.9510975l-0.0438232-0.0864649l-2.103447-4.5393515l-2.0815392,4.4745045
		c-0.0219116,0.0432329-0.0438232,0.108079-0.0876465,0.1513119c-0.3286629,0.5404005-0.6135063,0.8430243-1.0736351,0.9510975
		c-0.5258598,0.1080847-0.9202576-0.0864601-1.402298-0.5620079l0,0c-0.503952-0.4539356-1.2489243-1.2969599-1.9719849-2.1399841
		L37.1171188,11.3261242z M45.3118095,42.3882408c0.5915947-0.0864601,0.9421654-0.2593842,1.0955429-0.4323158l0,0
		c-0.2410202-0.2377777-0.8326149-0.4323158-1.7747841-0.4323158h-1.1612778c-0.942173,0-1.5337677,0.1945381-1.7747879,0.4323158
		l0,0c0.1533775,0.1729317,0.503952,0.3458557,1.0955467,0.4323158c0.3724861,0.0648537,0.8107033,0.0864639,1.2489243,0.0864639
		C44.4791908,42.4747047,44.917408,42.4314804,45.3118095,42.3882408L45.3118095,42.3882408z M36.7884521,46.171032
		c-1.4899406,1.5563507-2.7607765,3.2207794-3.8344116,4.9932899c-0.2629318,0.4539337-0.5258636,0.9078674-0.76688,1.383419
		v0.0216179c-0.8764381,1.7076569-1.577589,3.4153175-2.1253624,5.2526703
		c-0.6135063,2.1399841-1.0079021,4.2367287-1.0736351,6.3118591c-0.0438232,2.0751343,0.2191105,4.1502609,0.8983479,6.2470169
		c1.0955467,3.3072357,3.2209072,5.7498398,5.8283062,7.3494186c0.0657349,0.0432358,0.1533775,0.108078,0.241024,0.1513138
		c0.1314621,0.0432281,0.262928,0.108078,0.3724823,0.216156C38.6508827,79.3731308,41.3240166,80,43.9971504,80
		c2.6950455,0,5.3900871-0.6484833,7.7345581-1.9238205c0.0876465-0.0864639,0.1752853-0.1513138,0.3067551-0.1729279
		c0.0876465-0.0648499,0.1752853-0.108078,0.262928-0.1729279c2.6074028-1.5995789,4.7108536-4.0421829,5.8063965-7.3494186
		c0.7011528-2.096756,0.9640846-4.1718826,0.8983536-6.2470169c-0.065731-2.0751305-0.4601326-4.171875-1.0736389-6.3118591
		c-0.5477753-1.8805847-1.2927437-3.6747055-2.1910934-5.4039841c-0.2191086-0.4323196-0.4601288-0.8430214-0.7011528-1.2537231
		c-1.0517197-1.7508965-2.3225555-3.3937073-3.7686768-4.9500542c-2.3882942,2.6155319-5.0614243,4.6258163-7.0991402,4.6690407
		C42.0251656,50.9265442,39.2424774,48.8730316,36.7884521,46.171032L36.7884521,46.171032z M19.6321945,54.2986336
		c0.0219116,1.1888733,0.3286648,2.3561363,1.2489243,3.8260193c2.1691818,0.5404015,4.3602753,1.5131187,6.2007942,2.9181557
		c0.131464,0.108078,0.2629299,0.1945457,0.3724842,0.3026237c0.1752872-1.167263,0.4382172-2.3345222,0.7668819-3.5017815
		c-0.9421711-0.8862572-1.6433182-1.6428185-2.1910915-2.3345222c-0.6792393,0.0216103-1.3365688,0.0216103-2.0158062-0.0432358
		C22.5463486,55.3145828,21.0783157,54.9038811,19.6321945,54.2986336L19.6321945,54.2986336z M28.1117268,55.2065048
		c0.1971951,0.2377701,0.4382172,0.4755478,0.6792374,0.7349396c0.131464-0.3458557,0.2410221-0.6917076,0.3724861-1.0375633
		C28.8128738,55.0335732,28.4622993,55.1200371,28.1117268,55.2065048L28.1117268,55.2065048z M73.6645508,39.6430206
		c0.3724899,0,0.7449722,0.0216141,1.0955505,0.0216141c0.2848434,0.0216141,0.5696793,0.0216141,1.029808,0.0216141h2.4321213
		l0.8326111-0.6268616c0.3286591-0.259388,0.4163055-0.6484795,0.3067551-1.0159492
		c-0.0438232-0.1729279-0.1314697-0.3242416-0.2410202-0.4755516c-0.1314697-0.1513138-0.2848511-0.2810059-0.4382248-0.3674698
		c-0.4820404-0.2377777-1.1612778-0.2161598-1.928154,0.3458557l-0.0438232,0.0216141
		C75.8118286,38.1731339,74.7601013,38.9080772,73.6645508,39.6430206L73.6645508,39.6430206z M70.1587982,42.064003
		l-0.219101,0.1513138c-0.8326187,0.5836334-1.2927475,1.469883-1.4680405,2.4426003
		c-0.1533737,0.9294891-0.021904,1.9454384,0.3286667,2.9397697v0.0216179
		c0.1095581,0.2593918,0.2191086,0.4971695,0.3505783,0.7565575l0.0876389,0.1729279
		c0.2629318,0.4971657,0.5477753,0.8862534,0.8326187,1.2321129c0.0438156,0.064846,0.1095581,0.1296921,0.1533813,0.172924l0,0
		l0.021904,0.0216141c0.1752853,0.1945419,0.3724899,0.3674736,0.5696869,0.4971657
		c0.525856,0.3890915,1.1174545,0.5836334,1.7747879,0.7133255c0.7887878,0.1296997,2.1910858,0.1729317,3.5495682,0.1296997
		c1.1393661-0.0216141,2.2349091-0.15131,2.8703308-0.3458557c1.1393661-0.3674698,2.0596313-0.8862495,2.8046036-1.5779648
		c0.7449646-0.6700935,1.3365631-1.5131149,1.7747803-2.4858322l0,0c0.2191086-0.4755478,0.3505783-0.9294853,0.3724823-1.2969589
		c0.0657425-0.4971695,0-0.8862572-0.1752853-1.1888809c-0.1314621-0.2593842-0.3286591-0.4539337-0.5696793-0.5620079
		c-0.1095581-0.064846-0.2410202-0.0864677-0.3505783-0.1080856c-0.3286591-0.0216141-0.5696793,0.0432396-0.7449646,0.1945496
		c-0.2191162,0.2161598-0.4163132,0.5620079-0.5696945,1.0159454c-0.4382095,1.2753372-1.0736313,2.2264481-1.9719772,2.8533096
		c-0.8983536,0.6484795-2.0158081,0.9294815-3.4181061,0.9294815c-0.4820404,0-0.876442-0.3890877-0.876442-0.8862495
		c0-0.4755554,0.3944016-0.8646431,0.8983536-0.8646431c1.0078964,0,1.7747803-0.1945381,2.3663788-0.6052475
		c0.2848358-0.1945381,0.5477753-0.4755478,0.7668839-0.8214035h-0.6573257c-0.4820404,0-0.8983459-0.3890915-0.8983459-0.8862534
		c0-0.4755554,0.4163055-0.8646355,0.8983459-0.8646355h1.4461136c0.2191162-0.4755516,0.482048-0.8646393,0.8326187-1.1888809
		c0.5477753-0.4755478,1.2270126-0.7133255,2.103447-0.6268616c0.3286667,0.043232,0.6354218,0.1296997,0.9202576,0.2593918l0,0
		c0.5915985,0.2593918,1.0955505,0.7349396,1.4242172,1.361805c0.0438232,0.0864639,0.0876465,0.1945457,0.1314621,0.3026237
		H87.03022c0.4601288-0.0864639,0.7668839-0.3890877,0.8764343-0.7781792
		c0.0657349-0.172924,0.1095581-0.3890839,0.0876465-0.5836258l0,0c-0.0219116-0.1945457-0.0657272-0.3890915-0.1533737-0.5620155
		c-0.1752853-0.3242378-0.503952-0.5620117-1.0298157-0.5620117h-0.0219116H75.7899094
		c-0.2191086,0-0.6354141,0-1.0736313-0.0216217c-1.5118561-0.0216141-3.1770859-0.064846-4.316452,0.5187836l-0.0657349,0.0216179
		C70.2683563,41.999157,70.2245407,42.020771,70.1587982,42.064003L70.1587982,42.064003z M87.0740433,45.6738701h-1.3146591
		l-0.0219116,0.1080742c-0.0657272,0.5836334-0.2191086,1.210495-0.525856,1.8589783l0,0
		c-0.1095581,0.2377739-0.2191086,0.4539299-0.3505783,0.6700935h1.5775909l0.021904,0.0216141
		c0.7230606,0,1.1393661-0.3026237,1.3146591-0.6917076c0.0876389-0.1945496,0.1095581-0.3890877,0.1314621-0.5836334
		c0-0.2161636-0.021904-0.4323196-0.0876389-0.6268578C87.6875458,46.019722,87.424614,45.7170982,87.0740433,45.6738701
		L87.0740433,45.6738701z M30.8067703,64.5662079c-0.4163074-0.2593842-0.5477715-0.7997894-0.2848415-1.2104912
		s0.8107014-0.5404015,1.2270126-0.2810097c4.0973415,2.5074539,8.194685,3.8260269,12.248209,3.8692551
		c4.0754318,0.0216141,8.1508675-1.2321091,12.2263031-3.8692551c0.4163055-0.2593918,0.964077-0.15131,1.2489204,0.2593918
		c0.2629318,0.4107018,0.1533775,0.9511032-0.2629318,1.210495c-4.3821869,2.8316879-8.7862816,4.1718826-13.2122917,4.1502609
		C39.5930557,68.651619,35.1889572,67.2465897,30.8067703,64.5662079L30.8067703,64.5662079z M60.7151909,62.966629
		c0.0438232,0.3674698,0.065731,0.7349434,0.065731,1.1240311c0.0657387,2.2696686-0.2191086,4.5393448-0.9859924,6.8306351
		c-0.9421654,2.8965378-2.5854874,5.1878357-4.6451111,6.9171066h13.9791718
		c0.9421692-0.1945419,0.8983459-1.2753372,0.8764343-2.2912903c-0.0219116-0.3026199-0.0438232-0.5836334-0.0438232-0.7781754
		c0-0.4971695,0.4163132-0.8862534,0.8983536-0.8862534c0.503952,0,0.8983459,0.3890839,0.8983459,0.8862534
		c0,0.2810135,0,0.4971695,0.0219116,0.7133255c0.0219116,0.8214111,0.0657349,1.6644287-0.1533737,2.3561401h2.4540253
		c0.9421616-0.1945419,0.8983459-1.2753372,0.8545227-2.2912903c-0.0219116-0.3026199-0.0219116-0.5836334-0.0219116-0.7781754
		c0-0.4971695,0.3944016-0.8862534,0.8764343-0.8862534c0.503952,0,0.8983536,0.3890839,0.8983536,0.8862534
		c0,0.2810135,0,0.4971695,0.0219116,0.7133255c0.021904,0.8214111,0.0657272,1.6644287-0.1533813,2.3561401h1.3584824v0.0216141
		c0.9640732-0.0432281,1.5994949-0.7133255,1.8843384-1.5995789c0.1533737-0.4323196,0.197197-0.9078674,0.1752853-1.4050369
		c-0.0219116-0.4755478-0.1533737-0.9511032-0.3505707-1.3834152c-0.482048-1.0591812-1.5118561-1.8373642-3.1551819-1.7509003
		l-0.0438232,0.0216141H64.2428513c-0.503952,0-0.8983498-0.4106979-0.8983498-0.8862457
		c0-0.4971695,0.3943977-0.886261,0.8983498-0.886261h7.3620682c1.9500809-1.7941208,3.0675354-3.4585495,3.5495758-4.9068146
		c0.503952-1.5563469,0.2629318-2.8316879-0.4820404-3.7827911c-0.1314621-0.1729317-0.2848434-0.3458557-0.4601288-0.4971695
		c-1.2708282-1.1672592-3.308548-1.6211967-5.5434647-1.426651c-2.3006516,0.1945457-4.7984924,1.0807953-6.8362122,2.637146
		C61.4382515,62.2965355,61.0657654,62.6207733,60.7151909,62.966629L60.7151909,62.966629z M32.8444862,77.8384018
		c-2.0377159-1.7292709-3.681036-4.0205688-4.6451187-6.9171066c-0.7668819-2.2912903-1.0517235-4.5609665-0.9859905-6.8306351
		c0-0.1945496,0.0219116-0.3674736,0.0219116-0.5620193c-0.3943977-0.3890877-0.8107052-0.7565575-1.2489243-1.1024132
		c-2.1253605-1.599575-4.7546711-2.593914-7.2086945-2.8749161c-2.3663826-0.2810097-4.5136538,0.1296921-5.7844877,1.275341
		c-0.1533766,0.1296921-0.2848425,0.281002-0.4163074,0.4539337c-0.7449713,0.9511032-0.9859915,2.2264442-0.4820414,3.7827911
		c0.4820414,1.4482651,1.5994987,3.1126938,3.549572,4.9068146h7.362072c0.4820423,0,0.8983498,0.3890915,0.8983498,0.886261
		c0,0.4755478-0.4163074,0.8862457-0.8983498,0.8862457h-12.182477l-0.0438213-0.0216141
		c-1.643321-0.0864639-2.6731339,0.6917191-3.1551752,1.7509003c-0.2191091,0.432312-0.3286638,0.9078674-0.350574,1.3834152
		C7.2525182,75.3525696,7.29634,75.8281174,7.4497166,76.260437c0.284842,0.8862534,0.9202595,1.5563507,1.8843403,1.5995789
		v-0.0216141h1.3584776c-0.2191086-0.6917114-0.1752872-1.534729-0.1533766-2.3561401
		c0-0.216156,0.0219107-0.432312,0.0219107-0.7133255c0-0.4971695,0.3943977-0.8862534,0.8983488-0.8862534
		c0.4820395,0,0.8764372,0.3890839,0.8764372,0.8862534c0,0.1945419,0,0.4755554-0.0219116,0.7781754
		c-0.0438213,1.0159531-0.0876427,2.0967484,0.8545265,2.2912903h2.4540243
		c-0.2191095-0.6917114-0.1752863-1.534729-0.1533766-2.3561401c0.0219116-0.216156,0.0219116-0.432312,0.0219116-0.7133255
		c0-0.4971695,0.3943968-0.8862534,0.8983469-0.8862534c0.4820423,0,0.8983498,0.3890839,0.8983498,0.8862534
		c0,0.1945419-0.0219116,0.4755554-0.0438213,0.7781754c-0.0438232,1.0159531-0.0876446,2.0967484,0.8764362,2.2912903H32.8444862z"
		/>
</g>
</svg>
