<?xml version="1.0" encoding="utf-8"?>
<!-- Generator: Adobe Illustrator 21.1.0, SVG Export Plug-In . SVG Version: 6.00 Build 0)  -->
<svg version="1.1" id="Layer_1" xmlns="http://www.w3.org/2000/svg" xmlns:xlink="http://www.w3.org/1999/xlink" x="0px" y="0px"
	 viewBox="0 0 106.4415207 23.0343857" style="enable-background:new 0 0 106.4415207 23.0343857;" xml:space="preserve">
<style type="text/css">
	.st0{fill-rule:evenodd;clip-rule:evenodd;fill:#FFFFFF;}
</style>
<g>
	<path class="st0" d="M25.8236256,21.7605839c0.8220463-1.3889771,0.3118114-12.4157515,0.3401566-14.9102383
		c1.1905518,0.5952759,3.9401588,4.8472438,5.0456696,6.4346461c0.8503971,1.1905518,6.3212643,8.5039377,6.9165401,8.7874022
		c0.4818878,0.2267723,3.3165359,0.3968506,3.6566925-0.0850391c0.3685036-0.7937012,0.1417313-19.1905518-0.1984253-19.8141747
		l-2.5511818-0.0850391c-0.028347,0.028347-0.1133842,0.056694-0.1700783,0.0850391l-0.085041,13.1527576
		c-0.9921227-0.708662-5.6976357-7.0015755-6.8598423-8.4755917c-1.1338596-1.4740143-2.2677174-2.8629916-3.37323-4.2803154
		c-0.651968-0.8220462-0.8220482-1.3039359-2.3244095-1.417322c-0.9921265-0.0566921-2.8629932-0.1133862-3.7984257,0
		c-0.4251976,1.3606299-0.1417332,9.8929138-0.1417332,12.018898l-0.0566921,7.5401583
		c0.0283451,0.9637814-0.1700783,0.8787403,0.5102367,1.1055126C23.3291359,22.0440483,25.2283497,21.9590092,25.8236256,21.7605839
		L25.8236256,21.7605839z M16.044096,4.7243609c0.6236229,0.056694,1.1905518,0.056694,1.8425198,0.056694
		c0.4535446,0.0283451,1.4173241,0.0566921,1.6440945-0.2834663c0.3118114-0.9354327,0.2267723-2.6078739-0.1133842-3.5716534
		c-0.9070873-0.1700783-2.6078758-0.2551174-3.4582691,0C15.7889786,2.1731789,15.7889786,3.590503,16.044096,4.7243609
		L16.044096,4.7243609z M16.8094501,22.6393242c3.9401588,0.5385818,3.3165359,0.3118095,3.2314968-3.8834648
		c-0.0566921-4.1385851,0-7.9653559-0.3685036-12.1322861h-3.3732281c-0.2551193,2.5228343,0.0850391,5.5559077,0.1700783,8.1070881
		C16.5543327,17.196804,16.4409466,20.3432598,16.8094501,22.6393242L16.8094501,22.6393242z M92.8346558,1.7763284
		c-0.0566864,6.8881907-1.6724396,19.7007904,6.3779602,20.2960644c4.4787369,0.3401585,6.5196838-2.7779522,6.9165344-6.7464571
		c0.3401566-3.3732281,0.4251938-9.5244102,0.1417313-12.9259853l-3.1464539-0.6236228
		c0-0.0283451-0.0850449,0.028347-0.1417389,0.056694c-0.8787384,3.4299202,1.6440964,16.667717-3.1464539,16.5259857
		c-4.2803192-0.1417332-2.8062973-13.0110245-3.2031479-16.3842545C95.6126099,1.8046755,93.9401703,1.6062502,92.8346558,1.7763284
		L92.8346558,1.7763284z M72.8504028,1.8330225c-0.6519699,2.5511818,0.6519699,11.8771667-1.0204697,15.1370096
		c-1.2472458,2.4661427-3.5716553,1.5307083-4.3936996-1.0204725c-1.2755966-3.968504-0.9070892-9.7228355-0.878746-13.9748058
		c-1.0771637-0.1700783-2.7496033-0.3685036-3.855114-0.1984253c-0.056694,6.8598437-1.6440964,19.7291355,6.3779488,20.2960644
		c4.3937073,0.3118114,6.4913406-2.664566,6.9165421-6.5196848c0.3401566-3.344883,0.4251938-9.7795296,0.1417313-13.1527576
		C75.4866257,2.2015259,73.58741,1.492864,72.8504028,1.8330225L72.8504028,1.8330225z M0,16.0629444v5.5559063
		c1.0488189,0.3118114,2.9196854,0.2551174,4.2803154,0.2267723v-8.8157511
		c0.8787403,0.2551193,2.5228348,3.4015779,3.0330715,4.2803164c0.8787403,1.4456711,1.984252,3.2314968,2.6929131,4.5354347
		c1.3039379,0.1700783,3.0897646,0.1984253,4.3653555-0.0850391c-0.0850391-1.36063-5.8960638-9.2692938-6.5763788-10.5165377
		c0.4251966-0.7937012,1.2188978-1.6440945,1.7858267-2.3811016c1.0204725-1.3039374,4.4787407-6.066143,4.8755913-7.086616
		c-1.332284-0.3118095-2.8913393-0.5669289-4.4220476-0.5385818C9.354332,1.492864,6.2362213,6.9353862,5.1874022,8.3243608
		C5.0740161,8.466094,4.9606304,8.6361723,4.8472447,8.7495565c-0.0283465,0.056694-0.0850396,0.085041-0.1133862,0.1133881
		L4.4787407,9.089715C4.4503942,9.0330229,4.3937011,9.1464071,4.3653545,9.1747541L4.3086619,0.9542822
		C3.2314963,0.4440454,1.8141736,0.6141237,0.5669292,0.6141237L0,16.0629444z M82.1480408,3.6755421
		c2.1259842,0.1984253,4.762207,0.5952761,4.5354385,2.6929133c-0.1700821,1.8708663-2.2960663,3.2314963-4.4787445,2.6362205
		L82.1480408,3.6755421z M78.8031616,0.2739671c-0.3401566,0.8503933-0.4535446,19.5023632-0.2267685,21.37323
		c1.0204697,0.2267704,2.0976334,0.1417313,3.2314911,0.0566921l0.1417313-9.382678
		c0.4535446,0.2551193,0.1984253,0.056694,0.6236267,0.4535427c2.0976334,2.0409451,4.9889755,8.078742,6.4062958,9.6377974
		l4.1669312-0.028347c0.0850372-1.0771656-5.7259827-9.1275606-6.6897659-10.6582689
		c1.5590591-1.0771656,3.2031555-1.5023613,4.0818939-3.0330696c0.9921265-1.700788,0.6803131-4.0251975-0.5102386-5.385828
		C88.2708817,1.2660936,82.9133987-0.7465063,78.8031616,0.2739671L78.8031616,0.2739671z M51.8173294,11.2157011
		c-0.1133842,0.7370071-0.3118095,2.1259842,0,2.8913383c1.0771675,0.3968506,3.9968529,0.1417313,4.9889793,0.3401566
		c0.056694,0,0.1133842,0.028347,0.1417313,0.028347c0.056694,0,0.1133881,0.028347,0.1417313,0.0566921
		c0.5952759,0.1417332,0.3685074,3.7984266,0.2551193,3.9401598c-2.0125999,1.36063-5.5842514,0.3685036-7.1433067-0.8503952
		c-1.7291336-1.3889751-2.5795288-4.4787397-2.2393723-7.1433077c0.3401604-2.5511813,1.7858276-4.8472438,3.458271-5.7826781
		c3.7700768-2.0976374,4.9322815,0.9637794,7.285038,1.2188988c0.3685036-0.8787403,1.1338577-2.1543314,1.1055107-3.2881892
		c-1.4740143-1.1055125-5.0740166-2.3811035-7.5685043-2.1543312c-3.1748009,0.2834645-4.9606285,1.7291335-6.1795273,3.5149612
		c-3.9118118,5.6976376-2.8629913,17.2346458,6.009449,18.7653542c1.8708687,0.3401585,7.9653549,0.680315,8.5322838-0.9637794
		c0.2267723-0.623621,0.1700821-8.4472437,0.028347-9.382678c-0.2551155-1.7574806-2.0409431-1.1905499-3.7984238-1.2188969
		C55.4456787,11.1873541,53.1212692,11.0456209,51.8173294,11.2157011L51.8173294,11.2157011z"/>
</g>
</svg>
