<?xml version="1.0" encoding="utf-8"?>
<!-- Generator: Adobe Illustrator 21.1.0, SVG Export Plug-In . SVG Version: 6.00 Build 0)  -->
<svg version="1.1" id="Layer_1" xmlns="http://www.w3.org/2000/svg" xmlns:xlink="http://www.w3.org/1999/xlink" x="0px" y="0px"
	 viewBox="0 0 91 21" style="enable-background:new 0 0 91 21;" xml:space="preserve">
<style type="text/css">
	.st0{fill-rule:evenodd;clip-rule:evenodd;fill:#FFFFFF;}
</style>
<g>
	<path class="st0" d="M22.0773811,19.8386993c0.7027912-1.266304,0.2665768-11.3191977,0.2908096-13.5933733
		c1.0178375,0.5427012,3.3685589,4.419138,4.3136921,5.8663416c0.7270279,1.0854034,5.4042339,7.7528744,5.9131527,8.0113029
		c0.4119797,0.2067432,2.8354034,0.3618011,3.1262131-0.0775299c0.3150444-0.7236004,0.12117-17.4956512-0.1696396-18.0641956
		l-2.1810799-0.0775285c-0.0242348,0.0258434-0.0969353,0.0516868-0.1454048,0.0775285L33.15242,13.9723577
		c-0.8481941-0.6460733-4.8710766-6.3832002-5.8646793-7.7270317c-0.9693699-1.3438301-1.9387398-2.6101334-2.8838749-3.9022801
		c-0.5573864-0.7494437-0.7027931-1.1887732-1.9872055-1.292145c-0.8481979-0.0516852-2.4476585-0.103372-3.2473869,0
		c-0.3635139,1.2404599-0.121172,9.0191765-0.121172,10.9573956l-0.0484676,6.8742151
		c0.0242329,0.8786602-0.1454048,0.8011303,0.4362164,1.0078735C19.944767,20.0971279,21.5684624,20.0195999,22.0773811,19.8386993
		L22.0773811,19.8386993z M13.7165718,4.3071074c0.5331535,0.0516872,1.0178375,0.0516872,1.5752249,0.0516872
		c0.3877487,0.0258412,1.2117128,0.0516849,1.4055853-0.258431c0.2665768-0.8528156,0.1938744-2.3775477-0.0969353-3.2562068
		c-0.7754965-0.155057-2.2295513-0.2325855-2.9565773,0C13.4984646,1.9812449,13.4984646,3.2733917,13.7165718,4.3071074
		L13.7165718,4.3071074z M14.3708954,20.6398296c3.3685589,0.4910145,2.8354053,0.2842712,2.7627029-3.5404797
		c-0.0484676-3.7730656,0-7.261858-0.3150444-11.0607681h-2.883873c-0.2181091,2.3000193,0.0727024,5.0652132,0.1454048,7.3910742
		C14.1527882,15.67799,14.055851,18.5465527,14.3708954,20.6398296L14.3708954,20.6398296z M79.3670883,1.619444
		c-0.0484619,6.2798295-1.4298172,17.9608269,5.4527054,18.5035267c3.82901,0.3101158,5.5738754-2.5326061,5.9131546-6.1506128
		c0.2908096-3.0753069,0.3635101-8.6832199,0.12117-11.7843685L88.1641159,1.619444
		c0-0.0258417-0.0727005,0.0258434-0.12117,0.0516868c-0.7512665,3.1269917,1.4055862,15.1956329-2.6900024,15.0664177
		c-3.6593704-0.1292152-2.3991852-11.8618965-2.7384644-14.9372044C81.7420425,1.6452874,80.3122253,1.4643869,79.3670883,1.619444
		L79.3670883,1.619444z M62.2819595,1.6711308c-0.5573883,2.3258629,0.5573883,10.8281813-0.8724289,13.8001156
		c-1.0663071,2.248333-3.0535126,1.3955173-3.7563019-0.9303446c-1.0905457-3.6180077-0.7754974-8.8641186-0.7512665-12.7405577
		c-0.9208984-0.1550571-2.3507195-0.3359575-3.2958527-0.1809005c-0.0484695,6.2539864-1.4055862,17.9866676,5.4526978,18.5035267
		c3.7563095,0.2842712,5.5496368-2.4292336,5.9131546-5.9438686c0.2908096-3.0494652,0.3635101-8.9158068,0.12117-11.9911137
		C64.5357437,2.0070884,62.9120483,1.361015,62.2819595,1.6711308L62.2819595,1.6711308z M0,14.6442728v5.0652113
		c0.8966663,0.2842731,2.4961255,0.2325859,3.6593683,0.2067432v-8.0371466
		c0.751261,0.2325869,2.1568458,3.1011515,2.5930626,3.9022799c0.7512608,1.3179893,1.6963954,2.9460926,2.3022509,4.1348667
		c1.1147747,0.1550579,2.641531,0.1809006,3.7320709-0.077528c-0.0727024-1.2404594-5.040719-8.450633-5.6223402-9.5877218
		c0.363513-0.7236013,1.0420718-1.498888,1.5267563-2.1708031c0.8724318-1.1887751,3.8290071-5.530385,4.1682863-6.4607306
		c-1.1390085-0.2842706-2.4718914-0.516858-3.7805386-0.4910146c-0.5816216,0.2325855-3.2473865,5.194427-4.144053,6.4607282
		C4.3379264,7.7183733,4.2409897,7.8734303,4.144053,7.9768004c-0.0242343,0.0516868-0.0727029,0.0775304-0.0969372,0.103374
		L3.8290079,8.2869158C3.8047736,8.2352314,3.756305,8.3386011,3.7320707,8.3644447L3.6836026,0.8700004
		c-0.9209008-0.4651729-2.132612-0.3101158-3.1989181-0.3101158L0,14.6442728z M70.2307892,3.3509202
		c1.8175659,0.1809003,4.0713501,0.5427015,3.8774796,2.4550762c-0.1454086,1.7056327-1.9629745,2.9460931-3.82901,2.4033914
		L70.2307892,3.3509202z M67.3711472,0.2497705c-0.2908096,0.7752869-0.3877487,17.7799244-0.1938705,19.4855556
		c0.8724289,0.2067432,1.7933273,0.1292152,2.7627029,0.0516853l0.12117-8.5540037
		c0.3877487,0.2325878,0.1696396,0.0516872,0.5331573,0.4134865c1.7933273,1.8606901,4.2652206,7.3652315,5.4769287,8.7865915
		l3.5624313-0.0258446c0.0727005-0.9820309-4.8953094-8.3214178-5.7192764-9.7169342
		c1.3328857-0.9820309,2.738472-1.3696737,3.4897308-2.7651906c0.8481979-1.5505757,0.5816193-3.6696944-0.4362183-4.9101543
		C75.4653854,1.1542728,70.8851166-0.6805753,67.3711472,0.2497705L67.3711472,0.2497705z M44.3001633,10.2251368
		c-0.0969353,0.6719141-0.2665749,1.9382181,0,2.6359768c0.9209023,0.3618002,3.4170303,0.1292133,4.2652283,0.3101139
		c0.0484695,0,0.0969353,0.0258436,0.12117,0.0258436c0.0484695,0,0.0969391,0.0258427,0.12117,0.0516844
		c0.5089188,0.1292152,0.3150482,3.4629507,0.2181091,3.5921659c-1.7206306,1.2404594-4.7741432,0.3359585-6.1070251-0.7752876
		c-1.4782867-1.2663021-2.2053146-4.0831795-1.914505-6.512414c0.2908134-2.3258629,1.5267563-4.4191384,2.9565773-5.2719555
		c3.2231522-1.912375,4.2167549,0.8786588,6.2281952,1.1112461c0.3150444-0.8011303,0.969368-1.9640617,0.9451332-2.9977777
		c-1.2601776-1.0078743-4.337925-2.1708057-6.4705391-1.9640617C41.9494476,0.6891,40.4226913,2.0070884,39.380619,3.6351926
		c-3.344326,5.1944246-2.4476585,15.7124901,5.1376534,17.1080074c1.5994606,0.3101158,6.8098183,0.6202297,7.2945023-0.8786583
		c0.1938744-0.5685444,0.1454086-7.7011871,0.0242348-8.5540047c-0.2181053-1.6022606-1.7448616-1.0854006-3.2473831-1.1112442
		C47.4021492,10.1992931,45.4149399,10.0700779,44.3001633,10.2251368L44.3001633,10.2251368z"/>
</g>
</svg>
