<?xml version="1.0" encoding="utf-8"?>
<!-- Generator: Adobe Illustrator 21.1.0, SVG Export Plug-In . SVG Version: 6.00 Build 0)  -->
<svg version="1.1" id="Layer_1" xmlns="http://www.w3.org/2000/svg" xmlns:xlink="http://www.w3.org/1999/xlink" x="0px" y="0px"
	 viewBox="0 0 18 21" style="enable-background:new 0 0 18 21;" xml:space="preserve">
<style type="text/css">
	.st0{fill:#DADADA;}
</style>
<g id="_1">
	<path id="logout_account_exit_door" class="st0" d="M18,0.75v19.5c0,0.4142132-0.3502979,0.75-0.7824116,0.75H1.5693593
		c-0.4321139,0-0.7824115-0.3357868-0.7824115-0.75v-1.5h1.564823v0.75h14.0834064v-18H2.3517709v2.25h-1.564823v-3
		c0-0.4142135,0.3502976-0.75,0.7824115-0.75h15.6482296C17.6497021,0,18,0.3357865,18,0.75z M5.2545176,13.7175007L2.6725593,11.25
		h8.285738v-1.5h-8.285738l2.5819583-2.4674997L4.1434932,6.2174997l-3.9120574,3.75
		c-0.3068008,0.2916899-0.3088315,0.7665606-0.0045359,1.0606508c0.0015058,0.0014563,0.0030179,0.0029049,0.0045359,0.0043488
		l3.9120574,3.75L5.2545176,13.7175007z"/>
</g>
</svg>
