<?xml version="1.0" encoding="utf-8"?>
<!-- Generator: Adobe Illustrator 21.1.0, SVG Export Plug-In . SVG Version: 6.00 Build 0)  -->
<svg version="1.1" id="Layer_1" xmlns="http://www.w3.org/2000/svg" xmlns:xlink="http://www.w3.org/1999/xlink" x="0px" y="0px"
	 viewBox="0 0 22 14" style="enable-background:new 0 0 22 14;" xml:space="preserve">
<style type="text/css">
	.st0{fill:#DADADA;}
</style>
<path class="st0" d="M20.063652,1.9923609c-0.1702538-0.2065982-0.4933243-0.2491652-0.7215977-0.0950762
	c-0.0000916,0.0000622-0.000185,0.0001249-0.0002766,0.0001872l-8.3170319,5.6186662
	c-0.0611115,0.041482-0.1451387,0.041482-0.2062502,0L2.6647458,1.872583
	C2.4383523,1.7162253,2.114773,1.7555743,1.9420115,1.9604717S1.8127272,2.458225,2.0391207,2.6145828L8.450058,7.0525832
	l-6.3404684,4.3244452c-0.2297157,0.1550684-0.2770406,0.4493179-0.1057029,0.6572218s0.4964559,0.2507353,0.7261717,0.0956659l0,0
	L9.3008394,7.640583l0.8903131,0.6222219c0.4265194,0.2954826,1.0177822,0.2992907,1.4489059,0.0093336l0.9350004-0.6315556
	l6.6481237,4.4893332c0.2282925,0.1542101,0.551487,0.1117277,0.7218742-0.0948887s0.1234493-0.4991236-0.1048431-0.6533327l0,0
	l-6.4040623-4.3306675l6.5226574-4.4099998C20.1839333,2.4871681,20.2306499,2.1981349,20.063652,1.9923609z"/>
<path class="st0" d="M19.421875,0H2.578125C1.1542659,0,0,1.0446689,0,2.3333333v9.333334C0,12.9553308,1.1542659,14,2.578125,14
	l0,0h16.84375C20.8457336,14,22,12.9553308,22,11.666667l0,0v-9.333334C22,1.0446689,20.8457336,0,19.421875,0z M20.96875,11.666667
	c0,0.7731991-0.6925583,1.3999996-1.546875,1.3999996H2.578125c-0.8543155,0-1.546875-0.6268005-1.546875-1.3999996v-9.333334
	c0-0.7731985,0.6925595-1.3999999,1.546875-1.3999999h16.84375c0.8543167,0,1.546875,0.6268014,1.546875,1.3999999V11.666667z"/>
</svg>
