<?xml version="1.0" encoding="utf-8"?>
<!-- Generator: Adobe Illustrator 21.1.0, SVG Export Plug-In . SVG Version: 6.00 Build 0)  -->
<svg version="1.1" id="Layer_1" xmlns="http://www.w3.org/2000/svg" xmlns:xlink="http://www.w3.org/1999/xlink" x="0px" y="0px"
	 viewBox="0 0 17 24" style="enable-background:new 0 0 17 24;" xml:space="preserve">
<style type="text/css">
	.st0{fill:#FFD800;}
</style>
<g>
	<path class="st0" d="M8.5141726,20.8157482c-4.705512,0-8.5039377-3.5716553-8.5039377-7.9937019
		C0.0102347,12.3685036,0.4070852,12,0.8606285,12c0.4818898,0,0.8503939,0.3685036,0.8503939,0.8220463
		c0,3.5149612,3.033071,6.3779526,6.8031502,6.3779526c3.7417326,0,6.8031511-2.8629913,6.8031511-6.3779526
		C15.3173237,12.3685036,15.6858273,12,16.167717,12c0.4535427,0,0.8503933,0.3685036,0.8503933,0.8220463
		C17.0181103,17.2440929,13.2196856,20.8157482,8.5141726,20.8157482L8.5141726,20.8157482z"/>
	<path class="st0" d="M8.5141726,24.018898c-0.4818897,0-0.8503933-0.3685055-0.8503933-0.7937012V20.022047
		c0-0.4535446,0.3685036-0.8220482,0.8503933-0.8220482s0.8503942,0.3685036,0.8503942,0.8220482v3.2031498
		C9.3645668,23.6503925,8.9960623,24.018898,8.5141726,24.018898L8.5141726,24.018898z"/>
	<path class="st0" d="M8.5141726,1.6251945c-1.8708663,0-3.4015751,1.4173241-3.4015751,3.1748047v8.022047
		c0,1.7574806,1.5307088,3.2031498,3.4015751,3.2031498s3.4015751-1.4456692,3.4015751-3.2031498v-8.022047
		C11.9157476,3.0425186,10.3850393,1.6251945,8.5141726,1.6251945L8.5141726,1.6251945z M8.5141726,17.6125984
		c-2.8062992,0-5.1023626-2.1543312-5.1023626-4.7905521v-8.022047c0-2.6362209,2.2960634-4.790554,5.1023626-4.790554
		s5.1023636,2.1543331,5.1023636,4.790554v8.022047C13.6165361,15.4582672,11.3204727,17.6125984,8.5141726,17.6125984
		L8.5141726,17.6125984z"/>
</g>
</svg>
