<?xml version="1.0" encoding="utf-8"?>
<!-- Generator: Adobe Illustrator 21.1.0, SVG Export Plug-In . SVG Version: 6.00 Build 0)  -->
<svg version="1.1" id="Layer_1" xmlns="http://www.w3.org/2000/svg" xmlns:xlink="http://www.w3.org/1999/xlink" x="0px" y="0px"
	 viewBox="0 0 16 25" style="enable-background:new 0 0 16 25;" xml:space="preserve">
<style type="text/css">
	.st0{fill-rule:evenodd;clip-rule:evenodd;fill:#DFDFDF;}
</style>
<g>
	<path class="st0" d="M13.5348845,25H2.465116C1.0930232,25,0,23.9288979,0,22.584322V2.4156806C0,1.0711056,1.0930232,0,2.465116,0
		h11.0697689C14.9069757,0,16,1.0711056,16,2.4156806v20.168642C16,23.9288979,14.9069757,25,13.5348845,25L13.5348845,25z
		 M14.7674408,2.4156806c0-0.6608942-0.5581388-1.2078389-1.2325563-1.2078389H2.465116
		c-0.6744184,0-1.2325579,0.5469447-1.2325579,1.2078389v2.4156806h13.5348825V2.4156806z M14.7674408,6.0391998H1.2325581
		V18.983593h13.5348825V6.0391998z M14.7674408,20.191431H1.2325581v2.3928909c0,0.6836834,0.5581394,1.20784,1.2325579,1.20784
		h11.0697689c0.6744175,0,1.2325563-0.5241566,1.2325563-1.20784V20.191431z M8,23.1996365
		c-0.6744184,0-1.2325578-0.5469456-1.2325578-1.20784c0-0.6608925,0.5581393-1.2078381,1.2325578-1.2078381
		s1.2325583,0.5469456,1.2325583,1.2078381C9.2325583,22.6526909,8.6744184,23.1996365,8,23.1996365L8,23.1996365z
		 M6.1627908,2.4156806h3.6744189c0.3488369,0,0.6279058,0.2734723,0.6279058,0.5925243
		c0,0.3418419-0.2790689,0.6153142-0.6279058,0.6153142H6.1627908c-0.3488379,0-0.6279073-0.2734723-0.6279073-0.6153142
		C5.5348835,2.689153,5.8139529,2.4156806,6.1627908,2.4156806L6.1627908,2.4156806z"/>
</g>
</svg>
