<?xml version="1.0" encoding="utf-8"?>
<!-- Generator: Adobe Illustrator 21.1.0, SVG Export Plug-In . SVG Version: 6.00 Build 0)  -->
<svg version="1.1" id="Layer_1" xmlns="http://www.w3.org/2000/svg" xmlns:xlink="http://www.w3.org/1999/xlink" x="0px" y="0px"
	 viewBox="0 0 22 22" style="enable-background:new 0 0 22 22;" xml:space="preserve">
<style type="text/css">
	.st0{fill-rule:evenodd;clip-rule:evenodd;fill:#6E6E6E;}
</style>
<g>
	<path class="st0" d="M10.999999,0C17.0650501,0,22,4.9349504,22,11s-4.9349499,11-11.000001,11S0,17.0650501,0,11
		S4.9349499,0,10.999999,0L10.999999,0z M10.999999,20.6445999c5.3179579,0,9.6446009-4.3266411,9.6446009-9.6445999
		s-4.326643-9.6445999-9.6446009-9.6445999S1.355399,5.6820416,1.355399,11S5.6820416,20.6445999,10.999999,20.6445999
		L10.999999,20.6445999z M11.6776991,17.512043v1.346386H10.3223v-1.346386h-0.2198925
		c-1.8582649,0-3.3704724-1.512207-3.3704724-3.3704729v-0.2289047h1.3553987v0.2289047
		c0,1.1111746,0.9039001,2.0150728,2.0150738,2.0150728h1.7951832c1.1111755,0,2.0150747-0.9038982,2.0150747-2.0150728v-0.4487963
		c0-1.1111746-0.9038992-2.0150747-2.0150747-2.0150747h-1.7951832c-1.8582649,0-3.3704724-1.512207-3.3704724-3.3704729V7.8584309
		c0-1.8582673,1.5122075-3.3704729,3.3704724-3.3704729H10.3223V3.1415708h1.3553991V4.487958h0.2198915
		c1.8582668,0,3.3704739,1.5122056,3.3704739,3.3704729v0.2289028h-1.3553991V7.8584309
		c0-1.1111741-0.9038992-2.0150747-2.0150747-2.0150747h-1.7951832c-1.1111736,0-2.0150738,0.9039006-2.0150738,2.0150747v0.4487953
		c0,1.1111746,0.9039001,2.0150747,2.0150738,2.0150747h1.7951832c1.8582668,0,3.3704739,1.512207,3.3704739,3.3704729v0.4487963
		c0,1.8582659-1.512207,3.3704729-3.3704739,3.3704729H11.6776991z"/>
</g>
</svg>
