<?xml version="1.0" standalone="no"?>
<!DOCTYPE svg PUBLIC "-//W3C//DTD SVG 20010904//EN"
 "http://www.w3.org/TR/2001/REC-SVG-20010904/DTD/svg10.dtd">
<svg version="1.0" xmlns="http://www.w3.org/2000/svg"
 width="912.000000pt" height="912.000000pt" viewBox="0 0 912.000000 912.000000"
 preserveAspectRatio="xMidYMid meet">
<metadata>
Created by potrace 1.11, written by Peter Selinger 2001-2013
</metadata>
<g transform="translate(0.000000,912.000000) scale(0.100000,-0.100000)"
fill="#000000" stroke="none">
<path d="M2636 8744 c-9 -8 -16 -12 -16 -8 0 23 -78 -105 -83 -136 -2 -11 -6
-23 -10 -26 -14 -14 -6 -22 56 -59 34 -22 64 -42 65 -47 2 -4 9 -8 15 -8 11 0
219 -140 260 -175 7 -6 32 -26 57 -45 25 -19 58 -46 75 -60 54 -46 240 -234
280 -285 22 -27 43 -51 48 -53 4 -2 7 -10 7 -18 0 -8 3 -14 8 -14 4 0 18 -17
32 -38 14 -20 27 -39 30 -42 3 -3 10 -14 17 -25 6 -11 34 -56 61 -100 52 -83
85 -140 109 -187 8 -16 16 -28 17 -28 2 0 1 96 -1 213 -4 207 -5 213 -29 245
-14 17 -23 32 -19 32 9 0 -164 251 -247 357 -91 116 -271 301 -359 369 -167
128 -325 187 -373 138z"/>
<path d="M6340 8738 c-47 -18 -174 -90 -190 -108 -3 -3 -27 -22 -53 -44 -79
-63 -239 -227 -309 -316 -46 -59 -142 -186 -158 -210 -8 -12 -23 -33 -32 -45
-10 -13 -18 -28 -18 -34 0 -6 -4 -11 -9 -11 -5 0 -13 -9 -16 -20 -3 -11 -23
-45 -44 -76 l-38 -56 -3 -142 c-3 -199 -3 -286 2 -291 2 -2 17 22 33 53 62
119 162 281 222 357 13 17 27 35 31 40 64 88 249 282 340 355 24 19 52 42 62
50 10 8 31 24 46 35 15 11 33 26 40 33 7 6 16 12 19 12 4 0 21 11 39 25 17 14
36 29 41 33 6 4 60 39 120 76 135 85 150 98 140 123 -5 10 -9 20 -9 23 -6 25
-52 102 -76 125 -40 38 -105 43 -180 13z"/>
<path d="M2480 8313 c-7 -62 -5 -374 3 -423 24 -158 57 -254 143 -425 36 -69
186 -301 209 -320 6 -5 27 -30 46 -55 73 -95 272 -301 389 -402 97 -83 104
-90 140 -117 19 -14 37 -28 40 -31 9 -10 85 -65 138 -101 57 -39 78 -63 83
-95 4 -23 -31 -136 -46 -146 -5 -4 -7 -8 -2 -8 4 0 1 -13 -7 -29 -23 -43 -136
-328 -158 -396 -26 -82 -48 -171 -54 -212 -2 -20 -6 -38 -9 -42 -9 -16 -19
-162 -19 -286 0 -257 18 -337 121 -540 31 -60 61 -120 67 -132 6 -13 14 -23
19 -23 4 0 7 -5 7 -10 0 -19 177 -274 260 -373 124 -150 255 -287 275 -287 48
0 197 67 305 136 41 26 45 33 44 67 -1 47 -9 55 -59 61 -54 6 -96 16 -120 30
-11 5 -23 10 -26 11 -9 0 -59 37 -81 60 -59 60 -68 143 -24 218 15 26 34 47
42 47 8 0 14 4 14 10 0 8 52 37 83 45 4 2 8 3 10 5 3 2 30 9 77 18 62 12 385
6 385 -8 0 -1 11 -4 25 -6 37 -7 104 -41 133 -68 77 -71 80 -179 9 -262 -17
-20 -134 -92 -139 -86 -2 1 -4 2 -5 1 -6 -1 -35 -7 -68 -14 -19 -4 -42 -8 -50
-10 -8 -2 -17 -4 -20 -4 -3 -1 -5 -20 -5 -43 0 -40 3 -45 45 -72 107 -69 254
-136 299 -136 35 0 296 287 391 430 8 12 20 28 26 34 6 6 23 32 39 56 15 25
31 47 34 50 10 8 42 63 48 83 3 9 9 17 14 17 5 0 9 6 9 14 0 8 4 16 8 18 14 6
129 251 150 320 12 36 23 90 27 120 7 67 16 180 16 193 -1 6 -3 53 -5 105 -4
102 -11 164 -27 244 -6 28 -13 64 -16 80 -11 66 -114 353 -168 471 -8 17 -32
74 -54 128 -50 127 -46 144 51 215 31 23 59 42 62 42 2 0 15 9 28 20 12 11 61
50 108 87 47 38 103 84 125 103 64 56 286 281 330 334 22 26 45 53 50 59 69
81 195 260 195 277 0 5 4 10 9 10 5 0 14 15 22 33 7 17 17 35 22 38 4 3 9 13
11 21 1 8 9 26 17 39 16 25 78 170 84 198 2 9 11 41 19 71 9 30 19 80 23 110
9 65 11 456 2 464 -11 11 -284 -176 -434 -296 -52 -42 -233 -223 -267 -268
-15 -19 -56 -72 -92 -118 -65 -82 -156 -215 -194 -282 -11 -19 -36 -63 -55
-97 -20 -35 -33 -63 -29 -63 4 0 2 -4 -4 -8 -10 -7 -68 -137 -101 -226 -10
-27 -16 -85 -18 -171 -2 -71 -8 -142 -13 -156 -11 -28 -65 -59 -93 -54 -62 12
-909 24 -1045 15 -42 -3 -78 -2 -81 3 -2 4 -9 5 -14 1 -5 -3 -78 -7 -162 -10
-83 -2 -178 -6 -210 -8 -76 -4 -103 2 -129 29 -27 28 -28 32 -32 195 l-3 135
-107 210 c-60 116 -114 217 -122 226 -8 8 -14 19 -14 22 0 16 -161 267 -195
303 -5 6 -26 31 -45 55 -49 61 -227 239 -275 274 -22 17 -49 38 -60 48 -11 11
-49 40 -85 65 -36 26 -66 50 -68 54 -2 5 -8 8 -12 8 -12 0 -104 62 -108 72 -2
4 -9 8 -15 8 -7 0 -23 9 -37 20 -36 28 -45 25 -50 -17z m1595 -2768 c37 -9
128 -47 135 -55 3 -4 19 -15 36 -24 63 -37 77 -96 35 -147 -33 -38 -82 -44
-128 -13 -81 54 -96 59 -183 59 -78 -1 -91 -4 -162 -38 -95 -47 -133 -50 -165
-13 -46 54 -29 120 38 152 21 11 39 22 39 27 0 4 7 7 15 7 9 0 30 7 46 16 29
15 40 18 99 30 13 3 26 7 27 8 6 6 139 -1 168 -9z m1240 -4 c22 -6 43 -11 47
-11 4 0 43 -18 85 -40 107 -54 129 -93 91 -161 -12 -21 -25 -36 -29 -33 -4 2
-10 0 -13 -4 -9 -15 -51 -6 -108 23 -86 43 -127 54 -202 52 -62 -2 -80 -7
-141 -41 -86 -48 -129 -50 -162 -9 -35 43 -30 89 12 129 41 38 130 83 200 99
57 14 162 12 220 -4z"/>
<path d="M4558 7808 c-7 -13 -42 -86 -77 -163 -153 -336 -169 -363 -233 -389
-64 -26 -117 -1 -208 98 -25 26 -58 63 -75 81 -16 17 -47 53 -69 79 -21 26
-41 45 -43 42 -3 -2 -4 -69 -3 -148 2 -147 8 -557 9 -593 1 -19 8 -20 96 -20
52 0 95 3 95 6 0 6 954 4 1113 -3 54 -2 101 0 103 4 4 6 17 445 15 498 -1 8
-1 29 0 45 0 17 0 39 -1 50 -1 11 -1 25 -1 30 0 6 2 35 3 65 2 30 -1 56 -5 58
-4 1 -26 -19 -49 -45 -22 -27 -47 -52 -54 -56 -8 -4 -14 -12 -14 -17 0 -16
-151 -161 -179 -172 -57 -23 -121 -5 -163 46 -21 26 -62 110 -145 296 -14 30
-36 80 -50 110 -38 82 -46 104 -45 113 3 14 -6 7 -20 -15z"/>
<path d="M1005 4860 c-71 -15 -116 -73 -110 -139 3 -29 14 -45 57 -83 52 -47
54 -48 123 -49 39 -1 73 -1 77 -1 3 1 79 2 168 3 89 0 158 4 154 8 -9 9 -158
112 -279 194 -80 54 -145 77 -190 67z"/>
<path d="M8042 4855 c-22 -7 -92 -47 -154 -89 -132 -88 -235 -160 -243 -167
-7 -7 -4 -7 248 -8 l218 -1 49 37 c49 38 74 82 67 119 -16 86 -97 134 -185
109z"/>
<path d="M2283 4609 c0 -68 -2 -159 -7 -201 -7 -75 -10 -95 -21 -148 -3 -14
-8 -36 -10 -50 -3 -14 -10 -47 -16 -75 -19 -87 -19 -146 -1 -165 27 -27 109
-80 125 -80 8 0 20 -7 27 -15 7 -8 21 -15 32 -15 11 0 28 -5 39 -11 20 -10 20
-8 15 78 -7 117 -18 226 -31 303 -4 25 -9 56 -11 70 -2 14 -7 43 -13 64 -5 22
-8 44 -5 48 3 4 1 8 -3 8 -5 0 -9 9 -10 19 -2 30 -59 190 -87 245 l-24 48 1
-123z"/>
<path d="M101 4402 c-62 -9 -99 -60 -97 -132 2 -92 53 -128 174 -127 l73 0 33
51 c40 61 67 87 122 116 53 27 85 34 155 33 58 -1 127 -25 166 -60 12 -10 38
-43 57 -73 l36 -54 92 -3 c82 -2 95 -5 116 -26 35 -35 39 -88 10 -122 -19 -22
-35 -28 -82 -34 l-59 -6 44 -44 c61 -61 118 -86 224 -96 124 -13 148 -29 147
-98 -1 -79 -49 -100 -192 -83 -218 26 -345 132 -445 371 -42 99 -52 115 -81
131 -81 44 -183 -40 -178 -146 5 -91 46 -200 114 -300 48 -71 153 -178 197
-200 15 -8 30 -18 33 -21 9 -10 110 -58 110 -52 0 3 6 0 14 -6 8 -7 22 -13 32
-16 11 -2 41 -8 68 -15 100 -22 376 -32 551 -18 70 5 205 45 205 60 0 4 6 8
14 8 29 0 176 164 176 196 0 4 6 15 14 23 7 9 25 48 39 86 99 268 31 514 -169
609 -101 48 -129 49 -934 50 -415 1 -766 -1 -779 -2z"/>
<path d="M7500 4402 c-96 -10 -223 -48 -240 -70 -3 -4 -18 -17 -33 -29 -51
-39 -92 -108 -124 -208 -16 -50 -15 -155 2 -240 16 -82 85 -239 128 -291 35
-43 100 -108 122 -122 30 -18 88 -43 98 -41 1 0 14 -4 29 -10 45 -17 126 -24
298 -24 275 -1 365 12 508 75 218 96 398 334 416 553 5 58 -37 136 -83 154
-23 9 -98 9 -105 -1 -30 -41 -49 -74 -60 -105 -12 -35 -39 -91 -80 -170 -21
-40 -108 -128 -158 -159 -72 -46 -211 -79 -316 -76 -70 2 -112 56 -91 119 14
43 48 60 134 67 91 6 173 39 224 87 23 22 41 44 41 48 0 5 -23 11 -51 13 -65
7 -94 33 -94 88 0 30 7 47 26 65 23 24 33 26 118 28 l94 2 17 32 c25 46 79
105 118 126 35 20 63 27 127 31 104 8 228 -64 276 -160 l21 -42 87 2 c66 1 94
6 115 19 76 50 68 196 -12 229 -19 8 -255 11 -777 12 -412 1 -761 0 -775 -2z"/>
<path d="M4439 4388 c-36 -4 -78 -14 -94 -22 l-28 -15 33 -20 c75 -45 324 -48
422 -5 21 9 35 21 32 26 -7 11 -48 28 -84 35 -43 8 -212 9 -281 1z"/>
<path d="M3605 4107 c-10 -7 -64 -56 -120 -111 -128 -126 -188 -175 -268 -220
-60 -34 -171 -83 -207 -92 -108 -27 -143 -35 -190 -40 -76 -10 -228 -11 -270
-3 -105 22 -150 30 -152 29 -6 -3 -148 61 -182 81 -36 21 -36 21 -36 1 0 -26
-52 -147 -91 -214 -38 -65 -109 -156 -143 -186 -15 -12 -24 -27 -21 -32 7 -11
185 -101 255 -128 96 -37 211 -65 330 -78 47 -5 200 -5 226 0 12 2 45 7 74 11
29 4 64 11 77 16 13 5 23 5 23 2 0 -4 5 -2 12 5 7 7 18 12 24 12 7 0 25 5 41
12 15 6 30 12 33 13 3 1 28 12 55 24 43 19 55 32 80 79 73 142 240 421 264
442 4 3 32 40 64 83 32 43 69 90 82 105 14 15 47 52 74 82 l49 54 -25 33 c-28
36 -30 37 -58 20z"/>
<path d="M5468 4087 c-30 -35 -28 -41 26 -100 47 -53 108 -126 125 -151 8 -12
18 -23 21 -26 3 -3 22 -27 41 -55 18 -27 36 -52 39 -55 15 -15 50 -71 50 -80
0 -5 5 -10 10 -10 6 0 10 -4 10 -9 0 -6 13 -29 29 -53 26 -39 62 -105 144
-258 24 -45 39 -60 79 -80 28 -14 53 -25 57 -26 3 0 18 -6 33 -12 31 -13 136
-41 188 -50 49 -9 327 -7 375 2 94 19 193 48 273 82 48 19 93 36 100 36 6 1
12 5 12 8 0 4 15 13 33 21 17 7 45 21 60 32 l28 19 -49 52 c-26 28 -57 65 -67
81 -11 17 -22 32 -25 35 -13 11 -68 119 -90 175 -42 111 -39 107 -69 86 -148
-101 -455 -144 -681 -94 -71 15 -172 48 -228 74 -35 16 -65 29 -68 29 -20 0
-167 118 -268 217 -69 67 -133 126 -143 131 -14 8 -24 4 -45 -21z"/>
<path d="M8966 3963 c-3 -3 -21 -6 -40 -5 -36 1 -40 -3 -50 -58 -9 -56 -29
-117 -52 -160 -30 -56 -30 -59 4 -56 15 1 33 -2 40 -7 6 -5 12 -6 12 -1 0 5
28 8 63 7 70 -1 120 17 143 53 50 76 11 215 -62 219 -16 1 -34 4 -40 8 -6 3
-14 4 -18 0z"/>
<path d="M63 3941 c-37 -29 -56 -80 -50 -134 4 -27 13 -60 22 -73 17 -26 81
-58 102 -50 7 3 15 1 18 -5 4 -5 12 -6 18 -2 6 4 21 7 32 7 11 0 26 -3 32 -7
6 -4 14 -4 17 1 3 5 19 7 35 6 17 -1 31 -1 31 1 0 1 -11 27 -24 56 -33 75 -39
92 -42 109 -1 8 -5 29 -8 45 -4 17 -8 37 -10 45 -4 22 -145 23 -173 1z"/>
<path d="M3763 3848 c-27 -28 -56 -59 -65 -70 -10 -10 -18 -22 -18 -27 0 -5
-4 -11 -10 -13 -5 -1 -41 -46 -79 -98 -39 -52 -74 -100 -79 -105 -9 -11 -88
-140 -112 -183 -9 -15 -22 -38 -30 -52 -8 -14 -13 -28 -12 -32 1 -5 -2 -8 -7
-8 -5 0 -12 -10 -16 -22 -9 -27 -3 -14 -52 -118 -51 -107 -133 -316 -147 -375
-2 -5 -6 -17 -9 -25 -14 -33 -55 -200 -62 -250 -2 -14 -4 -25 -5 -25 -7 0 -40
-211 -47 -300 -11 -134 -5 -377 12 -470 27 -146 38 -192 63 -275 41 -132 63
-186 112 -276 40 -74 108 -177 155 -233 29 -35 155 -161 196 -195 164 -138
439 -267 662 -311 15 -3 37 -7 50 -9 100 -21 397 -30 487 -16 30 5 73 11 95
14 22 3 69 12 105 21 36 9 72 18 80 20 35 7 220 80 275 108 68 35 210 127 243
157 11 11 24 20 28 20 3 0 50 45 104 100 145 148 269 346 328 525 35 104 61
199 66 235 3 19 9 58 15 85 30 153 33 452 6 596 -3 14 -6 43 -8 66 -2 22 -7
45 -11 52 -4 6 -5 11 -2 11 2 0 -2 27 -10 60 -7 32 -16 74 -20 92 -8 45 -12
63 -14 63 -1 0 -3 7 -5 15 -15 63 -41 148 -67 220 -16 47 -35 102 -41 123 -6
20 -15 37 -19 37 -4 0 -8 7 -8 15 0 9 -21 59 -47 113 -25 53 -47 99 -48 102
-42 118 -281 469 -438 643 l-43 48 -46 -48 c-46 -49 -188 -184 -228 -216 -45
-38 -160 -117 -169 -117 -5 0 -11 -4 -13 -8 -3 -7 -112 -63 -123 -63 -2 0 -22
-7 -42 -16 -43 -18 -175 -25 -213 -11 -14 6 -34 12 -44 14 -55 11 -231 109
-309 173 -106 86 -192 166 -264 245 -23 25 -45 46 -48 46 -2 0 -26 -23 -52
-52z m2192 -1750 c20 -34 14 -87 -13 -110 -28 -25 -190 -122 -292 -174 -149
-77 -321 -146 -460 -185 -25 -7 -49 -14 -55 -15 -46 -14 -209 -47 -237 -48
-10 0 -18 -3 -18 -6 0 -14 -411 -20 -530 -7 -41 5 -89 10 -106 11 -17 2 -41 7
-54 11 -13 4 -38 9 -54 11 -28 2 -148 33 -266 68 -39 12 -98 34 -205 76 -16 6
-30 11 -30 10 0 -1 -23 10 -51 24 -29 14 -56 26 -62 26 -5 0 -15 7 -22 15 -6
8 -15 14 -18 13 -11 -2 -101 43 -168 85 -34 20 -66 37 -71 37 -5 0 -28 17 -51
38 -32 29 -42 46 -42 69 0 41 48 93 85 93 24 0 92 -26 105 -39 14 -16 289
-157 375 -193 76 -32 146 -56 156 -54 3 0 12 -4 20 -10 8 -6 37 -17 64 -23 28
-7 55 -14 60 -16 6 -1 13 -3 17 -4 4 -1 22 -7 40 -12 18 -6 44 -12 58 -15 14
-2 36 -7 50 -10 142 -34 450 -50 593 -30 26 3 68 9 95 12 88 11 197 37 322 77
36 12 67 22 70 22 32 8 233 94 270 115 14 8 27 14 30 15 3 0 28 13 55 28 57
32 56 31 149 88 38 23 80 45 95 48 36 10 76 -7 96 -41z"/>
<path d="M4500 3824 c-30 -19 -88 -51 -127 -71 -40 -19 -73 -38 -73 -42 0 -18
155 -96 212 -107 55 -11 72 -11 108 -2 54 14 110 39 169 76 l54 34 -89 44
c-106 52 -158 83 -162 95 -6 17 -37 8 -92 -27z"/>
<path d="M2037 3044 c-3 -3 -3 -12 -1 -18 3 -7 6 -30 8 -52 7 -79 33 -160 85
-262 l30 -59 103 -33 c57 -19 105 -34 108 -35 67 -18 270 -126 377 -201 52
-36 96 -64 98 -62 4 4 13 45 21 101 8 53 8 50 34 160 l23 99 -69 70 c-94 97
-107 111 -133 144 -21 27 -26 28 -115 30 -80 1 -123 5 -231 19 -11 2 -54 13
-95 24 -41 12 -79 23 -85 24 -5 1 -16 6 -22 10 -7 5 -13 6 -13 3 0 -3 -25 6
-55 20 -62 27 -59 26 -68 18z"/>
<path d="M2955 2968 c-27 -9 -45 -17 -40 -18 6 0 19 -14 30 -30 11 -16 25 -30
32 -30 12 0 46 88 35 93 -4 2 -29 -5 -57 -15z"/>
<path d="M7137 2519 c-14 -4 -28 -5 -31 -2 -9 9 -228 -38 -314 -68 -73 -26
-219 -96 -281 -134 -53 -33 -141 -99 -141 -106 0 -5 -4 -9 -10 -9 -5 0 -21
-12 -36 -27 l-27 -27 -3 -195 c-1 -108 -4 -212 -7 -231 -3 -19 -8 -60 -12 -90
-4 -30 -9 -59 -12 -63 -2 -4 -7 -24 -9 -45 -6 -50 -19 -98 -60 -222 -57 -172
-119 -291 -251 -486 -12 -18 -65 -76 -118 -129 -52 -54 -95 -100 -95 -104 0
-3 321 -6 714 -5 562 1 721 4 745 14 50 20 63 63 65 219 2 132 2 133 29 157
32 28 82 32 114 9 29 -21 43 -69 40 -138 -2 -32 0 -60 5 -63 4 -3 5 -10 3 -17
-2 -7 -6 -45 -9 -85 -3 -40 -8 -77 -11 -82 -7 -11 6 -12 156 -12 63 0 115 5
128 12 43 22 59 80 57 203 -2 126 5 159 39 181 49 33 108 15 130 -38 20 -47
21 -313 1 -344 -9 -14 -6 -14 101 -14 61 1 91 6 120 21 70 36 117 119 128 227
5 52 2 82 -19 172 -7 31 -48 100 -80 134 -14 14 -51 39 -83 55 l-58 28 -693 2
c-381 0 -704 4 -719 8 -33 8 -52 28 -63 64 -10 34 12 86 44 103 15 9 137 12
413 12 l392 1 32 30 c36 34 116 120 159 172 21 25 82 113 96 138 6 11 21 37
32 58 22 38 60 142 69 187 26 139 -12 274 -104 366 -31 32 -134 104 -147 104
-3 0 -17 5 -33 12 -15 6 -32 12 -38 13 -5 2 -30 8 -54 15 -82 22 -243 33 -294
19z"/>
<path d="M1698 2504 c-3 -2 -22 -5 -44 -8 -50 -5 -163 -36 -170 -47 -3 -5 -14
-9 -25 -9 -10 0 -19 -3 -19 -8 0 -4 -12 -13 -27 -20 -78 -35 -163 -154 -180
-252 -16 -94 2 -208 50 -310 11 -25 20 -48 19 -52 -1 -5 2 -8 8 -8 5 0 10 -6
10 -13 0 -7 16 -35 35 -62 19 -28 46 -66 59 -85 13 -19 64 -78 113 -130 l90
-95 394 0 c431 -1 430 -1 455 -60 18 -44 4 -85 -37 -109 -28 -17 -76 -18 -732
-19 l-702 -2 -50 -23 c-108 -50 -182 -169 -189 -302 -7 -140 42 -245 138 -296
39 -22 213 -24 207 -3 -7 22 -10 290 -4 321 14 71 96 101 149 54 28 -23 28
-24 29 -157 2 -150 17 -202 64 -221 14 -6 71 -10 126 -10 151 0 157 0 149 14
-12 19 -12 299 -1 333 13 41 45 65 89 65 28 0 42 -7 62 -31 26 -30 26 -35 23
-133 -5 -153 15 -224 68 -241 16 -5 1310 -10 1501 -6 l42 1 -109 111 c-60 60
-109 116 -109 124 0 7 -3 15 -7 17 -13 5 -63 76 -63 87 0 6 -4 11 -9 11 -20 0
-171 331 -187 409 -3 14 -8 29 -12 35 -3 6 -7 16 -9 21 -3 14 -33 146 -38 170
-3 11 -8 43 -11 70 -3 28 -8 61 -10 75 -3 14 -7 104 -10 200 l-4 175 -48 42
c-26 23 -54 49 -62 56 -29 28 -182 127 -195 127 -7 0 -15 4 -17 8 -6 14 -156
81 -263 117 -69 23 -157 44 -255 61 -35 6 -278 13 -282 8z"/>
</g>
</svg>
