<?xml version="1.0" encoding="utf-8"?>

<svg version="1.1" id="Layer_1" xmlns="http://www.w3.org/2000/svg" xmlns:xlink="http://www.w3.org/1999/xlink">
<path id="arrow_big-1" class="path1" d="M18.6725636,17.2045898l-16.7647057-16.875c-0.4365809-0.4394532-1.143842-0.4394532-1.5804229,0
	s-0.4365809,1.1513672,0,1.5908203L16.3019295,18L0.3274357,34.0795898c-0.4365809,0.4394531-0.4365809,1.1513672,0,1.5908203
	C0.5457261,35.8901367,0.830959,36,1.1176471,36s0.571921-0.1098633,0.7902114-0.3295898l16.7647057-16.875
	C19.1091461,18.355957,19.1091461,17.644043,18.6725636,17.2045898z"/>
<path id="arrow_big-2" class="path1" d="M18.6725636,17.2045898l-16.7647057-16.875c-0.4365809-0.4394532-1.143842-0.4394532-1.5804229,0
	s-0.4365809,1.1513672,0,1.5908203L16.3019295,18L0.3274357,34.0795898c-0.4365809,0.4394531-0.4365809,1.1513672,0,1.5908203
	C0.5457261,35.8901367,0.830959,36,1.1176471,36s0.571921-0.1098633,0.7902114-0.3295898l16.7647057-16.875
	C19.1091461,18.355957,19.1091461,17.644043,18.6725636,17.2045898z"/>
</svg>