<?xml version="1.0" encoding="utf-8"?>
<!-- Generator: Adobe Illustrator 21.1.0, SVG Export Plug-In . SVG Version: 6.00 Build 0)  -->
<svg version="1.1" id="Layer_1" xmlns="http://www.w3.org/2000/svg" xmlns:xlink="http://www.w3.org/1999/xlink" x="0px" y="0px"
	 viewBox="0 0 21 21" style="enable-background:new 0 0 21 21;" xml:space="preserve">
<style type="text/css">
	.st0{fill:#FFD800;}
</style>
<g>
	<path class="st0" d="M21.0023632,10.5141735c0-5.8110237-4.7055111-10.5165367-10.4881897-10.5165367
		c-5.8110242,0-10.5165367,4.705513-10.5165367,10.5165367c0,5.7826767,4.7055125,10.4881897,10.5165367,10.4881897
		C16.2968521,21.0023632,21.0023632,16.2968502,21.0023632,10.5141735L21.0023632,10.5141735z M19.3866158,10.5141735
		c0,4.9039364-3.968504,8.8724403-8.8724422,8.8724403c-4.9322844,0-8.9007883-3.968504-8.9007883-8.8724403
		c0-4.9322853,3.968504-8.9007893,8.9007883-8.9007893C15.4181118,1.6133842,19.3866158,5.5818882,19.3866158,10.5141735
		L19.3866158,10.5141735z M16.9488201,10.5141735c0-0.4535446-0.3401585-0.8220482-0.7937012-0.8220482h-4.8472443V4.8448811
		c0-0.4535427-0.3685045-0.7937012-0.8220472-0.7937012c-0.4251976,0-0.7937012,0.3401585-0.7937012,0.7937012v5.6692924
		c0,0.4251957,0.3685036,0.7937012,0.7937012,0.7937012h5.6692915
		C16.6086617,11.3078747,16.9488201,10.9393692,16.9488201,10.5141735L16.9488201,10.5141735z"/>
</g>
</svg>
