<?xml version="1.0" encoding="utf-8"?>
<!-- Generator: Adobe Illustrator 21.1.0, SVG Export Plug-In . SVG Version: 6.00 Build 0)  -->
<svg version="1.1" id="Layer_1" xmlns="http://www.w3.org/2000/svg" xmlns:xlink="http://www.w3.org/1999/xlink" x="0px" y="0px"
	 viewBox="0 0 24 24" style="enable-background:new 0 0 24 24;" xml:space="preserve">
<style type="text/css">
	.st0{fill:#D3D3D3;}
</style>
<g id="Layer_1_1_">
	<path class="st0" d="M12,0C5.3835001,0,0,5.3835001,0,12c0,3.5454998,1.5469999,6.7360001,4,8.9344997v0.0084991
		l0.1739998,0.1499996c0.0304999,0.0265007,0.0640001,0.0485001,0.0949998,0.0744991
		c0.2154999,0.1819992,0.4375,0.3565006,0.6655002,0.5235004c0.0615001,0.0450001,0.1230001,0.0884991,0.1855001,0.132
		c0.2420001,0.1700001,0.4895,0.3320007,0.7434998,0.4839993c0.0425,0.0254993,0.086,0.0494995,0.1285,0.0739994
		c0.2785001,0.1620007,0.5630002,0.3145008,0.855,0.4540005c0.0029998,0.0014992,0.006,0.0025005,0.0089998,0.0039997
		c0.6244998,0.2975006,1.2795005,0.5410004,1.9575,0.7280006c0.0124998,0.0035,0.0249996,0.0074997,0.0375004,0.0105
		c0.3205004,0.0874996,0.6464996,0.1609993,0.9770002,0.2215004c0.0310001,0.0055008,0.0614996,0.0109997,0.0924997,0.0165005
		c0.3190002,0.0559998,0.6420002,0.1005001,0.9694996,0.1310005c0.0375004,0.0035,0.0749998,0.0055008,0.1120005,0.0084991
		C11.3315001,23.9825001,11.6634998,24,12,24s0.6684999-0.0174999,0.9980001-0.0450001
		c0.0375004-0.0030003,0.0749998-0.0049992,0.1120005-0.0084991c0.3275003-0.0300007,0.6505003-0.0750008,0.9694996-0.1310005
		c0.0310001-0.0055008,0.0614996-0.0109997,0.0924997-0.0165005c0.3304996-0.0604992,0.6564999-0.1340008,0.9770002-0.2215004
		c0.0124998-0.0035,0.0249996-0.007,0.0375004-0.0105c0.6779995-0.1870003,1.3330002-0.4305,1.9575005-0.7280006
		c0.0030003-0.0014992,0.0060005-0.0025005,0.0090008-0.0039997c0.2919998-0.1394997,0.5764999-0.2924995,0.8549995-0.4540005
		c0.0429993-0.0249996,0.0860004-0.0485001,0.1285-0.0739994c0.2544994-0.1520004,0.5020008-0.3145008,0.7434998-0.4839993
		c0.0620003-0.0435009,0.1240005-0.0869999,0.1854992-0.132c0.2280006-0.1669998,0.4500008-0.3414993,0.6655006-0.5235004
		c0.0310001-0.0259991,0.0645008-0.0480003,0.0949993-0.0744991L20,20.9430008v-0.0084991
		c2.4529991-2.1989994,4-5.3889999,4-8.9344997C24,5.3835001,18.6165009,0,12,0z M12,12c-2.2054996,0-4-1.7945004-4-4
		s1.7945004-4,4-4s4,1.7944999,4,4S14.2054996,12,12,12z M13.5,13c3.0324993,0,5.5,2.4674997,5.5,5.5v1.9790001
		c-0.0209999,0.0174999-0.0429993,0.0335007-0.0639992,0.0510006c-0.1975002,0.1604996-0.3999996,0.3129997-0.6070004,0.4589996
		c-0.0459995,0.0324993-0.0909996,0.066-0.1369991,0.0974998c-0.2234993,0.1525002-0.4529991,0.2954998-0.6865005,0.4309998
		c-0.0424995,0.0249996-0.0855007,0.0494995-0.1285,0.0739994c-0.2450008,0.1375008-0.4944992,0.2665005-0.7490005,0.3845005
		c-0.0265007,0.0125008-0.0534992,0.0244999-0.0804996,0.0365009c-0.8304996,0.3775005-1.7054996,0.651001-2.6059999,0.8129997
		c-0.0284996,0.0049992-0.0570002,0.0105-0.0854998,0.0154991c-0.2834997,0.0485001-0.5695,0.0860004-0.8575001,0.1124992
		c-0.0395002,0.0035-0.0795002,0.0060005-0.1195002,0.0090008C12.5874996,22.9850006,12.2945004,23,12,23
		s-0.5874996-0.0149994-0.8789997-0.0384998c-0.0395002-0.0030003-0.0795002-0.0055008-0.1195002-0.0090008
		c-0.2880001-0.0265007-0.5740004-0.0634995-0.8575001-0.1124992c-0.0284996-0.0049992-0.0570002-0.0100002-0.0854998-0.0154991
		C9.158,22.6625004,8.283,22.3890018,7.4525003,22.0115013c-0.027-0.0125008-0.0539999-0.0240002-0.0805001-0.0365009
		c-0.2544999-0.118-0.5040002-0.2469997-0.7490001-0.3845005c-0.0430002-0.0244999-0.0854998-0.0489998-0.1285-0.0739994
		c-0.2335-0.1350002-0.4629998-0.2784996-0.6865001-0.4309998C5.7614999,21.0540009,5.7165003,21.0205002,5.671,20.9880009
		c-0.2069998-0.1459999-0.4095001-0.2980003-0.6069999-0.4589996C5.0430002,20.512001,5.0209999,20.4955006,5,20.4780006V18.5
		c0-3.0325003,2.4674997-5.5,5.5-5.5H13.5z M20,19.5380001V18.5c0-3.1355-2.2320004-5.7595005-5.1900005-6.3675003
		C16.1305008,11.2320004,17,9.7154999,17,8c0-2.757-2.243-5-5-5S7,5.243,7,8c0,1.7154999,0.8695002,3.2320004,2.1900005,4.1324997
		C6.2319999,12.7405005,4,15.3645,4,18.5v1.0380001C2.142,17.5674992,1,14.9154997,1,12C1,5.9345002,5.9345002,1,12,1
		s11,4.9345002,11,11C23,14.9154997,21.8579998,17.5674992,20,19.5380001z"/>
</g>
</svg>
