<svg width="2003" height="742" viewBox="0 0 2003 742" fill="none" xmlns="http://www.w3.org/2000/svg">
<circle cx="370.625" cy="371.375" r="370.625" fill="#FFD800"/>
<path d="M1548 351.034V486.034" stroke="#212529" stroke-width="30" stroke-linecap="round" stroke-linejoin="round"/>
<path d="M1546.5 294.534V296.034" stroke="#212529" stroke-width="30" stroke-linecap="round" stroke-linejoin="round"/>
<path d="M1417.5 138.034V488.534M1353 294.534H1480.5M1353 294.534H1480.5" stroke="#212529" stroke-width="30" stroke-linecap="round" stroke-linejoin="round"/>
<path d="M1674.5 488.534V138.034C1671.83 107.7 1684.7 46.6338 1757.5 45.0338C1830.3 43.4338 1851.5 99.0338 1853 127.034M1610 294.534H1737.5" stroke="#212529" stroke-width="30" stroke-linecap="round" stroke-linejoin="round"/>
<path d="M1128.5 292.034V356.534M1128.5 484.534V356.534M1128.5 356.534C1139.17 335.034 1172.6 292.034 1221 292.034C1281.5 292.034 1309.5 335.034 1313 356.534C1315.8 373.734 1314.17 449.034 1313 484.534" stroke="#212529" stroke-width="30" stroke-linecap="round" stroke-linejoin="round"/>
<path d="M1987.05 294.034L1987.05 422.034M1987.05 422.034L1987.05 631.534C1986.03 657.867 1968.2 710.734 1905 711.534C1873.17 712.7 1809.2 698.334 1808 631.534M1987.05 422.034C1976.38 443.534 1942.95 486.534 1894.55 486.534C1834.05 486.534 1806.05 443.534 1802.55 422.034C1799.75 404.834 1801.38 329.534 1802.55 294.034" stroke="#212529" stroke-width="30" stroke-linecap="round" stroke-linejoin="round"/>
<path d="M631.5 294.534L739 487.534L844.5 294.534" stroke="#212529" stroke-width="30" stroke-linecap="round" stroke-linejoin="round"/>
<path d="M119 380.534C119 380.534 294.479 380.534 407 380.534M407 380.534C483.152 380.534 602 380.534 602 380.534C583.6 252.534 413.455 274.034 407 380.534ZM407 380.534C401 479.534 526.3 533.034 597.5 423.034M407 380.534C407.468 380.534 406.534 380.534 407 380.534Z" stroke="#212529" stroke-width="30" stroke-linecap="round" stroke-linejoin="round"/>
<path d="M869 380.443C945.152 380.443 1064 380.443 1064 380.443C1045.6 252.443 875.328 276.034 869 380.443ZM869 380.443C863 479.443 988.3 532.943 1059.5 422.943M869 380.443C869.468 380.443 868.534 380.443 869 380.443Z" stroke="#212529" stroke-width="30" stroke-linecap="round" stroke-linejoin="round"/>
</svg>
