<svg width="20" height="20" viewBox="0 0 20 20" fill="none" xmlns="http://www.w3.org/2000/svg">
<path fill-rule="evenodd" clip-rule="evenodd" d="M14.1518 16.2187C14.1593 16.4672 14.0927 16.7123 13.9603 16.9227C13.8279 17.1331 13.6357 17.2992 13.4084 17.3998C13.1811 17.5005 12.9289 17.531 12.6842 17.4876C12.4394 17.4443 12.2132 17.3289 12.0343 17.1562L5.39673 10.9187C5.27223 10.8018 5.17311 10.6607 5.10528 10.504C5.03746 10.3472 5.00244 10.1783 5.00244 10.0075C5.00244 9.83672 5.03746 9.66776 5.10528 9.51103C5.17311 9.35431 5.27223 9.21314 5.39673 9.09624L12.0343 2.85874C12.1536 2.74478 12.2943 2.65555 12.4483 2.59622C12.6022 2.53688 12.7663 2.50861 12.9312 2.51303C13.0961 2.51746 13.2586 2.55448 13.4091 2.62198C13.5597 2.68948 13.6954 2.78611 13.8084 2.90631C13.9215 3.0265 14.0096 3.16788 14.0677 3.3223C14.1258 3.47671 14.1528 3.6411 14.147 3.80598C14.1413 3.97087 14.103 4.13299 14.0343 4.283C13.9656 4.43301 13.8679 4.56793 13.7468 4.67999L8.07678 10.0075L13.7456 15.335C13.8687 15.4478 13.9679 15.5841 14.0375 15.7359C14.107 15.8877 14.1467 16.0519 14.1518 16.2187Z" fill="#8B8B8B"/>
</svg>
