<svg width="20" height="20" viewBox="0 0 20 20" fill="none" xmlns="http://www.w3.org/2000/svg">
<path d="M2.50062 10.8334L15.489 10.8334L11.0781 15.2442C10.9993 15.3213 10.9366 15.4132 10.8936 15.5147C10.8505 15.6162 10.8281 15.7252 10.8275 15.8354C10.8269 15.9456 10.8481 16.0548 10.89 16.1568C10.9319 16.2587 10.9937 16.3513 11.0716 16.4293C11.1495 16.5072 11.2422 16.5689 11.3441 16.6108C11.4461 16.6527 11.5553 16.6739 11.6655 16.6733C11.7758 16.6727 11.8848 16.6502 11.9862 16.6071C12.0877 16.5641 12.1796 16.5014 12.2567 16.4225L18.09 10.5892C18.2462 10.4329 18.334 10.221 18.334 10C18.334 9.77907 18.2462 9.56715 18.09 9.41087L12.2567 3.57754C12.1794 3.50001 12.0875 3.43852 11.9864 3.39662C11.8852 3.35472 11.7768 3.33322 11.6673 3.33337C11.5025 3.33341 11.3414 3.3823 11.2044 3.47387C11.0674 3.56544 10.9606 3.69558 10.8976 3.84783C10.8345 4.00008 10.818 4.16761 10.8501 4.32923C10.8823 4.49086 10.9616 4.63933 11.0781 4.75587L15.489 9.16671L2.50062 9.16671C2.27961 9.16671 2.06765 9.2545 1.91137 9.41078C1.75508 9.56707 1.66729 9.77903 1.66729 10C1.66729 10.2211 1.75508 10.433 1.91137 10.5893C2.06765 10.7456 2.27961 10.8334 2.50062 10.8334Z" fill="#212529"/>
</svg>
