<svg width="41" height="40" viewBox="0 0 41 40" fill="none" xmlns="http://www.w3.org/2000/svg">
<path d="M12.7104 30.1532C12.1648 30.611 11.6923 30.838 11.2004 30.8332C10.0668 30.8217 9.12251 29.6622 7.23396 27.3433L4.70901 24.2428C3.6692 22.9662 3.54198 21.0652 4.40038 19.6307C5.38091 17.9922 7.2614 17.5332 8.72695 18.3553M18.7038 14.1665C20.0223 12.7763 21.4293 11.3868 22.964 9.97782C23.7043 9.29806 24.6272 9.05729 25.5002 9.21119" stroke="white" stroke-width="1.5" stroke-linecap="round"/>
<path d="M24.0093 27.1848C27.7758 22.8192 31.4118 19.8575 35.9792 15.6635C37.3462 14.4081 37.5573 12.2077 36.4848 10.6487C35.3452 8.99179 33.1793 8.66062 31.7135 9.97782C27.5298 13.7371 24.275 17.3567 21.1875 21.2255C21.0255 21.4285 20.9445 21.53 20.8603 21.5872C20.6472 21.732 20.3807 21.7337 20.1662 21.5912C20.0815 21.535 20.0003 21.4353 19.838 21.2363L18.1928 19.2183C16.6916 17.377 13.9991 17.5808 12.7457 19.6307C11.8686 21.0652 11.9986 22.9662 13.0611 24.2428L15.641 27.3433C17.5707 29.6622 18.5355 30.8217 19.6938 30.8332C20.8522 30.8445 21.9045 29.6245 24.0093 27.1848Z" stroke="white" stroke-width="1.5"/>
</svg>
